<?xml version="1.0" standalone="no"?>
<!DOCTYPE svg PUBLIC "-//W3C//DTD SVG 1.1//EN" "http://www.w3.org/Graphics/SVG/1.1/DTD/svg11.dtd" >
<svg xmlns="http://www.w3.org/2000/svg" xmlns:xlink="http://www.w3.org/1999/xlink" version="1.1">
<metadata>
Created by FontForge 20141024 at Tue Jan 12 15:08:18 2016
 By Jimmy Warting
Copyright (c) TomTor Design and Oneless Act, 2011. All rights reserved . www.tomtor.com
</metadata>
<defs>
<font id="Chams-Bold" horiz-adv-x="500" >
  <font-face 
    font-family="Chams "
    font-weight="700"
    font-stretch="normal"
    units-per-em="1000"
    panose-1="2 0 0 0 0 0 0 0 0 0"
    ascent="800"
    descent="-200"
    x-height="522"
    cap-height="710"
    bbox="-48 -236 1137 1016"
    underline-thickness="50"
    underline-position="-50"
    unicode-range="U+0020-FB02"
  />
<missing-glyph horiz-adv-x="687" 
d="M342 718q0 32 19.5 53t45.5 21h24q11 0 21.5 -6t18.5 -15.5t12.5 -21t4.5 -21.5v-85h-81q-13 0 -25 6.5t-21 17.5t-14 24t-5 27zM329 718q0 -14 -5.5 -27t-14.5 -24t-21 -17.5t-25 -6.5h-82v85q0 10 5 21.5t13.5 21t19.5 15.5t22 6h22q26 0 46 -21t20 -53zM650 557
q0 -29 -18.5 -52t-43.5 -23h-97v-99q0 -26 -21 -46t-54 -20q-14 0 -27.5 5.5t-23.5 14.5t-16 21t-6 25v250h245q25 0 43.5 -21t18.5 -55zM329 633v-250q0 -13 -6 -25t-16 -21t-23 -14.5t-26 -5.5q-35 0 -56 20t-21 46v99h-97q-12 0 -23.5 6.5t-20.5 17t-14.5 24t-5.5 27.5
q0 34 19.5 55t44.5 21h245z" />
    <glyph glyph-name="f_f" unicode="ff" horiz-adv-x="750" 
d="M679 517q20 -3 35 -12t14 -35q0 -17 -15.5 -27t-31.5 -10q-23 2 -52 3.5t-77 1.5v-397q0 -19 -13 -33.5t-33 -14.5q-21 0 -34.5 14.5t-13.5 33.5v397q-8 -2 -17 -2.5t-20 -2.5q-17 -2 -31 6.5t-17 24.5q-3 -14 -17.5 -22.5t-28.5 -8.5q-23 2 -52 3.5t-77 1.5v-397
q0 -19 -13 -33.5t-33 -14.5q-21 0 -34.5 14.5t-13.5 33.5v396l-12 -1.5t-7 -0.5t-7.5 -0.5l-13.5 -1.5q-18 -2 -32.5 8t-14.5 29q-1 26 14.5 35t35.5 12l-2 -1q3 1 11 2.5t28 3.5v34q0 45 12 79.5t35 57.5q42 42 115 42q13 0 30 -0.5t32 -4.5t25 -14t10 -29q0 -17 -15 -28.5
t-32 -12.5q-8 1 -17 1.5t-16 0.5q-20 0 -36 -4t-27 -14.5t-17 -29t-6 -48.5v-27q39 -1 72.5 -3t47.5 -4q2 0 4 -0.5t3 -0.5h1q17 -3 31 -10.5t17 -27.5q3 21 18 28.5t32 9.5q2 0 6 1q7 1 13.5 2t15.5 2v34q0 92 47 137q42 42 115 42q13 0 30 -0.5t32 -4.5t25 -14t10 -29
q0 -17 -15 -28.5t-32 -12.5q-8 1 -17 1.5t-16 0.5q-20 0 -36 -4t-27 -14.5t-17 -29t-6 -48.5v-27q39 -1 72.5 -3t47.5 -4q2 0 4 -0.5t3 -0.5h1z" />
    <glyph glyph-name="fi" unicode="fi" horiz-adv-x="594" 
d="M323 517q20 -3 35 -12t14 -35q0 -17 -15.5 -27t-31.5 -10q-23 2 -52 3.5t-77 1.5v-397q0 -19 -13 -33.5t-33 -14.5t-34 14.5t-14 33.5v397q-8 -3 -17 -3t-20 -2q-18 -2 -32.5 8.5t-14.5 28.5q-1 26 15 35.5t34 11.5q2 0 6 1q7 1 13.5 2t15.5 2v34q0 45 12 79.5t35 57.5
q42 42 115 42q13 0 30 -0.5t32 -4.5t25 -14t10 -29q0 -17 -15 -28.5t-32 -12.5q-8 1 -17 1.5t-16 0.5q-20 0 -36 -4t-27 -14.5t-17 -29t-6 -48.5v-27q39 -1 72.5 -3t47.5 -4q2 0 4 -0.5t3 -0.5h1zM417 479q0 20 13.5 34t33.5 14t33.5 -13.5t13.5 -34.5v-436q0 -20 -13 -34
t-33 -14t-34 14t-14 34v436zM410 657q0 23 15.5 36.5t38.5 13.5t38.5 -13.5t15.5 -36.5v-12q0 -23 -15.5 -36.5t-38.5 -13.5t-38.5 13.5t-15.5 36.5v12z" />
    <glyph glyph-name="fl" unicode="fl" horiz-adv-x="631" 
d="M322 517q20 -3 35 -12t14 -35q0 -17 -15.5 -27t-31.5 -10q-23 2 -48 3.5t-50 1.5h-31v-397q0 -19 -13 -33.5t-33 -14.5t-34 14.5t-14 33.5v397q-3 0 -6 -1t-8 -2t-10.5 -1t-12.5 -1q-18 -2 -32.5 8.5t-14.5 28.5q-1 26 15 35.5t34 11.5q2 0 6 1q7 1 13.5 2t15.5 2v34
q0 45 12 79.5t35 57.5q42 42 115 42q13 0 30 -0.5t32 -4.5t25 -14t10 -29q0 -17 -15 -28.5t-32 -12.5q-8 1 -17 1.5t-16 0.5q-20 0 -35.5 -4t-27 -14.5t-17.5 -29t-6 -48.5v-27q39 -1 72.5 -3t47.5 -4q2 0 4 -0.5t3 -0.5h1zM438 686q0 20 13 34t33 14t34 -14t14 -34v-643
q0 -20 -13.5 -34t-33.5 -14t-33.5 14t-13.5 34v643z" />
    <glyph glyph-name="f_f_i" unicode="ffi" horiz-adv-x="998" 
d="M323 517q20 -3 35 -12t14 -35q0 -17 -15.5 -27t-31.5 -10q-23 2 -52 3.5t-77 1.5v-397q0 -19 -13 -33.5t-33 -14.5t-34 14.5t-14 33.5v397q-8 -3 -17 -3t-20 -2q-18 -2 -32.5 8.5t-14.5 28.5q-1 26 15 35.5t34 11.5q2 0 6 1q7 1 13.5 2t15.5 2v34q0 45 12 79.5t35 57.5
q42 42 115 42q13 0 30 -0.5t32 -4.5t25 -14t10 -29q0 -17 -15 -28.5t-32 -12.5q-8 1 -17 1.5t-16 0.5q-20 0 -36 -4t-27 -14.5t-17 -29t-6 -48.5v-27q39 -1 72.5 -3t47.5 -4q2 0 4 -0.5t3 -0.5h1zM679 517q20 -3 35 -12t14 -35q0 -17 -15.5 -27t-31.5 -10q-23 2 -52 3.5
t-77 1.5v-397q0 -19 -13 -33.5t-33 -14.5q-21 0 -34.5 14.5t-13.5 33.5v397q-3 0 -6 -1t-9 -2q-4 -1 -9.5 -1t-12.5 -1q-18 -2 -33 8.5t-15 28.5q-1 26 15.5 35.5t34.5 11.5q2 0 6 1q7 1 13.5 2t15.5 2v34q0 92 47 137q42 42 115 42q13 0 30 -0.5t32 -4.5t25 -14t10 -29
q0 -17 -15 -28.5t-32 -12.5q-8 1 -17 1.5t-16 0.5q-20 0 -36 -4t-27 -14.5t-17 -29t-6 -48.5v-27q39 -1 72.5 -3t47.5 -4q2 0 4 -0.5t3 -0.5h1zM794 479q0 20 13.5 34t33.5 14t34 -13.5t14 -34.5v-436q0 -20 -13.5 -34t-33.5 -14t-34 14t-14 34v436zM788 670q0 23 15 36
t38 13t38.5 -13t15.5 -36v-13q0 -22 -15.5 -35.5t-38.5 -13.5t-38 13.5t-15 35.5v13z" />
    <glyph glyph-name="f_f_l" unicode="ffl" horiz-adv-x="997" 
d="M102 437h-31q-18 0 -30 12t-12 30q0 17 12.5 29.5t29.5 12.5h31v34q0 45 12 79t35 57q42 42 114 42q18 0 33.5 -2t28.5 -4q14 -3 24.5 -14t10.5 -28q0 -19 -14 -31t-33 -10q-21 3 -37 3q-36 0 -58.5 -21t-22.5 -75v-31h121q18 0 30.5 -11.5t12.5 -30.5q0 -17 -12.5 -29
t-30.5 -12h-120v-394q0 -19 -13 -33.5t-33 -14.5t-34 14.5t-14 33.5v394zM459 437h-31q-19 0 -30.5 12t-11.5 30q0 17 12.5 29.5t29.5 12.5h31v34q0 91 47 136q42 42 114 42q18 0 33.5 -2t28.5 -4q14 -3 24.5 -14t10.5 -28q0 -19 -14 -31t-33 -10q-21 3 -37 3q-37 0 -59 -21
t-22 -75v-31h121q18 0 30.5 -11.5t12.5 -30.5q0 -17 -12.5 -29t-30.5 -12h-120v-394q0 -19 -13 -33.5t-33 -14.5q-21 0 -34.5 14.5t-13.5 33.5v394zM794 686q0 20 13.5 34t33.5 14t34 -14t14 -34v-643q0 -20 -13.5 -34t-33.5 -14t-34 14t-14 34v643z" />
    <glyph glyph-name="ttt" unicode="ttt" horiz-adv-x="921" 
d="M363 596q34 0 58.5 -26.5t24.5 -64.5q0 -19 -6.5 -36t-18 -29.5t-26.5 -19.5t-32 -7h-102v105q0 28 18 49.5t44 28.5h40zM48 294q0 38 24.5 64.5t58.5 26.5l315 1v-323q0 -17 -7.5 -31.5t-20 -25.5t-29.5 -17.5t-36 -6.5q-38 0 -65 23.5t-27 57.5v138h-130q-17 0 -32 7.5
t-26.5 20t-18 29.5t-6.5 36zM788 385q34 0 58 -26.5t24 -64.5q0 -19 -6.5 -36t-17.5 -29.5t-26 -20t-32 -7.5h-130v-138q0 -17 -7 -31.5t-19.5 -25.5t-29.5 -17.5t-36 -6.5q-38 0 -65 23.5t-27 57.5v323zM554 413q-35 0 -59 27t-24 65q0 19 6.5 35.5t17.5 29t26 19.5t33 7
h38q26 -7 44 -28.5t18 -49.5v-105h-100z" />
    <glyph glyph-name=".notdef" horiz-adv-x="687" 
d="M342 718q0 32 19.5 53t45.5 21h24q11 0 21.5 -6t18.5 -15.5t12.5 -21t4.5 -21.5v-85h-81q-13 0 -25 6.5t-21 17.5t-14 24t-5 27zM329 718q0 -14 -5.5 -27t-14.5 -24t-21 -17.5t-25 -6.5h-82v85q0 10 5 21.5t13.5 21t19.5 15.5t22 6h22q26 0 46 -21t20 -53zM650 557
q0 -29 -18.5 -52t-43.5 -23h-97v-99q0 -26 -21 -46t-54 -20q-14 0 -27.5 5.5t-23.5 14.5t-16 21t-6 25v250h245q25 0 43.5 -21t18.5 -55zM329 633v-250q0 -13 -6 -25t-16 -21t-23 -14.5t-26 -5.5q-35 0 -56 20t-21 46v99h-97q-12 0 -23.5 6.5t-20.5 17t-14.5 24t-5.5 27.5
q0 34 19.5 55t44.5 21h245z" />
    <glyph glyph-name="NUL" horiz-adv-x="0" 
 />
    <glyph glyph-name="nonmarkingreturn" horiz-adv-x="312" 
 />
    <glyph glyph-name="space" unicode=" " horiz-adv-x="312" 
 />
    <glyph glyph-name="D" unicode="D" horiz-adv-x="747" 
d="M294 703q82 0 151 -26.5t118 -74t76.5 -111.5t27.5 -139t-27.5 -139t-76.5 -111.5t-118 -74.5t-151 -27h-173q-27 0 -36.5 16t-13.5 40q-11 88 -14.5 164t-3.5 142q0 115 6.5 188.5t13.5 108.5q3 17 10.5 26.5t17 13.5t20 4h21.5h152zM568 349q-2 48 -18 94.5t-48.5 84
t-84 61t-123.5 24.5h-129q-8 -59 -11 -118.5t-3 -119.5q0 -44 1.5 -86.5t3.5 -79.5t4 -67.5t4 -51.5h130q63 0 114.5 20t87.5 55t55 82.5t17 101.5z" />
    <glyph glyph-name="E" unicode="E" horiz-adv-x="647" 
d="M559 89q19 0 32 -12.5t13 -31.5q0 -20 -13 -32.5t-32 -12.5h-416q-19 -1 -31.5 2t-20 9t-11.5 15t-7 19q-11 88 -15 167t-4 147q0 119 7.5 193t12.5 106q5 27 20 36t34 10h426q19 0 32 -13t13 -33q0 -19 -13 -32t-32 -13h-387q-8 -54 -11 -107t-4 -106h358q20 0 32.5 -14
t12.5 -31q0 -19 -12.5 -32t-32.5 -13h-357q1 -79 6 -138.5t7 -82.5h393v0z" />
    <glyph glyph-name="F" unicode="F" horiz-adv-x="590" 
d="M550 702q20 0 32.5 -12.5t12.5 -32.5q0 -18 -12.5 -31.5t-32.5 -13.5h-380q-8 -57 -11 -112t-3 -113h350q18 0 31.5 -13t13.5 -33q0 -19 -13.5 -31.5t-31.5 -12.5h-350q1 -38 3 -74.5t4.5 -67.5t4.5 -54t3 -34q1 -5 1 -8v-5q2 -21 -9.5 -38t-31.5 -17q-29 -1 -40.5 16
t-15.5 40q-11 87 -15 162t-4 141q0 122 8.5 195t13.5 105q2 19 10 28.5t19.5 13.5t24 3.5t23.5 -1.5h395v0z" />
    <glyph glyph-name="G" unicode="G" horiz-adv-x="729" 
d="M695 295v-169q0 -32 -30 -54q-49 -35 -113 -60.5t-142 -25.5q-83 0 -149 28.5t-112 77.5t-71 115.5t-25 143.5q0 72 25.5 137.5t71.5 116t111 80t144 29.5t135.5 -20.5t104.5 -54.5q8 -7 14 -16.5t6 -22.5q0 -17 -8 -28t-20 -16t-25.5 -3.5t-25.5 10.5q-35 27 -78 43.5
t-105 16.5q-55 0 -101 -21.5t-79 -58.5t-51.5 -86.5t-18.5 -105.5q0 -59 18 -109.5t52 -87.5t82 -57.5t108 -20.5q55 0 104 18.5t84 44.5v167q-57 -3 -96 -6.5t-56 -5.5q-3 -1 -6 -1h-5q-20 -1 -37 9.5t-17 30.5q-2 29 15.5 40.5t40.5 15.5q103 13 195 15q34 0 45 -14.5
t14 -32.5z" />
    <glyph glyph-name="H" unicode="H" horiz-adv-x="760" 
d="M605 709q19 0 33.5 -14.5t14.5 -34.5v-615q0 -20 -14.5 -35t-33.5 -15q-20 0 -34.5 15t-14.5 35v261q-39 4 -91.5 5t-106 0.5t-101.5 -2t-77 -4.5q0 -64 0.5 -130t0.5 -130q0 -20 -14.5 -35t-34.5 -15q-19 0 -33 15t-14 35v615q0 20 14 34.5t33 14.5q20 0 34.5 -14.5
t14.5 -34.5l-1 -258q97 7 193 7.5t183 -6.5v257q0 20 14.5 34.5t34.5 14.5z" />
    <glyph glyph-name="I" unicode="I" horiz-adv-x="490" 
d="M377 101q20 2 37.5 -10t16.5 -33q1 -14 -4 -23.5t-13 -15.5t-19 -9.5t-22 -4.5q-20 -3 -35 -4.5t-31 -3t-34.5 -2t-44.5 -0.5q-41 0 -73.5 4t-52.5 6q-11 1 -21.5 4.5t-19 9.5t-13 15.5t-3.5 23.5q-1 21 16.5 33t37.5 10q31 -2 50 -3.5t41 -2.5v515q-21 -1 -41.5 -2.5
t-49.5 -3.5q-19 1 -37 12t-17 31q-1 14 3.5 23.5t12.5 15.5t18.5 9t21.5 5q3 1 15 2.5t30 3t39.5 3t42.5 1.5q61 0 100.5 -4t45.5 -6q11 -2 21.5 -5t19 -9t13 -15.5t3.5 -23.5q1 -21 -16.5 -33t-37.5 -10q-31 3 -49.5 4.5t-41.5 2.5v-517q20 1 42 2.5t49 4.5z" />
    <glyph glyph-name="J" unicode="J" horiz-adv-x="553" 
d="M417 708q11 1 19.5 -3t14.5 -11t9 -16t3 -18v-423q0 -63 -17.5 -109.5t-47.5 -76.5q-63 -60 -158 -60q-70 0 -119 29t-82 72q-11 12 -11.5 26t6 26t17.5 19.5t24 7.5q18 0 35 -17q26 -36 56.5 -54t75.5 -18q54 0 89 38.5t35 115.5v375q-55 -2 -88.5 -4t-52.5 -4
q-21 -1 -37.5 10.5t-16.5 32.5q-1 14 3.5 23.5t13 15.5t19 9t21.5 5z" />
    <glyph glyph-name="K" unicode="K" horiz-adv-x="714" 
d="M657 73q11 -11 12.5 -25.5t-3.5 -27.5t-17 -22t-28 -9q-12 0 -23.5 9.5t-23.5 24.5t-24 32.5t-23 32.5q-21 28 -46 61t-50.5 65t-50.5 61.5t-47 51.5q-22 -21 -46 -47q-21 -22 -47 -50.5t-52 -59.5q4 -42 6 -71t4 -49q1 -21 -9.5 -38t-30.5 -17q-15 -1 -25.5 3.5
t-16.5 12.5t-9.5 18.5t-5.5 22.5q-8 84 -12 169t-4 168q0 72 3.5 137.5t13.5 121.5q5 25 15.5 41.5t40.5 14.5q20 -1 31 -18t10 -37q-2 -12 -5 -52.5t-6.5 -93.5t-5.5 -109.5t-1 -100.5q38 41 87 91t101 102.5t104 103.5t96 95q7 11 16 15t19 4q19 0 35 -15t16 -35
q0 -8 -4 -17t-13 -17q-61 -59 -118 -116t-118 -117q9 -8 30.5 -31t54.5 -62t76 -94t94 -127z" />
    <glyph glyph-name="L" unicode="L" horiz-adv-x="613" 
d="M548 90q20 0 32.5 -13.5t12.5 -31.5q0 -20 -12.5 -32.5t-32.5 -12.5h-384q-20 -1 -37 8t-22 38q-5 27 -8.5 56.5t-6 64.5t-4 78t-1.5 98q0 66 3.5 142t14.5 163q3 22 14.5 39.5t40.5 16.5q22 0 33 -17.5t9 -39.5q0 -2 -3 -28t-6 -69.5t-5.5 -100t-2.5 -119.5
q0 -59 3.5 -120t11.5 -120h350v0z" />
    <glyph glyph-name="M" unicode="M" horiz-adv-x="868" 
d="M701 704q28 -2 40 -16.5t16 -40.5q2 -20 5 -44t5 -58.5t3.5 -83t1.5 -115.5q0 -38 -1 -77t-3 -77.5t-5 -74t-8 -66.5q-2 -23 -13.5 -40t-40.5 -16q-21 0 -32.5 17.5t-9.5 40.5q3 5 5.5 38t5.5 81t4.5 104.5t2 109t-1.5 94.5t-6 61q-27 -33 -53 -70.5t-49.5 -75t-44 -71.5
t-35.5 -60q-11 -17 -18.5 -30.5t-12.5 -18.5q-14 -17 -38 -17.5t-38 17.5q-21 31 -42 67.5t-46 76.5t-54 82.5t-66 86.5q-4 -19 -5.5 -60t-1.5 -92.5t2 -107t5 -102t5.5 -78t5.5 -35.5q2 -23 -9.5 -40t-31.5 -18q-30 -2 -42 16t-15 41q-9 75 -13.5 153t-4.5 155
q0 81 4.5 154t14.5 134q3 21 14.5 39t40.5 17q12 0 19 -6.5t15 -14.5q5 -7 19.5 -27t35 -48.5t45.5 -64t50.5 -73t49.5 -75.5t43 -71q19 33 43.5 72t51 78.5t52.5 76.5t49 67.5t40 51t25 27.5q7 7 22 7z" />
    <glyph glyph-name="N" unicode="N" horiz-adv-x="790" 
d="M635 711q20 0 33.5 -14.5t13.5 -33.5v-617q0 -20 -13 -33t-36 -13q-15 0 -26 7.5t-21 18.5q-12 17 -36 52t-57 81t-72 99t-80.5 105.5t-83 101t-78.5 86.5v-505q0 -20 -14 -34.5t-35 -14.5q-20 0 -33 14.5t-13 34.5v615q0 19 14 33.5t33 14.5q21 0 29.5 -4.5t15.5 -9.5
q8 -8 31.5 -33.5t58 -64t76 -87t84.5 -103t84.5 -112t76.5 -112.5v480q0 19 14 33.5t34 14.5z" />
    <glyph glyph-name="O" unicode="O" horiz-adv-x="850" 
d="M412 -12q-80 0 -145.5 29.5t-112.5 79t-72.5 115t-25.5 138.5q0 72 26 138t73 115.5t113 79t146 29.5t145.5 -29.5t112.5 -79t72.5 -115t25.5 -138.5q0 -72 -26 -137.5t-73 -115.5t-113 -79.5t-146 -29.5zM414 79q56 0 103.5 21t81.5 58t53 86t19 106q0 56 -19.5 105.5
t-54 86t-82 58t-103.5 21.5t-103 -21t-81 -58t-53 -86t-19 -106q0 -56 19 -105.5t53.5 -86t82 -58t103.5 -21.5z" />
    <glyph glyph-name="P" unicode="P" horiz-adv-x="668" 
d="M360 698q60 0 109 -15.5t84 -45t54 -71.5t19 -96q0 -58 -22.5 -102t-60.5 -73t-88.5 -44t-107.5 -15h-179q4 -70 8.5 -114t6.5 -72q1 -21 -10 -37.5t-31 -17.5q-30 -2 -41.5 16t-14.5 41q-11 66 -15 148t-3 163.5t6 154.5t12 121q7 39 25.5 50t53.5 9h195zM528 467
q-3 38 -21 68q-17 26 -52 48t-101 25h-173q-11 -69 -14 -140.5t-1 -141.5h184q81 0 129.5 39t48.5 102z" />
    <glyph glyph-name="Q" unicode="Q" horiz-adv-x="850" 
d="M800 48q8 -5 16.5 -19.5t7.5 -28.5q-2 -22 -15 -32t-30 -10q-10 0 -19.5 3.5t-17.5 8.5q-35 24 -62 43.5t-53 40.5q-44 -31 -97 -48.5t-114 -17.5q-80 0 -146 29.5t-113 80t-73 116.5t-26 139q0 72 26 137.5t73.5 116t114 80t146.5 29.5t146 -29.5t113 -79.5t73 -115.5
t26 -138.5q0 -63 -21 -122t-57 -107q24 -18 49.5 -37t53.5 -39h-1zM418 80q74 0 134 37q-22 20 -44.5 41.5t-45.5 44.5q-18 18 -18 42q0 15 9.5 28.5t28.5 18.5q15 3 28.5 -2.5t18.5 -12.5h-1q21 -24 44.5 -47t51.5 -46q24 34 38 77.5t14 91.5q0 56 -19.5 105.5t-54 86.5
t-82 58.5t-104.5 21.5t-104 -21.5t-81.5 -58t-53.5 -86t-19 -106.5t19.5 -106.5t54 -86.5t82 -58.5t104.5 -21.5z" />
    <glyph glyph-name="Q.alt" horiz-adv-x="850" 
d="M795 47q23 -13 27.5 -27t3.5 -29q-2 -19 -15 -28t-30 -9q-20 0 -37 10q-34 17 -64 38.5t-55 47.5q-43 -31 -95.5 -48.5t-113.5 -17.5q-80 0 -146 29.5t-113 79.5t-73 116t-26 139t26 139t73.5 116t114 79.5t146.5 29.5t146 -29.5t113 -79t73 -115.5t26 -138
q0 -66 -20.5 -124.5t-58.5 -106.5q19 -20 39.5 -36t58.5 -36zM562 119q56 36 88.5 96.5t32.5 132.5q0 57 -20.5 106.5t-56.5 86.5t-84 58.5t-103 21.5q-56 0 -104.5 -21.5t-84 -59t-56 -87t-20.5 -105.5q0 -60 23 -112t62 -89q35 -34 80 -53t99 -19q41 -1 78 11t66 33z" />
    <glyph glyph-name="R" unicode="R" horiz-adv-x="723" 
d="M666 57q10 -14 4 -30.5t-21 -27.5q-7 -5 -16.5 -7.5t-19.5 -1t-20 7.5t-17 18q-20 24 -41 53t-44 61t-49 65.5t-57 65.5h-202q1 -80 8 -130.5t7 -79.5q2 -22 -9 -39t-32 -17q-29 -2 -40.5 16t-15.5 41q-10 88 -14 164.5t-4 142.5q0 56 2 100.5t5 80.5t6.5 63.5t6.5 50.5
q2 19 10.5 28.5t20 13.5t24 3.5t23.5 -1.5h233q66 0 117 -18.5t84 -52.5q26 -26 41.5 -62.5t15.5 -79.5q0 -46 -14 -80t-38.5 -59t-57.5 -41.5t-71 -26.5q13 -14 34.5 -39.5t46 -56t49.5 -63.5t45 -63v1zM407 349q74 0 120.5 35t46.5 98q0 60 -43.5 93t-122.5 33h-212
q-8 -62 -11.5 -129t-3.5 -130h226z" />
    <glyph glyph-name="S" unicode="S" horiz-adv-x="640" 
d="M330 -10q-76 0 -141 24.5t-123 69.5q-18 11 -18 37q0 15 7.5 26t18.5 16.5t24.5 4.5t24.5 -10q46 -38 97 -58.5t113 -20.5q64 0 102.5 30t38.5 78q0 21 -7 38.5t-26 31.5t-52 26t-84 23q-60 13 -104.5 30.5t-74 42t-43.5 57.5t-14 78q0 42 17.5 78t48.5 62.5t73.5 41
t93.5 14.5q69 0 122 -17.5t101 -51.5q8 -5 14 -15t6 -24t-7 -25t-18 -17t-24 -5.5t-25 9.5q-42 30 -83 43.5t-88 13.5q-62 0 -98.5 -29t-36.5 -73q0 -22 7.5 -39.5t27.5 -32t54 -26.5t88 -24q59 -13 102 -30.5t71.5 -42t42.5 -57t14 -74.5q0 -46 -18 -83.5t-50 -64
t-76.5 -41t-97.5 -14.5z" />
    <glyph glyph-name="T" unicode="T" horiz-adv-x="625" 
d="M549 698q22 -4 39.5 -15t16.5 -40q0 -21 -17 -32t-38 -10q-11 0 -26 2.5t-37 5.5t-52 5.5t-72 2.5v-572q0 -20 -14.5 -35t-34.5 -15t-34.5 15t-14.5 35v572q-42 0 -72 -2.5t-51 -5.5t-35.5 -5.5t-24.5 -2.5q-21 -1 -38 9.5t-17 31.5q-2 30 16 41t41 15q67 10 121.5 14.5
t108.5 4.5t110 -4.5t124 -14.5h1z" />
    <glyph glyph-name="U" unicode="U" horiz-adv-x="759" 
d="M648 648q7 -59 10.5 -107t5.5 -89t2 -78.5t-1 -76.5q-1 -74 -23 -131t-61 -96t-93 -59.5t-120 -20.5q-65 0 -119 20.5t-92.5 59.5t-60.5 96t-23 131v76.5t1.5 79t5 89t10.5 107.5q3 23 15 40.5t42 15.5q20 -1 31.5 -18t9.5 -38q-9 -92 -12.5 -157t-5.5 -108
q-2 -50 -1 -83q0 -107 53 -163.5t147 -56.5t147 56.5t53 163.5q1 33 -1 83q-2 43 -6 108t-12 157q-2 21 9 38t32 18q30 3 42.5 -15.5t14.5 -41.5z" />
    <glyph glyph-name="V" unicode="V" horiz-adv-x="744" 
d="M698 638q-24 -62 -57.5 -141t-71.5 -162.5t-76.5 -163t-72.5 -141.5q-8 -15 -21.5 -27t-34.5 -12q-22 0 -35.5 12t-21.5 27q-34 62 -72.5 141.5t-76.5 163t-71.5 162.5t-57.5 141q-4 12 -4 24t4.5 22t14 16.5t24.5 6.5q33 0 47 -32q31 -68 60.5 -136t59 -137.5t61 -140.5
t68.5 -146q10 22 26.5 57.5t36 78.5t41 91.5t42.5 95.5q48 110 103 237q7 13 19.5 22.5t26.5 9.5q15 0 24.5 -6.5t14 -16.5t4.5 -22t-4 -24z" />
    <glyph glyph-name="W" unicode="W" horiz-adv-x="1083" 
d="M1001 713q19 0 37 -13t15 -36q-6 -41 -16 -92.5t-23.5 -108.5t-29 -116.5t-32 -115.5t-33.5 -106t-32 -89q-11 -24 -27.5 -32t-34.5 -7h-4q-21 0 -37 10.5t-26 25.5q-27 45 -57.5 107t-60.5 131t-58.5 140t-51.5 133q-23 -63 -51.5 -133.5t-59.5 -139.5t-61.5 -131
t-56.5 -107q-9 -15 -26 -25.5t-36 -11.5h-6q-17 2 -33 11t-25 31q-15 38 -31 87t-32 104.5t-31.5 113.5t-28.5 112.5t-23.5 102.5t-16.5 84q-2 12 -1 24.5t6.5 23t15.5 17t25 6.5q17 0 30 -8.5t17 -25.5q19 -93 42 -190q10 -41 21 -87t23 -93.5t25 -94.5t27 -91
q21 39 42.5 83.5t42.5 91t40.5 93t37.5 89.5q40 100 79 201q7 15 17.5 23.5t29.5 8.5q17 0 26 -8.5t16 -23.5q37 -101 77 -200q17 -42 37 -88.5t41.5 -93t43.5 -91.5t45 -85q32 104 57 203t43 178q21 92 38 175q4 17 16 25.5t29 8.5z" />
    <glyph glyph-name="X" unicode="X" horiz-adv-x="719" 
d="M630 629q-13 -23 -35.5 -54.5t-51.5 -70t-62.5 -81t-69.5 -86.5q66 -81 121 -143.5t97 -113.5q9 -12 10 -26t-4.5 -25.5t-16.5 -19t-24 -7.5q-21 0 -39 17q-35 35 -89 98t-120 141q-31 -38 -61.5 -73.5t-57.5 -66.5t-50 -56t-40 -43q-20 -18 -42 -18q-17 0 -28 8
t-15.5 19.5t-1.5 25.5t14 26l40 45t52.5 61t60.5 72t65 79q-34 42 -63 80t-55 73t-50.5 69t-49.5 69q-8 12 -10.5 25.5t0.5 25.5t13.5 20.5t28.5 10.5q15 1 26.5 -8t16.5 -17v1q11 -16 32 -44t48.5 -63.5t60 -76.5t66.5 -84q34 43 67 84t60.5 76.5t48 63.5t31.5 44
q5 8 17 18t28 6q34 -8 40.5 -32.5t-8.5 -48.5z" />
    <glyph glyph-name="Y" unicode="Y" horiz-adv-x="708" 
d="M606 710q19 0 29.5 -7.5t14 -19t2 -25t-5.5 -26.5q-11 -26 -27.5 -55t-36.5 -59t-41.5 -59.5t-42.5 -56.5q-49 -63 -105 -126v-230q0 -20 -14.5 -35t-34.5 -15h-4q-20 0 -34 15t-14 35l2 231q-56 61 -106 123q-21 26 -43 55.5t-42 59.5t-37 60t-27 57q-5 12 -6.5 25.5
t2.5 25.5t14.5 19.5t29.5 7.5q14 0 27 -9t18 -20q14 -34 35.5 -71t45.5 -73t47.5 -68.5t42.5 -57.5t31 -39.5t13 -14.5q48 55 90 111q18 24 37 50.5t36 54.5t32 55t26 53q6 11 19 20t27 9z" />
    <glyph glyph-name="Z" unicode="Z" horiz-adv-x="693" 
d="M578 88q19 0 32.5 -13t13.5 -30q0 -20 -13.5 -32.5t-32.5 -12.5h-472q-17 -3 -30 5.5t-19 22t-4.5 29t12.5 26.5q20 22 52 59.5t69.5 84t78.5 99t80.5 104t75 98.5t62.5 84h-375q-18 0 -32 13t-14 30q0 20 14 32.5t32 12.5h466q19 0 29 -8.5t13 -22t-0.5 -28t-12.5 -26.5
l1 1q-17 -27 -44.5 -66.5t-62 -85.5t-73.5 -97t-78 -100.5t-77 -95.5t-70 -83h379v0z" />
    <glyph glyph-name="a" unicode="a" horiz-adv-x="543" 
d="M483 296q-1 -19 -1 -35v-32q0 -37 -1 -77t-7 -98q-2 -26 -11 -42t-38 -17q-26 1 -36.5 20t-9.5 38v1q-29 -28 -69 -46.5t-99 -18.5q-37 0 -72.5 10.5t-63.5 32t-45 53t-17 73.5q0 43 16.5 75.5t46 54.5t71 33t91.5 11q46 0 83 -6.5t69 -15.5q1 31 -5.5 55.5t-23.5 41
t-45.5 25t-71.5 9.5q-35 1 -67.5 -7.5t-59.5 -19.5q-11 -4 -21.5 -2.5t-19.5 7t-14.5 14t-5.5 19.5q0 16 9 27t19 14l-1 -1q39 17 79.5 26.5t89.5 9.5q56 0 97.5 -15.5t72.5 -43.5q35 -32 48 -79.5t13 -93.5zM226 68q33 0 62 9.5t51.5 26.5t35.5 40.5t13 50.5l1 41
q-27 8 -65.5 14t-77.5 6q-67 0 -102.5 -25.5t-35.5 -69.5q0 -45 34.5 -69t83.5 -24z" />
    <glyph glyph-name="b" unicode="b" horiz-adv-x="664" 
d="M348 537q47 -1 92 -19.5t80.5 -53t57 -85.5t21.5 -116q0 -64 -21.5 -114.5t-57 -86t-80.5 -54t-92 -18.5q-55 0 -95 19t-70 48q1 -3 1 -7q1 -20 -10 -37t-32 -17q-28 -1 -40 16t-15 40q-15 116 -21.5 203t-6.5 162q0 70 4.5 133t12.5 134q2 12 5.5 22.5t9.5 18.5t16 12
t25 3q20 -1 31 -18t9 -38v-4t-1 -6q-2 -28 -7.5 -87t-7.5 -150q10 14 26.5 31.5t40 33t54.5 25.5t71 10zM503 262q-4 52 -23 93q-8 17 -20.5 34t-30.5 30t-41.5 21.5t-54.5 8.5q-33 0 -64 -13.5t-55.5 -38t-39 -58.5t-14.5 -76t14.5 -76t39 -58.5t55.5 -38t64 -13.5
q35 0 66 12.5t54 36.5t36.5 58t13.5 78z" />
    <glyph glyph-name="c" unicode="c" horiz-adv-x="571" 
d="M310 -12q-57 0 -106 22t-84.5 59t-56 86.5t-20.5 105.5q0 55 20.5 104t56 86.5t84.5 59.5t106 22q64 0 110 -22t81 -53q12 -11 8.5 -27.5t-14.5 -29t-27 -17.5t-29 6q-26 23 -56 40t-74 17q-36 0 -67 -14.5t-54 -39.5t-36 -59t-13 -73t13.5 -72.5t37 -59t55.5 -40
t69 -14.5q41 0 74 16.5t59 41.5q11 11 26 7t26 -15.5t15 -26.5t-7 -26q-38 -38 -84.5 -61t-112.5 -23z" />
    <glyph glyph-name="d" unicode="d" horiz-adv-x="653" 
d="M310 537q40 0 71 -10t54.5 -25.5t40 -33t26.5 -31.5q-2 91 -7.5 150t-7.5 87q-1 3 -1 6v4q-2 21 9 38t31 18q15 1 25 -3t16 -12t9.5 -18.5t5.5 -22.5q8 -71 12.5 -134t4.5 -133q0 -75 -6.5 -162t-21.5 -203q-3 -23 -15 -40t-40 -16q-21 0 -32 17t-10 37q0 4 1 7
q-30 -29 -70 -48t-95 -19q-47 0 -92.5 18.5t-80.5 54t-56.5 86t-21.5 114.5q0 65 21.5 116t57 85.5t80.5 53t92 19.5zM155 262q0 -44 13.5 -78t36.5 -58t54 -36.5t66 -12.5q33 0 64 13.5t55.5 38t39 58.5t14.5 76t-14.5 76t-39 58.5t-55.5 38t-64 13.5q-31 0 -55 -8.5
t-41.5 -21.5t-30 -30t-20.5 -34q-19 -41 -23 -93z" />
    <glyph glyph-name="e" unicode="e" horiz-adv-x="582" 
d="M264 215q-14 0 -33 0.5t-38.5 1.5t-37 2t-27.5 2q6 -36 21 -64t37.5 -46.5t50.5 -28.5t58 -10q45 0 78.5 15.5t61.5 41.5q5 5 12 8t16 3q18 0 30 -12.5t12 -29.5q0 -19 -14 -33v1q-38 -36 -84.5 -57.5t-113.5 -21.5q-54 0 -102 20t-83 56t-55.5 86.5t-20.5 112.5
q0 57 19 106.5t52.5 86.5t79.5 58.5t101 21.5q58 0 103.5 -22t76.5 -59t47.5 -85.5t16.5 -100.5q-2 -23 -12.5 -31.5t-36.5 -12.5q-24 -3 -57 -5q-28 -2 -67.5 -3.5t-90.5 -0.5zM282 452q-61 0 -102.5 -41.5t-50.5 -109.5q38 -2 81.5 -3t87.5 -1q41 0 72.5 0.5t61.5 1.5
q-4 31 -15 59t-29.5 49t-45 33t-60.5 12z" />
    <glyph glyph-name="f" unicode="f" horiz-adv-x="388" 
d="M325 517q20 -3 35 -12t14 -35q0 -17 -15.5 -27t-31.5 -10q-23 2 -52 3.5t-77 1.5v-397q0 -19 -13 -33.5t-33 -14.5q-21 0 -34.5 14.5t-13.5 33.5v396q-18 -1 -27.5 -1.5t-26.5 -2.5q-19 -2 -33.5 8t-14.5 29q-2 26 14.5 35t37.5 12q5 1 17.5 2t32.5 3v34q1 83 40 131
t122 48q13 0 30 -0.5t32 -4.5t25 -14t10 -29q0 -17 -6.5 -26t-16 -12t-21.5 -2.5t-24 1.5q-5 1 -10 1.5t-9 0.5q-79 0 -79 -98v-27q39 -1 72.5 -3t47.5 -4q2 0 4 -0.5t3 -0.5h1z" />
    <glyph glyph-name="g" unicode="g" horiz-adv-x="629" 
d="M384 -151q-20 -5 -41.5 -7t-44.5 -2q-58 0 -114 16.5t-103 43.5q-11 7 -18 17.5t-7 23.5q0 11 7 20.5t17 15.5t21.5 6.5t21.5 -6.5q38 -26 81.5 -39.5t92.5 -13.5q66 0 109 35t63 90q3 17 6.5 35t7.5 53q-15 -20 -37.5 -38t-49 -32t-56 -22t-59.5 -8q-47 0 -91.5 17
t-79 49.5t-55.5 78.5t-21 104q0 57 21 103t56 78t79 49.5t91 17.5q68 0 113.5 -25.5t78.5 -64.5q-2 16 -3.5 22.5t-2.5 7.5q-6 22 6.5 39t32.5 18q28 2 39 -13t16 -35q6 -50 11.5 -109.5t5.5 -123.5q0 -66 -8 -131t-30 -119.5t-59.5 -94.5t-96.5 -56zM297 123q44 0 77 14
t55 36.5t33 51.5t11 59q0 31 -11 60t-33.5 52t-55.5 37.5t-76 14.5q-34 0 -64.5 -11t-53 -32.5t-35.5 -51.5t-13 -67q0 -36 13.5 -66t36 -51.5t52.5 -33.5t64 -12z" />
    <glyph glyph-name="h" unicode="h" horiz-adv-x="539" 
d="M294 536q48 0 85.5 -15.5t63.5 -43.5t40 -67t14 -86v-281q0 -20 -14 -34t-34 -14t-33.5 14t-13.5 34v262q0 66 -33.5 104t-96.5 38q-24 1 -51 -7t-49.5 -30t-37.5 -60.5t-13 -98.5q2 -49 7.5 -96t13.5 -101q3 -20 -6 -38.5t-35 -20.5q-29 -2 -40 15.5t-15 40.5
q-12 99 -19 176.5t-9 149.5t2 144.5t15 161.5q3 26 15 41t40 15q23 -1 32.5 -17.5t8.5 -37.5q0 -29 -2.5 -58.5t-5.5 -59.5t-5 -61.5t-1 -64.5q30 43 71 69.5t106 26.5z" />
    <glyph glyph-name="i" unicode="i" horiz-adv-x="234" 
d="M65 479q0 20 13 34t33 14q21 0 34.5 -13.5t13.5 -34.5v-436q0 -20 -13 -34t-34 -14q-20 0 -33.5 14t-13.5 34v436zM58 670q0 23 15 36t38 13t39 -13t16 -36v-13q0 -22 -16 -35.5t-39 -13.5t-38 13.5t-15 35.5v13z" />
    <glyph glyph-name="j" unicode="j" horiz-adv-x="263" 
d="M26 -158q-20 1 -32.5 11.5t-12.5 30.5q0 18 12 29.5t28 11.5q2 0 4.5 -0.5t4.5 -0.5h8q19 0 31 13.5t12 41.5v500q0 20 13 34t33 14q21 0 34.5 -13.5t13.5 -34.5v-498q0 -72 -35 -105.5t-94 -33.5h-20zM74 670q0 23 15 36t38 13t39 -13t16 -36v-13q0 -22 -16 -35.5
t-39 -13.5t-38 13.5t-15 35.5v13z" />
    <glyph glyph-name="k" unicode="k" horiz-adv-x="529" 
d="M487 72q3 -4 7 -9q7 -10 8 -25q0 -17 -13 -30.5t-32 -13.5q-22 0 -42 23q-5 5 -18.5 23t-31 42.5t-37 51t-35.5 50t-27 40t-12 19.5q-1 -1 -33.5 -35.5t-86.5 -91.5q2 -16 4 -30.5t4 -31.5q2 -19 -7 -38t-34 -21q-29 -2 -40 15.5t-15 40.5q-12 94 -19 173.5t-8.5 153.5
t2.5 147.5t14 157.5q2 12 5.5 22.5t10 18.5t16 12t24.5 3q20 -1 30.5 -18t9.5 -37q-6 -37 -10.5 -97t-6.5 -126.5t0 -132t9 -112.5q79 88 133.5 144t88.5 89q40 39 64 59q23 19 42 19q20 0 29.5 -12.5t9.5 -28.5q0 -10 -4.5 -20t-12.5 -17q-24 -21 -50 -46
q-23 -21 -51.5 -49.5t-59.5 -60.5q2 -3 6.5 -9.5l13.5 -19.5t23.5 -32.5t36.5 -47.5q28 -36 46 -58t29 -34q12 -14 20 -20z" />
    <glyph glyph-name="l" unicode="l" horiz-adv-x="263" 
d="M81 686q0 20 13 34t33 14q21 0 34.5 -14t13.5 -34v-643q0 -20 -13 -34t-34 -14q-20 0 -33.5 14t-13.5 34v643z" />
    <glyph glyph-name="m" unicode="m" horiz-adv-x="943" 
d="M675 536q48 0 85.5 -15.5t63.5 -43.5t40 -67t14 -86v-281q0 -20 -13.5 -34t-33.5 -14t-34 14t-14 34v262q0 66 -33.5 104t-96.5 38q-25 1 -48.5 -6t-41.5 -22.5t-29 -39.5t-12 -55v-281q0 -20 -13.5 -34t-33.5 -14t-33.5 14t-13.5 34v262q0 66 -34 102.5t-97 39.5
q-24 1 -51 -7t-49.5 -30.5t-37 -61t-12.5 -97.5q1 -95 21 -195q1 -9 -0.5 -19.5t-6 -19.5t-13 -15t-21.5 -7q-14 -1 -24 3.5t-16.5 12.5t-10 18.5t-4.5 21.5q-10 69 -15 124.5t-7.5 105.5t-2 97.5t2.5 100.5q2 26 14.5 43t41.5 15q23 -3 31.5 -18.5t8.5 -35.5q0 -4 0.5 -5.5
t1 -4.5t0 -9t-1.5 -19q29 40 70 65.5t103 25.5q63 0 108.5 -25.5t69.5 -73.5q15 22 32.5 40.5t38.5 31.5t47.5 20t59.5 7z" />
    <glyph glyph-name="n" unicode="n" horiz-adv-x="596" 
d="M313 536q48 0 85.5 -15.5t63.5 -43.5t40 -67t14 -86v-281q0 -20 -13.5 -34t-33.5 -14q-21 0 -34.5 14t-13.5 34v262q0 66 -33.5 104t-95.5 38q-25 1 -52 -5.5t-49.5 -27t-37 -59.5t-13.5 -104q2 -49 7.5 -96t13.5 -101v1q4 -20 -6 -39t-35 -21q-29 -2 -40 15.5t-15 40.5
q-8 71 -13.5 126.5t-8 104.5t-2.5 96t2 101q1 26 14 42.5t42 15.5q20 -3 30 -19t10 -35v-18.5t-1 -21.5q29 42 70 67.5t105 25.5z" />
    <glyph glyph-name="o" unicode="o" horiz-adv-x="631" 
d="M298 -12q-59 0 -108.5 21.5t-85.5 59t-56 87t-20 105.5q0 55 20.5 104t56.5 86.5t86 59.5t109 22t109 -21.5t86 -59t56.5 -87t20.5 -104.5t-20.5 -104.5t-57 -87t-87 -59.5t-109.5 -22zM300 75q39 0 71 14.5t55 40t36 59t13 72.5t-13.5 72.5t-37 59t-56 40t-70.5 14.5
q-39 0 -71 -14.5t-55 -40t-35.5 -59t-12.5 -72.5t13.5 -72.5t37 -59t55.5 -40t70 -14.5z" />
    <glyph glyph-name="p" unicode="p" horiz-adv-x="614" 
d="M318 -9q-40 0 -71 10t-54.5 25.5t-40 33t-26.5 31.5q1 -45 2.5 -75.5t3 -51.5t3.5 -35.5t3 -28.5q1 -3 1 -6v-4q2 -21 -9 -38t-31 -18q-15 -1 -25 3t-16 12t-9.5 18.5t-5.5 22.5q-4 35 -7 61t-4.5 50t-2 49.5t-0.5 60.5q0 75 6.5 162t21.5 203q3 23 15 40t40 16
q21 0 32 -17t10 -37q0 -4 -1 -7q30 29 70 48t95 19q47 0 92 -18.5t80.5 -54t57 -86t21.5 -114.5q0 -65 -21.5 -116t-57 -85.5t-80.5 -53t-92 -19.5zM473 266q0 43 -13.5 77.5t-36.5 58.5t-54 36.5t-66 12.5q-33 0 -64 -13.5t-55.5 -38t-39 -58.5t-14.5 -76t14.5 -76
t39 -58.5t55.5 -38t64 -13.5q31 0 54.5 8.5t41.5 21.5t30.5 29.5t20.5 34.5q19 40 23 93z" />
    <glyph glyph-name="q" unicode="q" horiz-adv-x="664" 
d="M318 -9q-47 1 -92 19.5t-80.5 53t-57 85.5t-21.5 116q0 64 21.5 114.5t56.5 86t80.5 54t92.5 18.5q55 0 95 -19t70 -48q-1 3 -1 7q-1 20 10 37t32 17q28 1 40 -16t15 -40q15 -116 21.5 -203t6.5 -162q0 -35 -0.5 -60.5t-2 -49.5t-4.5 -50t-7 -61q-2 -12 -5.5 -22.5
t-9.5 -18.5t-16 -12t-25 -3q-20 1 -31 18t-9 38v4t1 6q1 14 3 28.5t3.5 35.5t3 51.5t2.5 75.5q-10 -14 -26.5 -31.5t-40 -33t-54.5 -25.5t-71 -10zM163 266q4 -53 23 -93q8 -18 20.5 -34.5t30 -29.5t41.5 -21.5t55 -8.5q33 0 64 13.5t55.5 38t39 58.5t14.5 76t-14.5 76
t-39 58.5t-55.5 38t-64 13.5q-35 0 -66 -12.5t-54 -36.5t-36.5 -58.5t-13.5 -77.5z" />
    <glyph glyph-name="r" unicode="r" horiz-adv-x="375" 
d="M317 533q21 0 34 -14t13 -34q0 -19 -12 -32.5t-30 -15.5q-35 -5 -66 -20t-54 -42.5t-36 -67t-13 -91.5q4 -81 9 -121.5t6 -42.5q2 -22 -9 -39.5t-33 -17.5q-29 -1 -40 16.5t-14 40.5q-7 59 -10.5 112t-3.5 108q0 47 3 96.5t11 103.5q4 22 14.5 39t39.5 16
q21 0 33.5 -15.5t8.5 -39.5q-1 -5 -1.5 -10.5t-2.5 -12.5q-2 -5 -1.5 -3.5t0.5 3.5q0 -1 -0.5 -3t-0.5 -4q30 42 73 66.5t82 24.5z" />
    <glyph glyph-name="s" unicode="s" horiz-adv-x="498" 
d="M250 -10q-51 0 -104 18t-95 47q-7 5 -12.5 14t-5.5 21t7 21.5t17 15t21.5 5.5t21.5 -8q37 -25 76 -38t78 -13q41 0 67.5 19t26.5 53q0 16 -9.5 28t-26 21t-38 16t-45.5 14q-30 9 -61 19.5t-56 27.5t-40.5 42.5t-15.5 63.5q0 35 13.5 63.5t37.5 48.5t57.5 31t72.5 11
q42 0 85 -12t81 -32q9 -5 16 -15.5t7 -24.5q0 -12 -6 -21.5t-15.5 -14.5t-20.5 -5.5t-21 4.5q-32 18 -64.5 28t-63.5 10q-40 0 -63.5 -18t-23.5 -47q0 -15 10.5 -26t27.5 -20t39 -16.5t45 -14.5q29 -9 59 -21t54 -29.5t39.5 -43t15.5 -61.5q0 -38 -14.5 -68t-40 -50.5
t-59.5 -31.5t-74 -11z" />
    <glyph glyph-name="t" unicode="t" horiz-adv-x="399" 
d="M334 515q20 -3 35 -11.5t15 -34.5q1 -17 -14.5 -27t-32.5 -11q-29 3 -63 4.5t-65 1.5v-283q0 -42 20.5 -58.5t54.5 -16.5q11 0 20.5 1.5t15.5 3.5q2 0 3 0.5t3 0.5t4 1q20 0 30.5 -13t10.5 -28q0 -12 -7 -23t-20 -16q-17 -7 -36 -11t-42 -4q-32 0 -60 8.5t-48.5 27
t-32 47.5t-11.5 70v292q-20 -2 -32 -2.5t-31 -2.5t-33.5 8t-14.5 29q-1 22 10.5 32.5t28.5 14t36.5 3.5t35.5 2v114q0 20 13 34.5t33 14.5t34.5 -14.5t14.5 -34.5v-111q42 -1 74 -3.5t50 -4.5h1z" />
    <glyph glyph-name="u" unicode="u" horiz-adv-x="593" 
d="M266 -11q-48 0 -85.5 15.5t-63.5 43.5t-40 67t-14 86v281q0 20 14 34t34 14t33.5 -14t13.5 -34v-262q0 -46 16.5 -76.5t43.5 -46.5t61 -17t70 11q6 3 21.5 13.5t31 31.5t27 55t10.5 83t-7 96t-14 101v-1q-4 20 6 39t35 21q29 2 40 -15t15 -40q9 -71 14 -126.5t8 -105
t3 -96.5t-2 -101q-1 -26 -14.5 -42.5t-42.5 -15.5q-20 3 -30 19t-10 35v18.5t1 21.5q-29 -42 -70 -67.5t-105 -25.5z" />
    <glyph glyph-name="v" unicode="v" horiz-adv-x="584" 
d="M489 530q26 -7 31.5 -26t1.5 -39q-35 -120 -86 -229.5t-108 -208.5q-9 -14 -19.5 -25t-29.5 -10q-17 0 -27 11t-18 24q-59 100 -109 209.5t-86 230.5q-6 23 0.5 39.5t32.5 23.5h-1q17 5 31.5 -7t18.5 -29q20 -83 62.5 -182t96.5 -197q59 103 99 197.5t60 182.5
q5 17 19.5 28.5t31.5 6.5h-1z" />
    <glyph glyph-name="w" unicode="w" horiz-adv-x="858" 
d="M749 535q25 -5 31.5 -23t5.5 -39q-11 -52 -28.5 -108.5t-39 -113.5t-45 -113t-47.5 -106q-7 -13 -19.5 -26.5t-27.5 -13.5t-26.5 12.5t-19.5 27.5q-33 69 -63 139t-54 144q-12 -34 -26 -70.5t-29 -73.5t-31 -72.5t-31 -66.5q-8 -15 -17 -28t-29 -12q-17 -1 -28 12t-19 28
q-24 50 -48 105.5t-45 112.5t-38 114t-28 110q-1 20 7 37.5t31 23.5q17 2 29.5 -10.5t16.5 -29.5q14 -78 45.5 -171.5t76.5 -194.5q43 98 74 191t46 169q1 17 12.5 32t30.5 14q18 1 30 -14t13 -32q15 -76 46.5 -169.5t73.5 -190.5q45 100 77 195t46 171q3 17 16 30.5t31 9.5
z" />
    <glyph glyph-name="x" unicode="x" horiz-adv-x="571" 
d="M503 70q8 -19 9 -37.5t-21 -32.5l1 1q-14 -11 -32 -4t-27 22q-34 56 -73 115t-81 108q-42 -50 -82.5 -108t-73.5 -115q-10 -15 -27.5 -22t-32.5 4l1 -1q-20 14 -21 33t10 38q44 68 86.5 128.5t82.5 107.5q-33 35 -71 71t-85 78q-13 13 -13 32t14 29q10 8 19.5 10t18.5 0
t16.5 -7.5t14.5 -12.5v1q40 -35 74 -67.5t69 -70.5q33 35 69.5 70t73.5 68v-1q7 7 14.5 12.5t16.5 7.5t18.5 0t19.5 -10q14 -10 14 -29t-13 -32q-48 -43 -85 -78t-71 -71q39 -47 80.5 -107t85.5 -129z" />
    <glyph glyph-name="y" unicode="y" horiz-adv-x="520" 
d="M465 528q13 0 23.5 -6.5t16.5 -16.5t7 -22t-5 -24q-23 -54 -48 -114.5t-50.5 -121.5t-51 -121.5t-47.5 -114.5q-17 -41 -36 -69t-40.5 -45.5t-46.5 -25.5t-55 -8q-25 0 -45.5 3.5t-40.5 11.5q-13 5 -21.5 15t-8.5 27q0 15 6 23.5t15.5 13t20.5 4t21 -3.5t21 -5.5t31 -2.5
q30 0 49.5 17t36.5 53l6 13q-36 55 -66.5 107.5t-55.5 107t-46 114t-39 129.5q-4 20 1.5 38.5t31.5 23.5q18 4 31 -7t18 -28q10 -39 26.5 -86t38 -98.5t47 -105t55.5 -105.5q38 99 77.5 198t77.5 198q5 13 16.5 23.5t28.5 10.5z" />
    <glyph glyph-name="z" unicode="z" horiz-adv-x="556" 
d="M473 83q17 0 29.5 -12.5t12.5 -28.5q0 -17 -12.5 -29.5t-29.5 -12.5h-373q-17 0 -28 8.5t-15 21.5t-1 26.5t15 24.5q58 52 104.5 96.5t85 87t71 85t63.5 89.5h-294q-17 1 -28 12.5t-11 28.5t12.5 29.5t29.5 12.5h359q17 2 28 -6t15.5 -20t3 -26t-9.5 -25
q-40 -62 -75.5 -111t-70.5 -91.5t-72.5 -81t-81.5 -78.5h273v0z" />
    <glyph glyph-name="Aacute" unicode="&#xc1;" horiz-adv-x="784" 
d="M40 40q0 10 6 24q68 150 137.5 302.5t138.5 301.5q8 19 22 29.5t35 10.5h4q19 0 33.5 -12t22.5 -28q68 -147 138.5 -301t138.5 -302q5 -13 5 -23q0 -20 -13 -33.5t-33 -13.5q-18 0 -29.5 10t-17.5 24q-17 39 -34 75.5t-34 75.5h-361q-17 -39 -34 -76.5t-35 -76.5
q-6 -13 -18.5 -22.5t-26.5 -9.5q-20 0 -32.5 13t-12.5 32zM521 269q-36 81 -70.5 157t-71.5 158q-36 -81 -70.5 -156.5t-71.5 -158.5h284zM378 747q-10 -1 -16.5 3t-9 11t-1.5 14.5t6 14.5q14 23 29 45t29 44q9 13 19 19.5t24 6.5q10 0 21 -3.5t20 -9t15 -12.5t6 -14
q0 -8 -4.5 -14.5t-11.5 -14.5l-73 -69q-24 -21 -53 -21z" />
    <glyph glyph-name="aacute" unicode="&#xe1;" horiz-adv-x="579" 
d="M503 296q-1 -34 -1 -60.5t-0.5 -53.5t-2 -57t-5.5 -71q-3 -26 -12 -42t-38 -17q-26 1 -36 20t-9 38v1q-29 -28 -69.5 -46.5t-99.5 -18.5q-37 0 -72.5 10.5t-63.5 32t-45 53t-17 73.5q0 43 16.5 75.5t46 54.5t71 33t92.5 11q46 0 82.5 -6.5t68.5 -15.5q1 31 -5.5 55.5
t-23.5 41t-45.5 25t-71.5 9.5q-35 1 -67.5 -7.5t-59.5 -19.5q-10 -4 -20.5 -2.5t-19.5 7t-14.5 14t-5.5 19.5q0 16 8.5 27t18.5 14l-1 -1q40 17 80 26.5t89 9.5q56 0 98 -15.5t72 -43.5q35 -32 48.5 -79.5t13.5 -93.5zM245 68q33 0 62.5 9.5t51.5 26.5t35 40.5t13 50.5l1 41
q-27 8 -65 14t-78 6q-67 0 -102.5 -25.5t-35.5 -69.5q0 -22 9.5 -39.5t25.5 -29.5t37.5 -18t45.5 -6zM279 575q-12 0 -20 6t-8 17q0 5 2.5 10.5t4.5 9.5q14 23 29 45t29 44q9 13 19 19.5t24 6.5q10 0 21 -3.5t20 -9t15 -12.5t6 -14q0 -8 -4.5 -14.5t-12.5 -14.5l-72 -69
q-13 -12 -25.5 -16.5t-27.5 -4.5z" />
    <glyph glyph-name="Abreve" unicode="&#x102;" horiz-adv-x="784" 
d="M720 65q6 -11 6 -23t-5.5 -22.5t-15.5 -17.5t-23 -7q-17 0 -28.5 9t-17.5 24q-14 35 -27 66q-11 26 -22.5 51.5t-18.5 36.5h-363q-8 -17 -19.5 -43t-22 -50.5l-18 -42l-7.5 -17.5q-5 -17 -18 -25t-28 -8q-27 0 -38 21.5t-1 47.5q16 41 36.5 90.5t44 104t49 110.5t51 110
t50 103t46.5 90q9 16 22.5 27.5t34.5 11.5q20 0 34 -12.5t22 -26.5q34 -62 73 -142t76.5 -163t71 -162.5t56.5 -140.5zM529 271q-68 171 -142 317q-38 -74 -72.5 -151.5t-69.5 -165.5h284zM380 749q-96 0 -137 75q-5 8 -8 19.5t-3 19.5q0 17 10 28t27 11q15 0 22.5 -6
t11.5 -14q10 -23 28 -37.5t49 -14.5t49 14.5t28 37.5q5 8 12.5 14t21.5 6q17 0 27 -11t10 -28q0 -8 -3 -19.5t-8 -19.5q-41 -75 -137 -75z" />
    <glyph glyph-name="abreve" unicode="&#x103;" horiz-adv-x="579" 
d="M503 296q-1 -34 -1 -60.5t-0.5 -53.5t-2 -57t-5.5 -71q-3 -26 -12 -42t-38 -17q-26 1 -36 20t-9 38v1q-29 -28 -69.5 -46.5t-99.5 -18.5q-37 0 -72.5 10.5t-63.5 32t-45 53t-17 73.5q0 43 16.5 75.5t46 54.5t71 33t92.5 11q46 0 82.5 -6.5t68.5 -15.5q1 31 -5.5 55.5
t-23.5 41t-45.5 25t-71.5 9.5q-35 1 -67.5 -7.5t-59.5 -19.5q-10 -4 -20.5 -2.5t-19.5 7t-14.5 14t-5.5 19.5q0 16 8.5 27t18.5 14l-1 -1q40 17 80 26.5t89 9.5q56 0 98 -15.5t72 -43.5q35 -32 48.5 -79.5t13.5 -93.5zM245 68q33 0 62.5 9.5t51.5 26.5t35 40.5t13 50.5l1 41
q-27 8 -65 14t-78 6q-67 0 -102.5 -25.5t-35.5 -69.5q0 -22 9.5 -39.5t25.5 -29.5t37.5 -18t45.5 -6zM281 577q-96 0 -137 75q-5 8 -8 19.5t-3 19.5q0 17 10 28t27 11q15 0 22 -6t12 -14q10 -23 28 -37.5t49 -14.5t49 14.5t28 37.5q5 8 12 14t22 6q17 0 27 -11t10 -28
q0 -8 -3 -19.5t-8 -19.5q-41 -75 -137 -75z" />
    <glyph glyph-name="Acircumflex" unicode="&#xc2;" horiz-adv-x="784" 
d="M40 40q0 10 6 24q68 150 137.5 302.5t138.5 301.5q8 19 22 29.5t35 10.5h4q19 0 33.5 -12t22.5 -28q68 -147 138.5 -301t138.5 -302q9 -24 -1.5 -47t-39.5 -23q-18 0 -29.5 10t-17.5 24q-17 39 -34 75.5t-34 75.5h-361q-17 -39 -34 -76.5t-35 -76.5q-6 -13 -18.5 -22.5
t-26.5 -9.5q-20 0 -32.5 13t-12.5 32zM521 269q-36 81 -70.5 157t-71.5 158q-36 -81 -70.5 -156.5t-71.5 -158.5h284zM329 768q-14 -14 -25.5 -17.5t-28.5 -3.5q-20 0 -25.5 14.5t6.5 28.5l69 86q9 11 19 18t27 7h18q17 0 27 -7t20 -18l69 -86q11 -14 5 -28.5t-26 -14.5
q-16 0 -28 3.5t-26 17.5q-14 13 -25 22t-25 22z" />
    <glyph glyph-name="acircumflex" unicode="&#xe2;" horiz-adv-x="579" 
d="M503 296q-1 -19 -1 -35v-32q0 -37 -1 -77t-7 -98q-3 -26 -12 -42t-38 -17q-26 1 -36 20t-9 38v1q-29 -28 -69.5 -46.5t-99.5 -18.5q-37 0 -72.5 10.5t-63.5 32t-45 53t-17 73.5q0 43 16.5 75.5t46 54.5t71 33t92.5 11q46 0 82.5 -6.5t68.5 -15.5q1 31 -5.5 55.5t-23.5 41
t-45.5 25t-71.5 9.5q-35 1 -67.5 -7.5t-59.5 -19.5q-10 -4 -20.5 -2.5t-19.5 7t-14.5 14t-5.5 19.5q0 16 8.5 27t18.5 14l-1 -1q40 17 80 26.5t89 9.5q56 0 98 -15.5t72 -43.5q35 -32 48.5 -79.5t13.5 -93.5zM245 68q33 0 62.5 9.5t51.5 26.5t35 40.5t13 50.5l1 41
q-27 8 -65 14t-78 6q-67 0 -102.5 -25.5t-35.5 -69.5q0 -22 9.5 -39.5t25.5 -29.5t37.5 -18t45.5 -6zM229 596q-14 -14 -25.5 -17.5t-27.5 -3.5q-27 0 -27 23q0 9 8 20l69 86q9 11 19 18t27 7h18q17 0 27 -7t19 -18l69 -86q8 -11 8 -20q0 -23 -28 -23q-16 0 -28 3.5
t-26 17.5q-14 13 -25.5 22t-25.5 22z" />
    <glyph glyph-name="Adieresis" unicode="&#xc4;" horiz-adv-x="784" 
d="M720 65q6 -11 6 -23t-5.5 -22.5t-15.5 -17.5t-23 -7q-17 0 -28.5 9t-17.5 24q-14 35 -27 66q-11 26 -22.5 51.5t-18.5 36.5h-363q-8 -17 -19.5 -43t-22.5 -51q-13 -29 -26 -60q-7 -12 -19 -22.5t-27 -10.5t-24 6.5t-13.5 17t-4.5 23t4 23.5q25 64 58.5 144t70.5 162.5
t75.5 161.5t72.5 140q9 16 22.5 28t34.5 11q20 0 34 -12.5t22 -26.5q34 -62 73 -142t76.5 -163t71 -162.5t56.5 -140.5zM529 271q-68 171 -142 317q-38 -74 -72.5 -151.5t-69.5 -165.5h284zM467 867q23 0 39 -15t16 -38v-15q0 -23 -16 -38t-39 -15t-39.5 15t-16.5 38v15
q0 23 16.5 38t39.5 15zM294 867q23 0 39 -15t16 -38v-15q0 -23 -16 -38t-39 -15t-39.5 15t-16.5 38v15q0 23 16.5 38t39.5 15z" />
    <glyph glyph-name="adieresis" unicode="&#xe4;" horiz-adv-x="579" 
d="M503 296q-1 -34 -1 -60.5t-0.5 -53.5t-2 -57t-5.5 -71q-3 -26 -12 -42t-38 -17q-26 1 -36 20t-9 38v1q-29 -28 -69.5 -46.5t-99.5 -18.5q-37 0 -72.5 10.5t-63.5 32t-45 53t-17 73.5q0 43 16.5 75.5t46 54.5t71 33t92.5 11q46 0 82.5 -6.5t68.5 -15.5q1 31 -5.5 55.5
t-23.5 41t-45.5 25t-71.5 9.5q-35 1 -67.5 -7.5t-59.5 -19.5q-10 -4 -20.5 -2.5t-19.5 7t-14.5 14t-5.5 19.5q0 16 8.5 27t18.5 14l-1 -1q40 17 80 26.5t89 9.5q56 0 98 -15.5t72 -43.5q35 -32 48.5 -79.5t13.5 -93.5zM245 68q33 0 62.5 9.5t51.5 26.5t35 40.5t13 50.5l1 41
q-27 8 -65 14t-78 6q-67 0 -102.5 -25.5t-35.5 -69.5q0 -22 9.5 -39.5t25.5 -29.5t37.5 -18t45.5 -6zM368 695q23 0 39 -15t16 -38v-15q0 -23 -16 -38t-39 -15q-24 0 -40 15t-16 38v15q0 23 16 38t40 15zM194 695q24 0 40 -15t16 -38v-15q0 -23 -16 -38t-40 -15
q-23 0 -39 15t-16 38v15q0 23 16 38t39 15z" />
    <glyph glyph-name="Agrave" unicode="&#xc0;" horiz-adv-x="784" 
d="M720 65q4 -9 5 -13.5t1 -10.5q0 -18 -12.5 -32t-31.5 -14q-17 0 -28.5 9t-17.5 24q-14 35 -27 66q-11 26 -22.5 51.5t-18.5 36.5h-363q-8 -17 -19.5 -43t-22.5 -51q-13 -29 -26 -60q-7 -12 -19 -22.5t-27 -10.5q-19 0 -31.5 14t-12.5 32q0 5 2 11.5t4 12.5
q25 64 58.5 144t70.5 162.5t75.5 161.5t72.5 140q9 16 22 27.5t35 11.5q20 0 34 -12.5t22 -26.5q34 -62 73 -142t76.5 -163t71 -162.5t56.5 -140.5zM529 271q-68 171 -142 317q-38 -74 -72.5 -151.5t-69.5 -165.5h284zM382 747q-30 0 -52 21q-18 17 -37 35t-36 34
q-8 8 -12.5 14.5t-4.5 14.5q0 7 6 14t15 12.5t20 9t21 3.5q14 0 24 -7t19 -19q15 -22 29.5 -44t28.5 -45q2 -3 4.5 -9t2.5 -11q0 -23 -28 -23z" />
    <glyph glyph-name="agrave" unicode="&#xe0;" horiz-adv-x="579" 
d="M503 296q-1 -34 -1 -60.5t-0.5 -53.5t-2 -57t-5.5 -71q-3 -26 -12 -42t-38 -17q-26 1 -36 20t-9 38v1q-29 -28 -69.5 -46.5t-99.5 -18.5q-37 0 -72.5 10.5t-63.5 32t-45 53t-17 73.5q0 43 16.5 75.5t46 54.5t71 33t92.5 11q46 0 82.5 -6.5t68.5 -15.5q1 31 -5.5 55.5
t-23.5 41t-45.5 25t-71.5 9.5q-35 1 -67.5 -7.5t-59.5 -19.5q-10 -4 -20.5 -2.5t-19.5 7t-14.5 14t-5.5 19.5q0 16 8.5 27t18.5 14l-1 -1q40 17 80 26.5t89 9.5q56 0 98 -15.5t72 -43.5q35 -32 48.5 -79.5t13.5 -93.5zM245 68q33 0 62.5 9.5t51.5 26.5t35 40.5t13 50.5l1 41
q-27 8 -65 14t-78 6q-67 0 -102.5 -25.5t-35.5 -69.5q0 -22 9.5 -39.5t25.5 -29.5t37.5 -18t45.5 -6zM284 575q-16 0 -28 4.5t-25 16.5q-17 17 -36 35t-37 34q-7 8 -11.5 14.5t-4.5 14.5q0 7 6 14t15 12.5t20 9t21 3.5q14 0 24 -7t19 -19q14 -22 29 -44t29 -45
q2 -4 4.5 -9.5t2.5 -10.5q0 -11 -8 -17t-20 -6z" />
    <glyph glyph-name="Amacron" unicode="&#x100;" horiz-adv-x="784" 
d="M720 65q4 -9 5 -13.5t1 -10.5q0 -18 -12.5 -32t-31.5 -14q-17 0 -28.5 9t-17.5 24q-14 35 -27 66q-11 26 -22.5 51.5t-18.5 36.5h-363q-8 -17 -19.5 -43t-22.5 -51q-13 -29 -26 -60l1 1q-5 -17 -18 -25t-28 -8q-17 0 -31 11t-14 34q0 5 2 11.5t4 12.5q16 41 36.5 90.5
t44 104t49 110.5t51 110t50 103t46.5 90q9 16 22.5 27.5t34.5 11.5q20 0 34 -12.5t22 -26.5q34 -62 73 -142t76.5 -163t71 -162.5t56.5 -140.5zM529 271q-68 171 -142 317q-38 -74 -72.5 -151.5t-69.5 -165.5h284zM252 770q-18 0 -29.5 12t-11.5 29q0 16 11.5 28.5
t29.5 12.5h256q18 0 29.5 -12.5t11.5 -28.5q0 -17 -11.5 -29t-29.5 -12h-256z" />
    <glyph glyph-name="amacron" unicode="&#x101;" horiz-adv-x="579" 
d="M503 296q-1 -34 -1 -60.5t-0.5 -53.5t-2 -57t-5.5 -71q-3 -26 -12 -42t-38 -17q-26 1 -36 20t-9 38v1q-29 -28 -69.5 -46.5t-99.5 -18.5q-37 0 -72.5 10.5t-63.5 32t-45 53t-17 73.5q0 43 16.5 75.5t46 54.5t71 33t92.5 11q46 0 82.5 -6.5t68.5 -15.5q1 31 -5.5 55.5
t-23.5 41t-45.5 25t-71.5 9.5q-35 1 -67.5 -7.5t-59.5 -19.5q-10 -4 -20.5 -2.5t-19.5 7t-14.5 14t-5.5 19.5q0 16 8.5 27t18.5 14l-1 -1q40 17 80 26.5t89 9.5q56 0 98 -15.5t72 -43.5q35 -32 48.5 -79.5t13.5 -93.5zM245 68q33 0 62.5 9.5t51.5 26.5t35 40.5t13 50.5l1 41
q-27 8 -65 14t-78 6q-67 0 -102.5 -25.5t-35.5 -69.5q0 -22 9.5 -39.5t25.5 -29.5t37.5 -18t45.5 -6zM153 598q-18 0 -29.5 12t-11.5 29q0 16 11.5 28.5t29.5 12.5h256q18 0 29.5 -12.5t11.5 -28.5q0 -17 -11.5 -29t-29.5 -12h-256z" />
    <glyph glyph-name="Aogonek" unicode="&#x104;" horiz-adv-x="790" 
d="M692 -90q20 -4 28 -12t8 -21q0 -15 -9.5 -24t-27.5 -9q-14 0 -35 3.5t-40.5 13.5t-33.5 27t-14 44q0 26 12.5 51.5t38.5 42.5q-6 12 -11 24t-12.5 29t-18 41.5t-27.5 60.5h-361q-8 -16 -20 -41.5t-23 -50.5q-13 -29 -26 -61q-4 -17 -17 -25t-27 -8q-27 0 -39.5 22
t-1.5 48q25 64 58.5 143.5t70.5 162t75.5 161.5t72.5 141q9 15 22 27t35 12t35.5 -12t21.5 -27q33 -59 70 -136t74.5 -159t72 -163.5t61.5 -149.5q6 -13 6.5 -28t-8.5 -20q-20 -14 -35.5 -35.5t-15.5 -38.5q0 -15 11 -22.5t30 -10.5zM512 271q-33 86 -69.5 165.5
t-73.5 151.5q-37 -74 -72 -151.5t-69 -165.5h284z" />
    <glyph glyph-name="aogonek" unicode="&#x105;" horiz-adv-x="579" 
d="M477 -56q20 -4 28 -12t8 -21q0 -15 -9.5 -24t-27.5 -9q-14 0 -35 3.5t-40.5 13.5t-33.5 27t-14 44t13.5 45.5t40.5 34.5q-4 5 -4 11q-28 -29 -70 -48.5t-101 -19.5q-37 0 -72.5 10.5t-63.5 32t-45 53t-17 73.5q0 43 16.5 75.5t46 54.5t71 33t92.5 11q45 0 81.5 -6
t69.5 -15q-1 5 -2 16.5l-3 34.5q-4 38 -44 59.5t-97 21.5q-37 0 -68.5 -7.5t-58.5 -19.5q-5 -2 -9.5 -3t-7.5 -1q-17 0 -30 12.5t-13 29.5q0 14 8 25t18 16q38 16 79 25.5t90 9.5q77 0 136 -32t82 -100q14 -42 14 -88.5v-85.5q0 -15 -0.5 -29.5t-1 -32.5t-2 -40.5
t-3.5 -53.5q-4 -19 -15 -31t-22 -22q-10 -8 -17 -16t-7 -17q0 -32 40 -38zM247 69q33 0 61.5 9.5t50.5 26t34.5 40t12.5 50.5v41q-26 7 -63 13.5t-76 6.5q-67 0 -102.5 -26t-35.5 -71q0 -21 9.5 -38t26 -28.5t37.5 -17.5t45 -6z" />
    <glyph glyph-name="Aring" unicode="&#xc5;" horiz-adv-x="790" 
d="M719 64q4 -12 4 -24t-4.5 -22t-14 -16.5t-23.5 -6.5q-33 0 -47 32q-14 35 -27 66q-11 26 -22.5 51.5t-18.5 36.5h-362q-8 -16 -19.5 -42t-22.5 -51q-13 -29 -27 -61q-7 -13 -19 -22.5t-27 -9.5q-14 0 -23.5 6.5t-14 16.5t-5 22t4.5 24q25 64 58.5 144.5t71 163.5
t75.5 162t72 140q-22 14 -35 35.5t-13 48.5q0 20 8.5 37.5t22.5 31t33 21.5t39 8t38.5 -8t32.5 -21.5t22.5 -31.5t8.5 -39q0 -24 -12.5 -46t-32.5 -35q35 -62 73.5 -141t76 -162.5t71 -163.5t58.5 -144zM527 271q-19 48 -36.5 89t-34.5 79t-34.5 74.5t-36.5 75.5
q-38 -75 -72.5 -152.5t-69.5 -165.5h284zM337 758q-1 -18 7 -27t17 -14q11 -5 24 -5q17 1 30.5 14t13.5 32t-13.5 32t-32.5 13t-32.5 -13t-13.5 -32z" />
    <glyph glyph-name="aring" unicode="&#xe5;" horiz-adv-x="579" 
d="M503 296q-1 -34 -1 -60.5t-0.5 -53.5t-2 -57t-5.5 -71q-3 -26 -12 -42t-38 -17q-26 1 -36 20t-9 38v1q-29 -28 -69.5 -46.5t-99.5 -18.5q-37 0 -72.5 10.5t-63.5 32t-45 53t-17 73.5q0 43 16.5 75.5t46 54.5t71 33t92.5 11q46 0 82.5 -6.5t68.5 -15.5q1 31 -5.5 55.5
t-23.5 41t-45.5 25t-71.5 9.5q-35 1 -67.5 -7.5t-59.5 -19.5q-10 -4 -20.5 -2.5t-19.5 7t-14.5 14t-5.5 19.5q0 16 8.5 27t18.5 14l-1 -1q40 17 80 26.5t89 9.5q56 0 98 -15.5t72 -43.5q35 -32 48.5 -79.5t13.5 -93.5zM245 68q33 0 62.5 9.5t51.5 26.5t35 40.5t13 50.5l1 41
q-27 8 -65 14t-78 6q-67 0 -102.5 -25.5t-35.5 -69.5q0 -22 9.5 -39.5t25.5 -29.5t37.5 -18t45.5 -6zM281 577q-22 0 -42 8.5t-35.5 22.5t-24.5 33.5t-9 42.5q0 22 9 41t24.5 33.5t35.5 23t42 8.5t42 -8.5t35.5 -22.5t24.5 -34t9 -42t-9 -41t-24.5 -33.5t-35.5 -23t-42 -8.5
zM281 633q20 0 35.5 15t15.5 36t-15 35.5t-36 14.5t-36 -15t-15 -36t15.5 -35.5t35.5 -14.5z" />
    <glyph glyph-name="aring.alt" horiz-adv-x="579" 
d="M503 316q0 -24 -0.5 -57.5t-1 -70t-2 -72.5t-4.5 -66q-3 -26 -11 -40.5t-36 -15.5q-23 1 -33 19t-10 35q-26 -25 -63.5 -42.5t-89.5 -17.5q-35 0 -67.5 10t-58.5 29.5t-41.5 49t-15.5 68.5t15 69t42.5 50t66 30t84.5 10q44 0 76 -5t63 -13v15q0 30 -5.5 57t-20.5 47.5
t-41 32.5t-66 12q-35 0 -64 -7t-53 -17q-10 -5 -20 -3.5t-18.5 6.5t-13.5 13.5t-5 18.5q0 14 8.5 24.5t17.5 13.5h-1q19 8 38 14t40 11q-16 23 -16 53q0 20 8.5 37.5t22.5 31t32.5 21.5t38.5 8q21 0 39.5 -7.5t33 -21t23 -31.5t8.5 -39q0 -16 -6 -31.5t-15 -27.5
q38 -13 65 -41q32 -29 44.5 -73t12.5 -87zM415 216q-26 7 -59.5 12t-71.5 5q-62 0 -94 -23t-32 -62q0 -21 8.5 -37t23 -27t34 -16.5t41.5 -5.5q30 0 57 9t47.5 24.5t32.5 37t12 46.5zM253 576q0 -15 11 -27t26 -17h9t8 -1q15 4 26 16.5t11 29.5q0 18 -13 31t-33 13
q-19 0 -32 -13t-13 -31v-1z" />
    <glyph glyph-name="Aringacute" unicode="&#x1fa;" horiz-adv-x="790" 
d="M715 67q4 -12 4.5 -24t-4.5 -22.5t-14.5 -17t-24.5 -6.5q-17 0 -28.5 9t-17.5 24q-14 35 -27 66q-11 26 -22.5 51.5t-18.5 36.5h-363q-8 -17 -19.5 -42.5t-22.5 -50.5q-12 -29 -26 -61q-6 -12 -19 -22.5t-27 -10.5q-15 0 -25 6.5t-14.5 17t-4.5 22.5t5 24
q25 64 58.5 144.5t71 163.5t76.5 162t74 140q-44 28 -44 82q0 20 8.5 38t22.5 31.5t32.5 21.5t38.5 8t38.5 -8t33 -21.5t23 -31.5t8.5 -38q0 -27 -14 -49t-35 -35q33 -61 71 -139.5t75.5 -161t71.5 -163t59 -144.5zM523 273q-34 86 -70 165.5t-73 151.5
q-38 -75 -72.5 -151.5t-69.5 -165.5h285zM382 868q-16 0 -23 12.5t1 24.5l56 87q8 11 17 17.5t23 6.5q19 0 38 -11.5t19 -25.5q0 -15 -15 -28q-17 -15 -33.5 -31t-33.5 -31q-12 -11 -23 -16t-26 -5zM373 804q-27 -3 -37.5 -24.5t3.5 -46.5q5 -9 13.5 -13t16.5 -6q9 -2 18 -1
q17 2 30 15t13 31q0 19 -13.5 33t-43.5 12z" />
    <glyph glyph-name="aringacute" unicode="&#x1fb;" horiz-adv-x="579" 
d="M503 296q-1 -34 -1 -60.5t-0.5 -53.5t-2 -57t-5.5 -71q-3 -26 -12 -42t-38 -17q-26 1 -36 20t-9 38v1q-29 -28 -69.5 -46.5t-99.5 -18.5q-37 0 -72.5 10.5t-63.5 32t-45 53t-17 73.5q0 43 16.5 75.5t46 54.5t71 33t92.5 11q46 0 82.5 -6.5t68.5 -15.5q1 31 -5.5 55.5
t-23.5 41t-45.5 25t-71.5 9.5q-35 1 -67.5 -7.5t-59.5 -19.5q-10 -4 -20.5 -2.5t-19.5 7t-14.5 14t-5.5 19.5q0 16 8.5 27t18.5 14l-1 -1q40 17 80 26.5t89 9.5q56 0 98 -15.5t72 -43.5q35 -32 48.5 -79.5t13.5 -93.5zM245 68q33 0 62.5 9.5t51.5 26.5t35 40.5t13 50.5l1 41
q-27 8 -65 14t-78 6q-67 0 -102.5 -25.5t-35.5 -69.5q0 -22 9.5 -39.5t25.5 -29.5t37.5 -18t45.5 -6zM281 577q-22 0 -42 8.5t-35.5 22.5t-24.5 33.5t-9 42.5q0 22 9 41t24.5 33.5t35.5 23t42 8.5t42 -8.5t35.5 -22.5t24.5 -34t9 -42t-9 -41t-24.5 -33.5t-35.5 -23t-42 -8.5
zM279 804q-12 0 -20 6.5t-8 16.5q0 5 2.5 11t4.5 10q14 22 29 44t29 44q9 14 19 20.5t24 6.5q10 0 21 -3.5t20 -9t15 -12.5t6 -14q0 -9 -4.5 -15.5t-12.5 -14.5l-72 -69q-24 -21 -53 -21zM281 633q20 0 35.5 15t15.5 36t-15 35.5t-36 14.5t-36 -15t-15 -36t15.5 -35.5
t35.5 -14.5z" />
    <glyph glyph-name="aringacute.alt" horiz-adv-x="579" 
d="M493 316q0 -24 -0.5 -57.5t-1 -70t-2 -72.5t-4.5 -66q-3 -26 -11 -40.5t-36 -15.5q-23 1 -32.5 19t-9.5 35q-26 -25 -64 -42.5t-90 -17.5q-34 0 -67 10t-58.5 29.5t-41.5 49t-16 68.5t15 69t42.5 50t66 30t84.5 10q45 0 77 -5t62 -13v15q0 30 -5.5 57t-20.5 47.5
t-41 32.5t-66 12q-34 0 -63 -7t-53 -17q-21 -9 -39.5 3t-18.5 32q0 14 8.5 24.5t16.5 13.5q20 8 38.5 14t39.5 11q-15 24 -15 53q0 20 8.5 37.5t22.5 31t32.5 21.5t38.5 8t38.5 -7.5t33 -21t23 -31.5t8.5 -39q0 -16 -6 -31.5t-15 -27.5q21 -7 36 -16.5t30 -24.5
q32 -29 44 -73t12 -87zM405 216q-26 7 -59 12t-72 5q-61 0 -93 -23t-32 -62q0 -42 31 -64t76 -22q30 0 56.5 9t47 24.5t32.5 37t12 46.5zM279 701q-12 0 -20 6.5t-8 16.5q0 5 2.5 11t4.5 10q14 22 29 44t29 44q17 26 43 26q10 0 21 -3.5t20 -9t15 -12t6 -13.5
q0 -9 -4.5 -15.5t-12.5 -14.5l-72 -69q-24 -21 -53 -21zM243 576q1 -20 18 -34t37 -11q14 4 25 16.5t11 29.5q0 18 -13 31t-32 13q-20 0 -33 -13t-13 -32z" />
    <glyph glyph-name="Atilde" unicode="&#xc3;" horiz-adv-x="784" 
d="M720 65q4 -9 5 -13.5t1 -10.5q0 -18 -12.5 -32t-31.5 -14q-17 0 -28.5 9t-17.5 24q-14 35 -27 66q-11 26 -22.5 51.5t-18.5 36.5h-363q-8 -17 -19.5 -43t-22.5 -51q-13 -29 -26 -60q-7 -12 -19 -22.5t-27 -10.5q-19 0 -31.5 14t-12.5 32q0 5 2 11.5t4 12.5
q25 64 58.5 144t70.5 162.5t75.5 161.5t72.5 140q9 16 22 27.5t35 11.5q20 0 34 -12.5t22 -26.5q34 -62 73 -142t76.5 -163t71 -162.5t56.5 -140.5zM529 271q-68 171 -142 317q-38 -74 -72.5 -151.5t-69.5 -165.5h284zM285 761q-5 -8 -12 -15t-19 -7q-14 0 -24.5 9.5
t-10.5 23.5q0 5 0.5 7.5t0.5 3.5q17 51 39.5 72t57.5 21q15 0 32 -6t34 -13.5t33.5 -13.5t30.5 -6t21 6.5t15 21.5q5 8 12.5 15.5t18.5 7.5q14 0 24.5 -10t10.5 -23q0 -7 -2 -13q0 -1 -0.5 -1.5t-0.5 -1.5q-16 -48 -38 -68t-57 -20q-15 0 -32 6t-34 13t-33.5 13t-30.5 6
t-21 -6t-15 -22z" />
    <glyph glyph-name="atilde" unicode="&#xe3;" horiz-adv-x="579" 
d="M503 296q-1 -34 -1 -60.5t-0.5 -53.5t-2 -57t-5.5 -71q-3 -26 -12 -42t-38 -17q-26 1 -36 20t-9 38v1q-29 -28 -69.5 -46.5t-99.5 -18.5q-37 0 -72.5 10.5t-63.5 32t-45 53t-17 73.5q0 43 16.5 75.5t46 54.5t71 33t92.5 11q46 0 82.5 -6.5t68.5 -15.5q1 31 -5.5 55.5
t-23.5 41t-45.5 25t-71.5 9.5q-35 1 -67.5 -7.5t-59.5 -19.5q-10 -4 -20.5 -2.5t-19.5 7t-14.5 14t-5.5 19.5q0 16 8.5 27t18.5 14l-1 -1q40 17 80 26.5t89 9.5q56 0 98 -15.5t72 -43.5q35 -32 48.5 -79.5t13.5 -93.5zM245 68q33 0 62.5 9.5t51.5 26.5t35 40.5t13 50.5l1 41
q-27 8 -65 14t-78 6q-67 0 -102.5 -25.5t-35.5 -69.5q0 -22 9.5 -39.5t25.5 -29.5t37.5 -18t45.5 -6zM186 589q-5 -8 -12 -15t-19 -7q-14 0 -24.5 9.5t-10.5 23.5q0 5 0.5 7.5t0.5 3.5q17 51 39.5 72t57.5 21q15 0 32 -6t34 -13.5t33.5 -13.5t30.5 -6t21 6.5t15 21.5
q5 8 12.5 15.5t18.5 7.5q14 0 24.5 -10t10.5 -23q0 -7 -2 -13q0 -1 -0.5 -1.5t-0.5 -1.5q-16 -48 -38 -68.5t-57 -20.5q-15 0 -32 6t-34 13.5t-33 13.5t-31 6q-14 0 -21.5 -6t-14.5 -22z" />
    <glyph glyph-name="AE" unicode="&#xc6;" horiz-adv-x="1096" 
d="M1017 87q20 0 33 -13t13 -32t-13 -32t-33 -13h-415q-38 -2 -52 10t-19 36q-8 72 -13 139t-6 127q-46 0 -90 -1t-90 -1l-25 -30t-32.5 -40t-36.5 -45.5t-37 -46.5q-43 -54 -90 -113q-6 -8 -16 -15.5t-21 -12t-23 -3.5t-23 10q-8 7 -11.5 15.5t-3.5 16.5q0 12 4.5 22.5
t9.5 16.5v-1q48 63 109.5 140t127.5 157.5t132 158t123 140.5q17 17 32.5 20t34.5 3h427q19 0 32 -12.5t13 -32.5q0 -19 -13 -31.5t-32 -12.5h-388q-8 -52 -10.5 -107t-3.5 -107h357q20 0 32.5 -14t12.5 -31q0 -20 -12.5 -33t-32.5 -13h-357q1 -41 3 -78t4.5 -66t4 -49
t2.5 -26h392zM512 397q1 42 2.5 77.5t4.5 64.5l-3.5 -3.5l-3.5 -3.5q-13 -16 -22 -26.5t-19.5 -23t-26 -32t-41.5 -53.5h109z" />
    <glyph glyph-name="ae" unicode="&#xe6;" horiz-adv-x="953" 
d="M643 224q-17 0 -39.5 0.5t-43 1.5t-35.5 1.5t-17 0.5q12 -72 58.5 -109.5t107.5 -37.5q45 0 79 15.5t60 39.5q6 6 12.5 9.5t15.5 3.5q18 0 30.5 -13t12.5 -30q0 -19 -15 -32v1q-37 -36 -84 -57.5t-113 -21.5q-70 0 -128.5 32.5t-93.5 89.5q-12 -21 -26 -37.5t-26 -27.5
q-14 -13 -28 -23q-26 -17 -60 -28.5t-77 -11.5q-37 0 -72.5 10.5t-63.5 32t-45 53t-17 73.5t16.5 74.5t46 54.5t71 33.5t92.5 11.5q44 0 79 -5t64 -13v3q0 5 -0.5 10.5t-0.5 12.5q0 19 -10.5 37.5t-29 32.5t-44 22.5t-53.5 8.5q-36 0 -67.5 -7.5t-58.5 -19.5q-5 -2 -10 -3
t-8 -1q-17 0 -30 12.5t-13 29.5q0 14 8 24.5t18 15.5q38 16 79 25.5t90 9.5q54 0 97.5 -15.5t72.5 -42.5q6 -5 12 -11.5t11 -13.5q34 46 84.5 72t110.5 26q58 0 103.5 -22t77 -59t47.5 -85t16 -100q0 -19 -13.5 -31t-30.5 -14q-7 -1 -65.5 -5t-153.5 -3zM407 237
q-26 7 -63 13.5t-76 6.5q-66 0 -102 -26t-36 -71q0 -22 9.5 -39t26 -28.5t37.5 -17.5t45 -6q33 0 61.5 9.5t50.5 26.5t34.5 40.5t12.5 50.5v41zM660 460q-30 0 -55.5 -11t-45.5 -31t-33.5 -47.5t-17.5 -60.5q39 -3 84 -4t91 -1q38 0 68.5 0.5t59.5 2.5q-4 31 -15 58.5
t-30 48.5t-45.5 33t-60.5 12z" />
    <glyph glyph-name="AEacute" unicode="&#x1fc;" horiz-adv-x="1117" 
d="M1017 87q20 0 33 -13t13 -32t-13 -32t-33 -13h-415q-38 -2 -52 10t-19 36q-8 72 -13 139t-6 127q-46 0 -90 -1t-90 -1l-25 -30t-32.5 -40t-36.5 -45.5t-37 -46.5q-43 -54 -90 -113q-6 -8 -16 -15.5t-21 -12t-23 -3.5t-23 10q-8 7 -11.5 15.5t-3.5 16.5q0 12 4.5 22.5
t9.5 16.5v-1q48 63 109.5 140t127.5 157.5t132 158t123 140.5q17 17 32.5 20t34.5 3h427q19 0 32 -12.5t13 -32.5q0 -19 -13 -31.5t-32 -12.5h-388q-8 -52 -10.5 -107t-3.5 -107h357q20 0 32.5 -14t12.5 -31q0 -20 -12.5 -33t-32.5 -13h-357q1 -41 3 -78t4.5 -66t4 -49
t2.5 -26h392zM610 737q-23 0 -27 14.5t5 29.5q15 22 29.5 44t29.5 44q16 26 42 26q10 0 21.5 -3.5t20.5 -9t15 -12t6 -13.5q0 -9 -4.5 -15.5t-12.5 -14.5l-73 -69q-22 -21 -52 -21zM512 397q1 42 2.5 77.5t4.5 64.5l-3.5 -3.5l-3.5 -3.5q-13 -16 -22 -26.5t-19.5 -23
t-26 -32t-41.5 -53.5h109z" />
    <glyph glyph-name="aeacute" unicode="&#x1fd;" horiz-adv-x="953" 
d="M625 211q-17 0 -39 1t-42.5 1.5t-35.5 1t-18 0.5q6 -35 21.5 -62.5t37.5 -46.5t49.5 -28.5t57.5 -9.5q45 0 78 16t61 41q10 9 22.5 10.5t23 -3t18 -14.5t7.5 -24q0 -18 -14 -32q-38 -35 -84.5 -57t-113.5 -22q-69 0 -126.5 31.5t-92.5 86.5q-23 -52 -76.5 -87.5
t-142.5 -35.5q-37 0 -72.5 10.5t-63.5 31.5t-45 53t-17 74q0 43 16.5 75t46 54t71 33t91.5 11q44 0 79 -5t65 -13q0 8 -0.5 14.5t-0.5 13.5q0 19 -10.5 37t-29 32t-44 22.5t-53.5 8.5q-38 0 -69 -8t-58 -19q-21 -8 -41 3t-20 34q0 14 8.5 25t18.5 16q37 17 79 26t90 9
q54 0 97.5 -15.5t72.5 -43.5q12 -10 22 -24q35 45 85.5 71.5t110.5 26.5q58 0 103.5 -22t76.5 -59t47.5 -85.5t16.5 -100.5q0 -19 -13.5 -30.5t-30.5 -13.5q-8 -1 -66 -5.5t-154 -3.5zM390 226q-26 6 -63.5 12.5t-75.5 6.5q-68 0 -103 -26t-35 -71q0 -44 34.5 -67.5
t82.5 -23.5q33 0 62 9.5t51 26.5t34.5 40t12.5 51v42zM643 448q-30 0 -55.5 -11t-45.5 -31t-33.5 -47.5t-17.5 -60.5q38 -3 81 -4t87 -1q40 0 72 0.5t62 2.5q-4 31 -15 58.5t-29.5 48.5t-45 33t-60.5 12zM460 575q-23 -1 -25.5 13.5t3.5 29.5q15 23 29.5 45t29.5 44
q17 26 43 26q10 0 21 -3.5t20 -9t15 -12.5t6 -14q0 -8 -4.5 -14.5t-12.5 -14.5l-73 -69q-12 -12 -24.5 -16.5t-27.5 -4.5z" />
    <glyph glyph-name="Cacute" unicode="&#x106;" horiz-adv-x="738" 
d="M407 -12q-76 0 -140 28t-111 77t-73.5 115t-26.5 142q0 74 26.5 139.5t73.5 115t112 78.5t142 29q43 0 78.5 -6.5t65.5 -18.5t56 -29t50 -37q8 -6 13.5 -15.5t5.5 -23.5t-8.5 -25t-20.5 -16.5t-25.5 -5t-24.5 9.5q-39 35 -84 55.5t-107 20.5q-54 0 -100.5 -21
t-80.5 -57.5t-53 -86t-19 -106.5t19.5 -106.5t53 -86t80 -57.5t100.5 -21q63 0 108.5 20.5t87.5 58.5q10 10 23.5 12t25.5 -3t20.5 -16t8.5 -26q0 -11 -4.5 -20t-11.5 -15q-52 -47 -113 -74.5t-147 -27.5zM401 747q-11 -1 -17.5 3t-9.5 11t-1.5 14.5t6.5 14.5q15 23 29.5 45
t29.5 44q17 26 42 26q10 0 21.5 -3.5t20.5 -9t15 -12.5t6 -14q0 -8 -4.5 -14.5t-12.5 -14.5l-73 -69q-22 -21 -52 -21z" />
    <glyph glyph-name="cacute" unicode="&#x107;" horiz-adv-x="571" 
d="M310 -12q-57 0 -106 22t-84.5 59t-56 86.5t-20.5 105.5q0 55 20.5 104t56 86.5t84.5 59.5t106 22q66 0 111.5 -22t80.5 -54l-1 1q5 -5 10 -14t5 -20q0 -15 -8 -26t-19.5 -16t-24.5 -3t-24 11q-26 23 -56.5 40t-74.5 17q-36 0 -67 -14.5t-54 -39.5t-36 -59t-13 -73
t13.5 -72.5t37 -59t55.5 -40t69 -14.5q41 0 74 16.5t59 41.5q10 10 22.5 11.5t23.5 -3.5t18.5 -15.5t7.5 -23.5q0 -16 -12 -30q-38 -38 -84.5 -61t-112.5 -23zM302 575q-12 0 -20 6t-8 17q0 5 2.5 10.5t4.5 9.5q14 23 29 45t29 44q18 26 43 26q10 0 21 -3.5t20 -9t15 -12.5
t6 -14q0 -8 -4 -14.5t-12 -14.5l-73 -69q-13 -12 -25 -16.5t-28 -4.5z" />
    <glyph glyph-name="Ccaron" unicode="&#x10c;" horiz-adv-x="738" 
d="M454 881q14 13 26 16.5t28 3.5q12 0 19.5 -6t7.5 -17q0 -6 -2.5 -11t-6.5 -10l-68 -84q-10 -12 -20 -19t-27 -7h-17q-17 0 -27 7t-20 19q-17 20 -34 41.5t-34 42.5q-4 5 -6.5 10t-2.5 11q0 11 8 17t20 6q15 0 28 -4.5t27 -15.5q13 -12 25 -23t25 -23zM407 -12
q-76 0 -140 28t-111 77t-73.5 115t-26.5 142q0 74 26.5 139.5t73.5 115t112 78.5t142 29q43 0 78.5 -6.5t65.5 -18.5t56 -29t50 -37q8 -6 13.5 -15.5t5.5 -23.5t-8.5 -25t-20.5 -16.5t-25.5 -5t-24.5 9.5q-39 35 -84 55.5t-107 20.5q-54 0 -100.5 -21t-80.5 -57.5t-53 -86
t-19 -106.5t19.5 -106.5t53 -86t80 -57.5t100.5 -21q63 0 108.5 20.5t87.5 58.5q10 10 23.5 12t25.5 -3t20.5 -16t8.5 -26q0 -11 -4.5 -20t-11.5 -15q-52 -47 -113 -74.5t-147 -27.5z" />
    <glyph glyph-name="ccaron" unicode="&#x10d;" horiz-adv-x="571" 
d="M310 -12q-57 0 -106 22t-84.5 59t-56 86.5t-20.5 105.5q0 55 20.5 104t56 86.5t84.5 59.5t106 22q66 0 111.5 -22t80.5 -54l-1 1q5 -5 10 -14t5 -20q0 -15 -8 -26t-19.5 -16t-24.5 -3t-24 11q-26 23 -56.5 40t-74.5 17q-36 0 -67 -14.5t-54 -39.5t-36 -59t-13 -73
t13.5 -72.5t37 -59t55.5 -40t69 -14.5q41 0 74 16.5t59 41.5q10 10 22.5 11.5t23.5 -3.5t18.5 -15.5t7.5 -23.5q0 -16 -12 -30q-38 -38 -84.5 -61t-112.5 -23zM357 709q14 13 26 16.5t27 3.5q22 0 27 -15.5t-8 -29.5l-68 -83q-10 -12 -20 -19t-27 -7h-17q-17 0 -27 7t-20 19
q-17 20 -34 41.5t-34 41.5q-13 14 -7.5 29.5t26.5 15.5q15 0 28 -4.5t27 -15.5q13 -12 25 -23t25 -23z" />
    <glyph glyph-name="Ccedilla" unicode="&#xc7;" horiz-adv-x="738" 
d="M638 172q18 0 32 -14t14 -33q0 -23 -15 -36q-47 -41 -98 -67.5t-121 -32.5q-26 -25 -59 -56t-56 -56q-8 -8 -19 -14.5t-22 -6.5q-26 0 -42 39q-3 11 2.5 20t13.5 20q14 16 31.5 33.5t28.5 27.5q-60 14 -110.5 46.5t-87 79t-56.5 105t-20 124.5q0 74 26.5 140.5t74 116
t112.5 78.5t143 29q43 0 78.5 -7t65.5 -19t56.5 -29t51.5 -37q8 -7 13.5 -16t5.5 -23q0 -15 -9 -25.5t-21.5 -16t-27 -4.5t-24.5 10q-38 32 -84 53.5t-106 21.5q-55 0 -101.5 -21t-80.5 -57t-53 -85.5t-19 -106.5q0 -58 19.5 -108.5t53.5 -87.5t80.5 -58t100.5 -21
q63 0 108.5 20.5t88.5 59.5q5 5 13.5 9.5t18.5 4.5z" />
    <glyph glyph-name="ccedilla" unicode="&#xe7;" horiz-adv-x="571" 
d="M522 101q0 -17 -13 -30q-32 -32 -71 -54.5t-93 -28.5q-9 -10 -24.5 -23.5t-33 -28t-35 -29.5t-29.5 -27q-11 -9 -22.5 -15t-24.5 -6q-27 0 -40 30q-8 24 19 50q3 4 13.5 12.5t22.5 18t22.5 18t14.5 12.5q-42 13 -76 38.5t-58.5 59.5t-37.5 75.5t-13 87.5q0 55 20.5 104.5
t56.5 87t85 59.5t107 22q66 0 112 -22t81 -54l-1 1q5 -5 10 -14t5 -20q0 -15 -8 -26t-19.5 -16t-25 -3t-24.5 11q-26 23 -57 40t-74 17q-36 0 -67.5 -14.5t-54.5 -39.5t-36 -59.5t-13 -73.5t13.5 -73t37 -59.5t55.5 -40t70 -14.5q41 0 74 16.5t60 41.5q10 10 22.5 11.5
t23.5 -3.5t18.5 -15.5t7.5 -23.5z" />
    <glyph glyph-name="Cdotaccent" unicode="&#x10a;" horiz-adv-x="738" 
d="M407 -12q-76 0 -140 28t-111 77t-73.5 115t-26.5 142q0 74 26.5 139.5t73.5 115t112 78.5t142 29q43 0 78.5 -6.5t65.5 -18.5t56 -29t50 -37q8 -6 13.5 -15.5t5.5 -23.5t-8.5 -25t-20.5 -16.5t-25.5 -5t-24.5 9.5q-39 35 -84 55.5t-107 20.5q-54 0 -100.5 -21
t-80.5 -57.5t-53 -86t-19 -106.5t19.5 -106.5t53 -86t80 -57.5t100.5 -21q63 0 108.5 20.5t87.5 58.5q10 10 23.5 12t25.5 -3t20.5 -16t8.5 -26q0 -11 -4.5 -20t-11.5 -15q-52 -47 -113 -74.5t-147 -27.5zM459 800q0 -24 -16 -39t-40 -15q-25 0 -41 15t-16 39v14
q0 24 16 38.5t41 14.5q24 0 40 -14.5t16 -38.5v-14z" />
    <glyph glyph-name="cdotaccent" unicode="&#x10b;" horiz-adv-x="571" 
d="M310 -12q-57 0 -106 22t-84.5 59t-56 86.5t-20.5 105.5q0 55 20.5 104t56 86.5t84.5 59.5t106 22q66 0 111.5 -22t80.5 -54l-1 1q5 -5 10 -14t5 -20q0 -15 -8 -26t-19.5 -16t-24.5 -3t-24 11q-26 23 -56.5 40t-74.5 17q-36 0 -67 -14.5t-54 -39.5t-36 -59t-13 -73
t13.5 -72.5t37 -59t55.5 -40t69 -14.5q41 0 74 16.5t59 41.5q10 10 22.5 11.5t23.5 -3.5t18.5 -15.5t7.5 -23.5q0 -16 -12 -30q-38 -38 -84.5 -61t-112.5 -23zM362 628q0 -24 -16.5 -39t-40.5 -15t-40 15t-16 39v14q0 24 16 38.5t40 14.5t40.5 -14.5t16.5 -38.5v-14z" />
    <glyph glyph-name="Dcaron" unicode="&#x10e;" horiz-adv-x="782" 
d="M328 703q82 0 151 -26.5t118 -74t76.5 -111.5t27.5 -139t-27.5 -139t-76.5 -111.5t-118 -74.5t-151 -27h-173q-27 0 -36.5 16t-13.5 40q-11 88 -14.5 164t-3.5 142q0 114 6.5 192.5t13.5 104.5q4 17 11.5 26.5t17 13.5t19.5 4h21h152zM602 349q-4 67 -34 122
q-13 24 -32.5 47t-48.5 42.5t-68 33.5t-91 19h-129q-8 -59 -11 -118.5t-3 -119.5q0 -44 1.5 -86.5t3.5 -79.5t4 -67.5t4 -51.5h130q63 0 113.5 20t86 55t55 82.5t19.5 101.5zM416 871q15 14 26.5 17.5t27.5 3.5q12 0 19.5 -6.5t7.5 -17.5q0 -6 -2.5 -10.5t-6.5 -10.5
l-68 -84q-10 -11 -20 -18.5t-27 -7.5h-17q-17 0 -27 7.5t-20 18.5q-17 20 -34 42t-34 42q-4 6 -6.5 10.5t-2.5 10.5q0 11 8 17.5t21 6.5q14 0 27 -4.5t27 -16.5q14 -11 25.5 -22.5t25.5 -23.5z" />
    <glyph glyph-name="dcaron" unicode="&#x10f;" horiz-adv-x="664" 
d="M455 58q0 2 -0.5 1.5t-0.5 -2.5q1 0 1 1zM454 56v-4t1 5zM304 77q33 0 64.5 13.5t55.5 38t38.5 59t14.5 76.5q0 41 -14.5 75t-38.5 58.5t-55.5 38t-64.5 13.5q-34 0 -64.5 -13t-54 -37t-37 -58.5t-13.5 -77.5q3 -52 21 -92q8 -17 20 -34t30 -30t42 -21.5t56 -8.5z
M290 537q38 0 73 -15.5t61 -34.5q31 -22 58 -51q-1 88 -8.5 152t-7.5 96q-2 22 8.5 39t32.5 17q14 1 24 -3.5t16 -12.5t9.5 -18.5t5.5 -21.5q8 -71 12 -134t4 -133q0 -75 -6 -162t-21 -203q-4 -23 -15.5 -40t-39.5 -16q-21 0 -32 17t-10 37v6q-30 -29 -70 -47.5t-94 -18.5
q-48 0 -93 18.5t-80 54t-56.5 86t-21.5 115.5t21.5 115.5t56.5 85t80.5 53t92.5 19.5zM610 579q-2 -18 6 -25.5t21 -7.5t19.5 6.5t11.5 20.5q8 26 17 51.5t17 51.5h-1q6 15 6 26q0 16 -8.5 23t-22.5 7h-15q-38 0 -43 -40z" />
    <glyph glyph-name="Dcroat" unicode="&#x110;" horiz-adv-x="873" 
d="M419 704q83 0 151.5 -27t118 -74t76.5 -111.5t27 -139.5q0 -74 -27 -138.5t-76.5 -112t-118 -74.5t-151.5 -27h-173q-27 0 -36.5 16t-13.5 41q-15 139 -18 252q-26 -1 -38.5 -1.5t-25.5 -2.5q-8 -1 -17.5 -2t-22.5 -2q-20 -1 -37.5 11t-16.5 32q-1 30 17 40.5t40 14.5
q3 0 7 1q11 2 35 4t59 3q2 85 8 144.5t9 87.5q1 7 2 15t1 5q2 17 9.5 26.5t17.5 13.5t21 4.5t22 0.5h151zM693 350q-4 71 -34 128q-13 24 -32.5 47.5t-48.5 42.5t-68.5 31t-90.5 14h-129q-8 -51 -10.5 -103t-3.5 -104q44 -2 87 -3t68 -3q10 -1 16 -1h7q22 -4 39.5 -14.5
t16.5 -40.5q1 -20 -15.5 -32t-36.5 -11q-35 4 -81.5 5.5t-99.5 2.5q2 -76 6 -131.5t7 -87.5h129q63 0 113.5 20t86 55t55 82.5t19.5 102.5z" />
    <glyph glyph-name="dcroat" unicode="&#x111;" horiz-adv-x="726" 
d="M645 649q19 -2 35 -12.5t15 -36.5q0 -18 -16 -29.5t-35 -8.5l-8 2t-24 5.5t-36 5.5q4 -71 5 -130.5t-1 -119t-8.5 -125.5t-17.5 -151q-2 -12 -5.5 -22.5t-10 -18.5t-16 -12.5t-24.5 -2.5q-11 0 -20 6t-14.5 14.5t-7 19.5t2.5 22q-29 -29 -70 -48.5t-96 -19.5
q-48 0 -93 18.5t-80 53.5t-56.5 86.5t-21.5 116.5q0 64 21.5 115t56.5 86t80.5 53t92.5 18q57 -1 94 -16.5t59 -34.5q26 -22 40 -50q-2 40 -4.5 74.5t-4.5 66.5q-19 -2 -35.5 -5t-28.5 -5q-5 -1 -9.5 -1.5t-7.5 -0.5q-17 1 -33 10.5t-16 27.5q-2 26 13.5 36.5t36.5 12.5
q18 5 37 8t36 5q-1 9 -1.5 14t-0.5 7q-1 20 10 37t31 17q17 0 28 -6.5t17.5 -17t9 -23.5t4.5 -26zM480 260q-3 50 -21 90q-8 17 -20.5 33.5t-31 29.5t-43.5 22t-58 11q-34 0 -64 -13t-53 -37t-36.5 -58.5t-13.5 -76.5q0 -45 13 -79.5t36 -58.5t53 -36.5t65 -12.5
q34 0 65.5 13.5t55.5 38t38.5 58.5t14.5 76z" />
    <glyph glyph-name="Eacute" unicode="&#xc9;" horiz-adv-x="670" 
d="M581 89q20 0 32.5 -12.5t12.5 -31.5q0 -20 -12.5 -32.5t-32.5 -12.5h-416q-19 -1 -31 2t-19.5 9t-12 15t-7.5 19q-10 88 -14 167t-4 147q0 112 6.5 184.5t10.5 102.5q5 28 17.5 44t39.5 14h426q19 0 31.5 -13t12.5 -33q0 -19 -12.5 -32t-31.5 -13h-387q-8 -54 -11.5 -107
t-4.5 -106h359q19 0 32 -14t13 -31q0 -19 -13 -32t-32 -13h-358q1 -79 6.5 -138.5t7.5 -82.5h392zM341 737q-12 0 -20 6.5t-8 16.5q0 5 2.5 11t4.5 10q14 22 29 44t29 44q17 26 43 26q10 0 21 -3.5t20 -9t15 -12t6 -13.5q0 -9 -4.5 -15.5t-11.5 -14.5l-73 -69
q-24 -21 -53 -21z" />
    <glyph glyph-name="eacute" unicode="&#xe9;" horiz-adv-x="592" 
d="M274 215q-14 0 -33 0.5t-38.5 1.5t-37 2t-27.5 2q6 -36 21 -64t37.5 -46.5t50.5 -28.5t58 -10q45 0 78 15.5t61 41.5q10 9 22.5 10.5t23 -3t18 -14.5t7.5 -24q0 -19 -14 -33v1q-38 -36 -84.5 -57.5t-113.5 -21.5q-54 0 -102 20t-83 56t-55.5 86.5t-20.5 112.5
q0 57 19 106.5t52.5 86.5t79.5 58.5t101 21.5q58 0 103.5 -22t76.5 -59t47.5 -85.5t16.5 -100.5q-2 -23 -12.5 -31.5t-36.5 -12.5q-24 -3 -57 -5q-28 -2 -67.5 -3.5t-90.5 -0.5zM292 452q-61 0 -102.5 -41.5t-50.5 -109.5q38 -2 81.5 -3t87.5 -1q41 0 72.5 0.5t61.5 1.5
q-4 31 -15 59t-29.5 49t-45 33t-60.5 12zM291 575q-28 0 -28 23q0 5 2 10.5t4 9.5q15 23 29.5 45t29.5 44q17 26 42 26q10 0 21.5 -3.5t20.5 -9t15 -12.5t6 -14q0 -8 -4.5 -14.5t-12.5 -14.5l-73 -69q-12 -12 -24.5 -16.5t-27.5 -4.5z" />
    <glyph glyph-name="Ebreve" unicode="&#x114;" horiz-adv-x="670" 
d="M581 89q20 0 32.5 -12.5t12.5 -31.5q0 -20 -12.5 -32.5t-32.5 -12.5h-416q-19 -1 -31 2t-19.5 9t-12 15t-7.5 19q-10 88 -14 167t-4 147q0 112 6.5 184.5t10.5 102.5q5 28 17.5 44t39.5 14h426q19 0 31.5 -13t12.5 -33q0 -19 -12.5 -32t-31.5 -13h-387q-8 -54 -11.5 -107
t-4.5 -106h359q19 0 32 -14t13 -31q0 -19 -13 -32t-32 -13h-358q1 -79 6.5 -138.5t7.5 -82.5h392zM343 739q-96 0 -137 76q-5 8 -8 19t-3 20q0 17 10 28t27 11q15 0 22.5 -6t11.5 -15q10 -23 28 -37t49 -14t49 14t28 37q5 9 12.5 15t21.5 6q17 0 27 -11t10 -28q0 -9 -3 -20
t-8 -19q-41 -76 -137 -76z" />
    <glyph glyph-name="ebreve" unicode="&#x115;" horiz-adv-x="592" 
d="M274 215q-14 0 -33 0.5t-38.5 1.5t-37 2t-27.5 2q6 -36 21 -64t37.5 -46.5t50.5 -28.5t58 -10q45 0 78.5 15.5t61.5 41.5q5 5 12 8t16 3q18 0 30 -12.5t12 -29.5q0 -19 -14 -33q-38 -35 -84.5 -56.5t-113.5 -21.5q-54 0 -102 20t-83 56t-55.5 86.5t-20.5 112.5
q0 57 19 106.5t52.5 86.5t79.5 58.5t101 21.5q58 0 103.5 -22t76.5 -59t47.5 -85.5t16.5 -100.5q-2 -23 -12.5 -31.5t-36.5 -12.5q-24 -3 -57 -5q-28 -2 -67.5 -3.5t-90.5 -0.5zM292 452q-61 0 -102.5 -41.5t-50.5 -109.5q38 -2 81.5 -3t87.5 -1q41 0 72.5 0.5t61.5 1.5
q-4 31 -15 59t-29.5 49t-45 33t-60.5 12zM293 577q-96 0 -137 75q-5 8 -8 19.5t-3 19.5q0 17 10 28t27 11q14 0 21.5 -6t12.5 -14q9 -23 27.5 -37.5t49.5 -14.5q30 0 48.5 14.5t27.5 37.5q5 8 12.5 14t21.5 6q17 0 27 -11t10 -28q0 -8 -2.5 -19.5t-7.5 -19.5
q-41 -75 -137 -75z" />
    <glyph glyph-name="Ecaron" unicode="&#x11a;" horiz-adv-x="670" 
d="M581 89q20 0 32.5 -12.5t12.5 -31.5q0 -20 -12.5 -32.5t-32.5 -12.5h-416q-19 -1 -31 2t-19.5 9t-12 15t-7.5 19q-10 88 -14 167t-4 147q0 112 6.5 184.5t10.5 102.5q2 10 2 12q4 27 19.5 36t35.5 10h426q19 0 31.5 -13t12.5 -33q0 -19 -12.5 -32t-31.5 -13h-387
q-8 -54 -11.5 -107t-4.5 -106h359q19 0 32 -14t13 -31q0 -19 -13 -32t-32 -13h-358q1 -79 6.5 -138.5t7.5 -82.5h392zM395 871q14 14 26 17.5t27 3.5q13 0 20 -6.5t7 -17.5q0 -6 -2 -10.5t-6 -10.5l-68 -84q-10 -11 -20 -18.5t-27 -7.5h-18q-17 0 -27 7.5t-19 18.5
q-17 20 -34 42t-34 42q-4 6 -6.5 10.5t-2.5 10.5q0 11 8 17.5t20 6.5q15 0 28 -4.5t27 -16.5q13 -11 25 -22.5t25 -23.5z" />
    <glyph glyph-name="ecaron" unicode="&#x11b;" horiz-adv-x="592" 
d="M274 215q-14 0 -33 0.5t-38.5 1.5t-37 2t-27.5 2q6 -36 21 -64t37.5 -46.5t50.5 -28.5t58 -10q45 0 78.5 15.5t61.5 41.5q5 5 12 8t16 3q18 0 30 -12.5t12 -29.5q0 -19 -14 -33q-38 -35 -84.5 -56.5t-113.5 -21.5q-54 0 -102 20t-83 56t-55.5 86.5t-20.5 112.5
q0 57 19 106.5t52.5 86.5t79.5 58.5t101 21.5q58 0 103.5 -22t76.5 -59t47.5 -85.5t16.5 -100.5q-2 -23 -12.5 -31.5t-36.5 -12.5q-24 -3 -57 -5q-28 -2 -67.5 -3.5t-90.5 -0.5zM292 452q-61 0 -102.5 -41.5t-50.5 -109.5q38 -2 81.5 -3t87.5 -1q41 0 72.5 0.5t61.5 1.5
q-4 31 -15 59t-29.5 49t-45 33t-60.5 12zM344 709q15 13 26.5 16.5t27.5 3.5q12 0 19.5 -6.5t7.5 -16.5q0 -6 -2.5 -11t-6.5 -11l-68 -83q-10 -12 -20 -19t-27 -7h-17q-17 0 -27 7t-20 19q-17 20 -34 41.5t-34 41.5q-4 6 -6.5 11t-2.5 11q0 10 8 16.5t21 6.5q14 0 27 -4.5
t27 -15.5q14 -12 25.5 -23t25.5 -23z" />
    <glyph glyph-name="Ecircumflex" unicode="&#xca;" horiz-adv-x="670" 
d="M134 0q-19 0 -33 14t-14 35v602q0 21 14 35t33 14h423q19 0 32 -12.5t13 -32.5q0 -19 -13 -31.5t-32 -12.5h-374v-213h330q20 0 32.5 -14t12.5 -31q0 -19 -12.5 -32t-32.5 -13h-330v-219h379q19 0 32 -12.5t13 -31.5q0 -20 -13 -32.5t-32 -12.5h-428zM292 758
q-14 -14 -25.5 -17.5t-28.5 -3.5q-20 0 -25.5 15t6.5 29l69 85q9 11 19 18.5t27 7.5h18q17 0 27 -7.5t20 -18.5l69 -85q11 -14 5.5 -29t-26.5 -15q-16 0 -28 3.5t-26 17.5q-14 13 -25.5 22.5t-25.5 21.5z" />
    <glyph glyph-name="ecircumflex" unicode="&#xea;" horiz-adv-x="592" 
d="M274 215q-14 0 -33 0.5t-38.5 1.5t-37 2t-27.5 2q6 -36 21 -64t37.5 -46.5t50.5 -28.5t58 -10q45 0 78 15.5t61 41.5q10 9 22.5 10.5t23 -3t18 -14.5t7.5 -24q0 -19 -14 -33v1q-38 -36 -84.5 -57.5t-113.5 -21.5q-54 0 -102 20t-83 56t-55.5 86.5t-20.5 112.5
q0 57 19 106.5t52.5 86.5t79.5 58.5t101 21.5q58 0 103.5 -22t76.5 -59t47.5 -85.5t16.5 -100.5q-2 -23 -12.5 -31.5t-36.5 -12.5q-24 -3 -57 -5q-28 -2 -67.5 -3.5t-90.5 -0.5zM292 452q-61 0 -102.5 -41.5t-50.5 -109.5q38 -2 81.5 -3t87.5 -1q41 0 72.5 0.5t61.5 1.5
q-4 31 -15 59t-29.5 49t-45 33t-60.5 12zM241 596q-14 -14 -25.5 -17.5t-27.5 -3.5q-20 0 -26 14.5t6 28.5l69 86q10 11 20 18t27 7h17q18 0 27.5 -7t19.5 -18l69 -86q13 -14 6.5 -28.5t-26.5 -14.5q-17 0 -29 3.5t-26 17.5q-14 13 -25 22t-25 22z" />
    <glyph glyph-name="Edieresis" unicode="&#xcb;" horiz-adv-x="670" 
d="M134 0q-19 0 -33 14t-14 35v602q0 21 14 35t33 14h423q19 0 32 -12.5t13 -32.5q0 -19 -13 -31.5t-32 -12.5h-374v-213h330q20 0 32.5 -14t12.5 -31q0 -19 -12.5 -32t-32.5 -13h-330v-219h379q19 0 32 -12.5t13 -31.5q0 -20 -13 -32.5t-32 -12.5h-428zM430 858
q23 0 39 -15.5t16 -38.5v-15q0 -23 -16 -38t-39 -15t-39.5 15t-16.5 38v15q0 23 16.5 38.5t39.5 15.5zM257 858q23 0 39 -15.5t16 -38.5v-15q0 -23 -16 -38t-39 -15t-39.5 15t-16.5 38v15q0 23 16.5 38.5t39.5 15.5z" />
    <glyph glyph-name="edieresis" unicode="&#xeb;" horiz-adv-x="592" 
d="M274 215q-14 0 -33 0.5t-38.5 1.5t-37 2t-27.5 2q6 -36 21 -64t37.5 -46.5t50.5 -28.5t58 -10q45 0 78 15.5t61 41.5q10 9 22.5 10.5t23 -3t18 -14.5t7.5 -24q0 -20 -14 -32q-38 -36 -84.5 -57.5t-113.5 -21.5q-54 0 -102 20t-83 56t-55.5 86.5t-20.5 112.5
q0 57 19 106.5t52.5 86.5t79.5 58.5t101 21.5q58 0 103.5 -22t76.5 -59t47.5 -85.5t16.5 -100.5q-2 -23 -12.5 -31.5t-36.5 -12.5q-24 -3 -57 -5q-28 -2 -67.5 -3.5t-90.5 -0.5zM292 452q-61 0 -102.5 -41.5t-50.5 -109.5q38 -2 81.5 -3t87.5 -1q41 0 72.5 0.5t61.5 1.5
q-4 31 -15 59t-29.5 49t-45 33t-60.5 12zM206 695q23 0 39.5 -15t16.5 -38v-15q0 -23 -16.5 -38t-39.5 -15t-39 15t-16 38v15q0 23 16 38t39 15zM379 695q23 0 39.5 -15t16.5 -38v-15q0 -23 -16.5 -38t-39.5 -15t-39 15t-16 38v15q0 23 16 38t39 15z" />
    <glyph glyph-name="Edotaccent" unicode="&#x116;" horiz-adv-x="670" 
d="M581 89q20 0 32.5 -12.5t12.5 -31.5q0 -20 -12.5 -32.5t-32.5 -12.5h-416q-19 -1 -31 2t-19.5 9t-12 15t-7.5 19q-10 88 -14 167t-4 147q0 112 6.5 184.5t10.5 102.5q2 10 2 12q4 27 19.5 36t35.5 10h426q19 0 31.5 -13t12.5 -33q0 -19 -12.5 -32t-31.5 -13h-387
q-8 -54 -11.5 -107t-4.5 -106h359q19 0 32 -14t13 -31q0 -19 -13 -32t-32 -13h-358q1 -79 6.5 -138.5t7.5 -82.5h392zM400 790q0 -24 -16.5 -39t-40.5 -15t-40 15t-16 39v14q0 24 16 39t40 15t40.5 -15t16.5 -39v-14z" />
    <glyph glyph-name="edotaccent" unicode="&#x117;" horiz-adv-x="592" 
d="M274 215q-14 0 -33 0.5t-38.5 1.5t-37 2t-27.5 2q6 -36 21 -64t37.5 -46.5t50.5 -28.5t58 -10q45 0 78.5 15.5t61.5 41.5q10 9 22.5 10t23 -3.5t17.5 -14.5t7 -23q0 -19 -14 -33v1q-38 -36 -84.5 -57.5t-113.5 -21.5q-54 0 -102 20t-83 56t-55.5 86.5t-20.5 112.5
q0 57 19 106.5t52.5 86.5t79.5 58.5t101 21.5q58 0 103.5 -22t76.5 -59t47.5 -85.5t16.5 -100.5q-2 -23 -12.5 -31.5t-36.5 -12.5q-24 -3 -57 -5q-28 -2 -67.5 -3.5t-90.5 -0.5zM292 452q-61 0 -102.5 -41.5t-50.5 -109.5q38 -2 81.5 -3t87.5 -1q41 0 72.5 0.5t61.5 1.5
q-4 31 -15 59t-29.5 49t-45 33t-60.5 12zM349 628q0 -24 -16 -39t-40 -15t-40.5 15t-16.5 39v14q0 24 16.5 38.5t40.5 14.5t40 -14.5t16 -38.5v-14z" />
    <glyph glyph-name="Egrave" unicode="&#xc8;" horiz-adv-x="670" 
d="M134 0q-19 0 -33 14t-14 35v602q0 21 14 35t33 14h423q19 0 32 -12.5t13 -32.5q0 -19 -13 -31.5t-32 -12.5h-374v-213h330q20 0 32.5 -14t12.5 -31q0 -19 -12.5 -32t-32.5 -13h-330v-219h379q19 0 32 -12.5t13 -31.5q0 -20 -13 -32.5t-32 -12.5h-428zM345 737
q-30 0 -52 21q-18 17 -37 35t-36 34q-8 8 -12.5 14.5t-4.5 15.5q0 7 6 13.5t15 12t20 9t21 3.5q26 0 43 -26q15 -22 29.5 -44t29.5 -44q6 -15 3.5 -29.5t-25.5 -14.5z" />
    <glyph glyph-name="egrave" unicode="&#xe8;" horiz-adv-x="592" 
d="M274 215q-14 0 -33 0.5t-38.5 1.5t-37 2t-27.5 2q6 -36 21 -64t37.5 -46.5t50.5 -28.5t58 -10q45 0 78 15.5t61 41.5q10 9 22.5 10.5t23 -3t18 -14.5t7.5 -24q0 -19 -14 -33v1q-38 -36 -84.5 -57.5t-113.5 -21.5q-54 0 -102 20t-83 56t-55.5 86.5t-20.5 112.5
q0 57 19 106.5t52.5 86.5t79.5 58.5t101 21.5q58 0 103.5 -22t76.5 -59t47.5 -85.5t16.5 -100.5q-2 -23 -12.5 -31.5t-36.5 -12.5q-24 -3 -57 -5q-28 -2 -67.5 -3.5t-90.5 -0.5zM292 452q-61 0 -102.5 -41.5t-50.5 -109.5q38 -2 81.5 -3t87.5 -1q41 0 72.5 0.5t61.5 1.5
q-4 31 -15 59t-29.5 49t-45 33t-60.5 12zM295 575q-16 0 -28 4.5t-25 16.5q-17 17 -36 35t-37 34q-8 8 -12 14.5t-4 14.5q0 7 6 14t15 12.5t20 9t21 3.5q14 0 24 -7t19 -19q14 -22 29 -44t29 -45q2 -4 4.5 -9.5t2.5 -10.5q0 -11 -8 -17t-20 -6z" />
    <glyph glyph-name="Emacron" unicode="&#x112;" horiz-adv-x="670" 
d="M581 89q20 0 32.5 -12.5t12.5 -31.5q0 -20 -12.5 -32.5t-32.5 -12.5h-416q-19 -1 -31 2t-19.5 9t-12 15t-7.5 19q-10 88 -14 167t-4 147q0 112 6.5 184.5t10.5 102.5q5 28 17.5 44t39.5 14h426q19 0 31.5 -13t12.5 -33q0 -19 -12.5 -32t-31.5 -13h-387q-8 -54 -11.5 -107
t-4.5 -106h359q19 0 32 -14t13 -31q0 -19 -13 -32t-32 -13h-358q1 -79 6.5 -138.5t7.5 -82.5h392zM215 760q-17 0 -29 12.5t-12 28.5q0 17 12 29t29 12h257q17 0 28.5 -12t11.5 -29q0 -16 -11.5 -28.5t-28.5 -12.5h-257z" />
    <glyph glyph-name="emacron" unicode="&#x113;" horiz-adv-x="592" 
d="M274 215q-14 0 -33 0.5t-38.5 1.5t-37 2t-27.5 2q6 -36 21 -64t37.5 -46.5t50.5 -28.5t58 -10q45 0 78.5 15.5t61.5 41.5q10 9 22.5 10t23 -3.5t17.5 -14.5t7 -23q0 -19 -14 -33q-38 -35 -84.5 -56.5t-113.5 -21.5q-54 0 -102 20t-83 56t-55.5 86.5t-20.5 112.5
q0 57 19 106.5t52.5 86.5t79.5 58.5t101 21.5q58 0 103.5 -22t76.5 -59t47.5 -85.5t16.5 -100.5q-2 -23 -12.5 -31.5t-36.5 -12.5q-24 -3 -57 -5q-28 -2 -67.5 -3.5t-90.5 -0.5zM292 452q-61 0 -102.5 -41.5t-50.5 -109.5q38 -2 81.5 -3t87.5 -1q41 0 72.5 0.5t61.5 1.5
q-4 31 -15 59t-29.5 49t-45 33t-60.5 12zM164 598q-17 0 -29 12t-12 29q0 16 12 28.5t29 12.5h257q17 0 29 -12.5t12 -28.5q0 -17 -12 -29t-29 -12h-257z" />
    <glyph glyph-name="Eogonek" unicode="&#x118;" horiz-adv-x="670" 
d="M620 -94q20 -4 28 -12t8 -21q0 -32 -37 -32q-14 0 -35 3.5t-40.5 13t-33.5 26.5t-14 44q0 17 6 35t17 34h-340q-39 -3 -52.5 11t-19.5 34q-11 88 -15 166t-4 146q0 110 7 183t12 104q1 5 1.5 8.5t0.5 5.5q2 28 19 36t35 9h426q19 0 32 -12.5t13 -32.5q0 -19 -13 -31.5
t-32 -12.5l-387 -1q-13 -106 -15 -214h358q20 0 32.5 -14t12.5 -31q0 -19 -12.5 -32t-32.5 -13h-357q1 -44 2.5 -81t4 -66t4 -47.5t2.5 -24.5h393q19 1 32 -13.5t13 -31.5q0 -19 -11.5 -34.5t-23.5 -29.5h1q-10 -11 -18 -21t-8 -18q0 -15 11 -22t30 -11z" />
    <glyph glyph-name="eogonek" unicode="&#x119;" horiz-adv-x="592" 
d="M542 267q0 -20 -13.5 -32t-30.5 -12q-26 -3 -59 -5q-29 -2 -69.5 -3.5t-91.5 -1.5q-13 0 -31 1t-37 2t-37 2.5l-30 2.5q6 -36 21 -63.5t37 -47t50 -29.5t58 -10q45 0 78.5 15.5t60.5 40.5q10 9 22.5 10t23.5 -3.5t18 -14.5t7 -23q0 -18 -14 -32q-27 -26 -63.5 -45.5
t-78.5 -27.5q-8 -3 -15.5 -10.5t-13.5 -16.5t-9.5 -19t-3.5 -17q0 -14 11.5 -21.5t29.5 -11.5q36 -8 36 -33q0 -32 -37 -32q-14 0 -35.5 3.5t-41 13t-33.5 26.5t-14 44q0 20 4.5 37.5t20.5 34.5q-47 7 -86.5 30t-68.5 58.5t-45.5 82t-16.5 101.5q0 57 19 106.5t52.5 86
t80 58t101.5 21.5q58 0 103 -22t76.5 -59t48 -85t16.5 -100zM296 450q-30 0 -55.5 -11t-45.5 -31t-33.5 -47.5t-19.5 -60.5l168 -4h72.5t62.5 2q-3 31 -14 58.5t-29.5 48.5t-45 33t-60.5 12z" />
    <glyph glyph-name="Eth" unicode="&#xd0;" horiz-adv-x="870" 
d="M409 704q83 0 151.5 -27t118 -74t77 -111.5t27.5 -139.5q0 -74 -27.5 -138.5t-77 -112t-118 -74.5t-151.5 -27h-173q-27 0 -36 16t-13 41q-8 70 -12.5 132.5t-6.5 119.5q-20 0 -32 -1t-22.5 -2t-21.5 -2.5t-28 -2.5q-20 -1 -37 11t-16 32q-1 30 16.5 40.5t39.5 14.5
q16 0 39 4.5t62 3.5q2 85 8 144.5t10 87.5q4 36 21.5 53.5t51.5 11.5h150zM683 350q-3 68 -33 123q-13 24 -32.5 47t-48.5 42.5t-68.5 33t-91.5 17.5h-129q-8 -51 -10.5 -103t-3.5 -104q55 -2 98.5 -3.5t79.5 -3.5q22 -4 40 -14.5t17 -40.5q1 -20 -16 -32t-37 -11
q-35 4 -81.5 5.5t-99.5 2.5q2 -76 6 -131.5t7 -87.5h129q63 0 113.5 20t86.5 55t55 82.5t19 102.5z" />
    <glyph glyph-name="eth" unicode="&#xf0;" horiz-adv-x="633" 
d="M309 595q-26 -13 -52.5 -26t-52.5 -26q-9 -3 -17 -3q-17 0 -27 10.5t-10 27.5q0 13 6.5 21t16.5 13l93 43q-1 2 -2 3t-1 3v-1q-4 7 -6.5 14t-2.5 15q0 20 12.5 32.5t32.5 12.5q15 0 24.5 -6.5t14.5 -14.5l13 -19q18 8 38 18.5t39 18.5q10 4 17 4q15 0 26 -11t11 -27
q0 -13 -6.5 -21t-17.5 -13q-19 -9 -33 -15t-33 -15q23 -35 46 -68t46 -67q39 -58 63.5 -117t24.5 -126q0 -53 -19 -101.5t-54 -85.5t-84.5 -58.5t-111.5 -21.5q-56 0 -104 21t-82.5 56.5t-54 83t-19.5 100.5q0 54 19.5 99t52.5 77t76.5 49.5t91.5 17.5q38 0 67.5 -8.5
t54.5 -21.5zM475 247q0 34 -13 64.5t-36.5 53t-55.5 35.5t-70 13t-68 -13t-51 -35.5t-32 -53t-11 -65.5q0 -34 12.5 -65t35 -55t54 -38t68.5 -14t68 14t53 37.5t34 55t12 66.5z" />
    <glyph glyph-name="Gbreve" unicode="&#x11e;" horiz-adv-x="784" 
d="M695 126q0 -32 -30 -54q-49 -35 -113 -60.5t-142 -25.5q-83 0 -149 28.5t-112 77.5t-71 115.5t-25 143.5q0 72 25.5 137.5t71.5 116t111 80t144 29.5t135.5 -20.5t104.5 -54.5q8 -7 14 -16.5t6 -22.5q0 -20 -14.5 -34.5t-34.5 -14.5q-13 0 -30 12q-35 27 -78 43.5
t-105 16.5q-55 0 -101 -21.5t-79 -58.5t-51.5 -86.5t-18.5 -105.5q0 -59 18 -109.5t52 -87.5t82 -57.5t108 -20.5q55 0 104 18.5t84 44.5v167q-64 -2 -101 -7.5t-62 -5.5q-20 -1 -37 9.5t-17 30.5q-2 29 15.5 40.5t40.5 15.5q103 13 195 15q34 0 45 -14.5t14 -32.5zM401 749
q-95 0 -138 75q-5 8 -7.5 19.5t-2.5 19.5q0 17 10 28t27 11q14 0 21.5 -6t12.5 -14q9 -23 27.5 -37.5t49.5 -14.5q30 0 48.5 14.5t27.5 37.5q5 8 12.5 14t21.5 6q17 0 27 -11t10 -28q0 -8 -2.5 -19.5t-7.5 -19.5q-43 -75 -137 -75z" />
    <glyph glyph-name="gbreve" unicode="&#x11f;" horiz-adv-x="664" 
d="M395 -151q-20 -5 -42 -7t-45 -2q-58 0 -113.5 16.5t-103.5 43.5q-10 7 -17 17.5t-7 23.5q0 11 7 20.5t17 15.5t21.5 6.5t21.5 -6.5q38 -26 81.5 -39.5t91.5 -13.5q67 0 109.5 35t62.5 90q4 16 7 34t8 54q-15 -20 -37.5 -38t-49 -32t-56 -22t-59.5 -8q-47 0 -91.5 17
t-79 49.5t-55.5 78.5t-21 104q0 57 21 103t55.5 78t79 49.5t91.5 17.5q68 0 113 -25.5t78 -64.5q-2 16 -3.5 22.5t-2.5 7.5q-5 22 7 39t32 18q28 2 39.5 -13t16.5 -35q6 -49 11 -111t5 -127t-8.5 -129t-30 -118t-59 -93.5t-95.5 -55.5zM307 123q34 0 65.5 12t56 33.5
t39 51.5t14.5 66q0 37 -14.5 67t-39 51t-56 32.5t-65.5 11.5t-64 -11.5t-52.5 -32.5t-35.5 -51t-13 -67q0 -36 13.5 -66t36 -51.5t52.5 -33.5t63 -12zM319 577q-96 0 -137 75q-5 8 -8 19.5t-3 19.5q0 17 10 28t27 11q15 0 22 -6t12 -14q10 -23 28 -37.5t49 -14.5t49 14.5
t28 37.5q5 8 12 14t22 6q17 0 27 -11t10 -28q0 -8 -3 -19.5t-8 -19.5q-41 -75 -137 -75z" />
    <glyph glyph-name="Gcommaaccent" unicode="&#x122;" horiz-adv-x="784" 
d="M695 126q0 -32 -30 -54q-49 -35 -113 -60.5t-142 -25.5q-83 0 -149 28.5t-112 77.5t-71 115.5t-25 143.5q0 72 25.5 137.5t71.5 116t111 80t144 29.5t135.5 -20.5t104.5 -54.5q8 -7 14 -16.5t6 -22.5q0 -20 -14.5 -34.5t-34.5 -14.5q-13 0 -30 12q-35 27 -78 43.5
t-105 16.5q-55 0 -101 -21.5t-79 -58.5t-51.5 -86.5t-18.5 -105.5q0 -59 18 -109.5t52 -87.5t82 -57.5t108 -20.5q55 0 104 18.5t84 44.5v167q-61 -5 -100 -8t-63 -5q-20 -2 -37 9t-17 31q-2 29 15.5 40.5t40.5 15.5q103 13 195 15q34 0 45 -14.5t14 -32.5zM340 -187
q40 12 44 38q-17 5 -28 16.5t-11 31.5v5q0 22 15.5 36.5t39.5 14.5t39.5 -16t15.5 -44v-5q0 -34 -8.5 -56t-25.5 -38q-15 -15 -38.5 -23.5t-38.5 -8.5q-13 0 -20.5 7t-7.5 16q0 20 24 26z" />
    <glyph glyph-name="gcommaaccent" unicode="&#x123;" horiz-adv-x="664" 
d="M395 -151q-20 -5 -42 -7t-45 -2q-58 0 -113.5 16.5t-103.5 43.5q-10 7 -17 17.5t-7 23.5q0 11 7 20.5t17 15.5t21.5 6.5t21.5 -6.5q38 -26 81.5 -39.5t91.5 -13.5q67 0 109.5 35t62.5 90q4 16 7 34t8 54q-15 -20 -37.5 -38t-49 -32t-56 -22t-59.5 -8q-47 0 -91.5 17
t-79 49.5t-55.5 78.5t-21 104q0 57 21 103t55.5 78t79 49.5t91.5 17.5q68 0 113 -25.5t78 -64.5l-6 30q-5 23 7.5 40t32.5 17q27 2 38.5 -13.5t16.5 -34.5q6 -49 11 -111t5 -127t-8.5 -129t-30 -118t-59 -93.5t-95.5 -55.5zM307 123q34 0 65.5 12t56 33.5t39 51.5t14.5 66
q0 37 -14.5 67t-39 51t-56 32.5t-65.5 11.5t-64 -11.5t-52.5 -32.5t-35.5 -51t-13 -67q0 -36 13.5 -66t36 -51.5t52.5 -33.5t63 -12zM378 716q-41 -13 -44 -38q17 -5 28 -16.5t11 -31.5v-5q0 -22 -15 -36.5t-39 -14.5t-40 16t-16 44v5q0 33 9 55.5t26 38.5q15 15 38.5 23.5
t37.5 8.5t21.5 -7.5t7.5 -15.5q0 -9 -6.5 -16.5t-18.5 -9.5z" />
    <glyph glyph-name="Gdotaccent" unicode="&#x120;" horiz-adv-x="784" 
d="M695 126q0 -32 -30 -54q-49 -35 -113 -60.5t-142 -25.5q-83 0 -149 28.5t-112 77.5t-71 115.5t-25 143.5q0 72 25.5 137.5t71.5 116t111 80t144 29.5t135.5 -20.5t104.5 -54.5q8 -7 14 -16.5t6 -22.5q0 -20 -14.5 -34.5t-34.5 -14.5q-13 0 -30 12q-35 27 -78 43.5
t-105 16.5q-55 0 -101 -21.5t-79 -58.5t-51.5 -86.5t-18.5 -105.5q0 -59 18 -109.5t52 -87.5t82 -57.5t108 -20.5q55 0 104 18.5t84 44.5v167q-4 0 -29 -2.5t-54 -4.5t-53.5 -4t-26.5 -2q-20 -1 -37 9.5t-17 30.5q-2 29 15.5 40.5t40.5 15.5q103 13 195 15q34 0 45 -14.5
t14 -32.5zM457 800q0 -24 -16 -39t-40 -15q-25 0 -41 15t-16 39v14q0 24 16 38.5t41 14.5q24 0 40 -14.5t16 -38.5v-14z" />
    <glyph glyph-name="gdotaccent" unicode="&#x121;" horiz-adv-x="664" 
d="M395 -151q-20 -5 -42 -7t-45 -2q-58 0 -113.5 16.5t-103.5 43.5q-10 7 -17 17.5t-7 23.5q0 11 7 20.5t17 15.5t21.5 6.5t21.5 -6.5q38 -26 81.5 -39.5t91.5 -13.5q67 0 109.5 35t62.5 90q4 16 7 34t8 54q-15 -20 -37.5 -38t-49 -32t-56 -22t-59.5 -8q-47 0 -91.5 17
t-79 49.5t-55.5 78.5t-21 104q0 57 21 103t55.5 78t79 49.5t91.5 17.5q68 0 113 -25.5t78 -64.5q-2 16 -3.5 22.5t-2.5 7.5q-5 22 7 39t32 18q28 2 39.5 -13t16.5 -35q6 -49 11 -111t5 -127t-8.5 -129t-30 -118t-59 -93.5t-95.5 -55.5zM307 123q34 0 65.5 12t56 33.5
t39 51.5t14.5 66q0 37 -14.5 67t-39 51t-56 32.5t-65.5 11.5t-64 -11.5t-52.5 -32.5t-35.5 -51t-13 -67q0 -36 13.5 -66t36 -51.5t52.5 -33.5t63 -12zM375 628q0 -24 -16 -39t-40 -15t-40 15t-16 39v14q0 24 16 38.5t40 14.5t40 -14.5t16 -38.5v-14z" />
    <glyph glyph-name="Hbar" unicode="&#x126;" horiz-adv-x="856" 
d="M785 572q23 -3 39 -13.5t15 -35.5q0 -18 -15.5 -28t-36.5 -9q-2 0 -23.5 1t-63.5 3v-446q0 -20 -14 -34.5t-34 -14.5t-34.5 14.5t-14.5 34.5v261q-39 4 -91.5 5t-106 0.5t-101.5 -2t-77 -4.5q0 -64 0.5 -130t0.5 -130q0 -20 -14.5 -34.5t-34.5 -14.5q-19 0 -33.5 14.5
t-14.5 34.5v448q-25 -2 -43 -3t-30 -2q-5 -1 -9 -1h-5q-21 -1 -34.5 8.5t-14.5 27.5q-2 26 13 36.5t39 13.5q22 2 41 3.5t43 2.5v81q0 20 14.5 34.5t33.5 14.5q20 0 34.5 -14.5t14.5 -34.5v-76q100 4 188.5 4.5t186.5 -3.5v75q0 20 14.5 34.5t34.5 14.5t34 -14.5t14 -34.5
v-80q38 -2 76 -6q2 0 4 -0.5t4 -0.5h1zM603 496q-93 4 -188 4.5t-187 -3.5v-96q94 7 191.5 7t183.5 -5v93z" />
    <glyph glyph-name="hbar" unicode="&#x127;" horiz-adv-x="709" 
d="M420 536q48 0 85.5 -15.5t64 -43.5t40 -67t13.5 -86v-281q0 -20 -13 -34t-33 -14q-21 0 -34.5 14t-13.5 34v262q0 66 -33.5 104t-96.5 39q-24 0 -51.5 -8t-50.5 -30t-37.5 -60t-11.5 -99q2 -49 7.5 -95.5t13.5 -101.5q3 -18 -6.5 -37.5t-34.5 -21.5q-14 -1 -23.5 3.5
t-16 12.5t-10.5 18.5t-5 21.5q-10 80 -16.5 143.5t-9.5 120t-2.5 112.5t4.5 121q-25 -3 -44.5 -5.5t-21.5 -3.5q-20 -5 -36 6t-16 30q-1 14 2.5 23t10.5 14.5t16.5 8.5t20.5 5q24 5 40.5 8t35.5 5q1 9 1 18.5t2 20.5q0 2 0.5 3t0.5 2q2 26 15 42t42 14q19 -2 29.5 -18
t11.5 -35q-1 -2 -1.5 -12t-1.5 -16q-1 -7 -2 -9t-1 -9q20 -2 43 -6.5t35 -7.5q2 0 2 -0.5t1 -0.5q19 -5 33 -14t12 -36q-1 -19 -16.5 -30.5t-35.5 -5.5q-2 1 -24 5.5t-56 7.5v-8q-1 -14 -1.5 -24.5t-1 -21.5t-1 -24.5t-0.5 -33.5q30 43 71 69.5t106 26.5z" />
    <glyph glyph-name="Iacute" unicode="&#xcd;" horiz-adv-x="423" 
d="M212 737q-23 0 -26 15t5 29q14 22 28.5 44t29.5 44q17 26 43 26q10 0 21 -3.5t20 -9t15 -12t6 -13.5q0 -9 -4.5 -15.5t-12.5 -14.5l-73 -69q-22 -21 -52 -21zM358 101q20 2 37.5 -10t16.5 -33q1 -14 -4 -23.5t-13 -15.5t-19 -9.5t-22 -4.5q-20 -3 -35 -4.5t-31 -3
t-34.5 -2t-44.5 -0.5q-41 0 -73.5 4t-52.5 6q-11 1 -21.5 4.5t-19 9.5t-13 15.5t-3.5 23.5q-1 21 16.5 33t37.5 10q31 -2 50 -3.5t41 -2.5v515q-21 -1 -41.5 -2.5t-49.5 -3.5q-19 1 -37 12t-17 31q-1 14 3.5 23.5t12.5 15.5t18.5 9t21.5 5q3 1 15 2.5t30 3t39.5 3t42.5 1.5
q61 0 100.5 -4t45.5 -6q11 -2 21.5 -5t19 -9t13 -15.5t3.5 -23.5q1 -21 -16.5 -33t-37.5 -10q-31 3 -49.5 4.5t-41.5 2.5v-517q20 1 42 2.5t49 4.5z" />
    <glyph glyph-name="iacute" unicode="&#xed;" horiz-adv-x="263" 
d="M81 479q0 20 13 34t33 14q21 0 34.5 -13.5t13.5 -34.5v-436q0 -20 -13 -34t-34 -14q-20 0 -33.5 14t-13.5 34v436zM126 575q-12 0 -20 6t-8 17q0 5 2.5 10.5t4.5 9.5q14 23 29 45t29 44q18 26 43 26q10 0 21 -3.5t20 -9t15 -12.5t6 -14q0 -8 -4 -14.5t-12 -14.5l-73 -69
q-13 -12 -25 -16.5t-28 -4.5z" />
    <glyph glyph-name="Ibreve" unicode="&#x12c;" horiz-adv-x="411" 
d="M202 739q-96 0 -137 76q-5 8 -8 19t-3 20q0 17 10 28t27 11q15 0 22.5 -6t11.5 -15q10 -23 28 -37t49 -14t49 14t28 37q5 9 12.5 15t21.5 6q17 0 27 -11t10 -28q0 -9 -3 -20t-8 -19q-41 -76 -137 -76zM347 101q20 2 37.5 -10t16.5 -33q1 -14 -4 -23.5t-13 -15.5t-19 -9.5
t-22 -4.5q-20 -3 -35 -4.5t-31 -3t-34.5 -2t-44.5 -0.5q-41 0 -73.5 4t-52.5 6q-11 1 -21.5 4.5t-19 9.5t-13 15.5t-3.5 23.5q-1 21 16.5 33t37.5 10q31 -2 50 -3.5t41 -2.5v515q-21 -1 -41.5 -2.5t-49.5 -3.5q-19 1 -37 12t-17 31q-1 14 3.5 23.5t12.5 15.5t18.5 9t21.5 5
q3 1 15 2.5t30 3t39.5 3t42.5 1.5q61 0 100.5 -4t45.5 -6q11 -2 21.5 -5t19 -9t13 -15.5t3.5 -23.5q1 -21 -16.5 -33t-37.5 -10q-31 3 -49.5 4.5t-41.5 2.5v-517q20 1 42 2.5t49 4.5z" />
    <glyph glyph-name="ibreve" unicode="&#x12d;" horiz-adv-x="263" 
d="M81 479q0 20 13 34t33 14q21 0 34.5 -13.5t13.5 -34.5v-436q0 -20 -13 -34t-34 -14q-20 0 -33.5 14t-13.5 34v436zM128 577q-96 0 -137 75q-5 8 -7.5 19.5t-2.5 19.5q0 17 10 28t27 11q14 0 21.5 -6t12.5 -14q9 -23 27.5 -37.5t48.5 -14.5q31 0 49.5 14.5t27.5 37.5
q5 8 12.5 14t21.5 6q17 0 27 -11t10 -28q0 -8 -3 -19.5t-8 -19.5q-41 -75 -137 -75z" />
    <glyph glyph-name="Icircumflex" unicode="&#xce;" horiz-adv-x="436" 
d="M355 101q20 2 37 -10t16 -33q1 -14 -3.5 -23.5t-13 -15.5t-19 -9.5t-21.5 -4.5q-29 -5 -60.5 -7.5t-84.5 -2.5q-41 0 -73 4t-53 6q-11 1 -22 4.5t-19 9.5t-13 15.5t-4 23.5q-1 21 17 33t38 10q31 -2 50 -3.5t40 -2.5v515q-20 -1 -40.5 -2.5t-49.5 -3.5q-9 0 -19 3.5
t-18 9t-13 13t-5 17.5q-1 14 3.5 23.5t13 15.5t19 9t21.5 5q3 1 15 2.5t30 3t39.5 3t42.5 1.5q61 0 100 -4t46 -6q11 -2 21.5 -5t18.5 -9t12.5 -15.5t3.5 -23.5q1 -21 -16 -33t-37 -10q-31 3 -50 4.5t-42 2.5v-517q21 1 43 2.5t49 4.5zM164 758q-14 -14 -25.5 -17.5
t-27.5 -3.5q-21 0 -25.5 15t5.5 29l69 85q10 11 20 18.5t27 7.5h18q17 0 27 -7.5t19 -18.5l69 -85q12 -14 6 -29t-26 -15q-17 0 -29 3.5t-26 17.5q-14 13 -25 22.5t-25 21.5z" />
    <glyph glyph-name="icircumflex" unicode="&#xee;" horiz-adv-x="263" 
d="M81 479q0 20 13 34t33 14q21 0 34.5 -13.5t13.5 -34.5v-436q0 -20 -13 -34t-34 -14q-20 0 -33.5 14t-13.5 34v436zM77 596q-14 -14 -25.5 -17.5t-28.5 -3.5q-20 0 -25.5 14.5t6.5 28.5l69 86q10 11 19.5 18t27.5 7h17q17 0 27 -7t20 -18l69 -86q13 -14 6 -28.5t-27 -14.5
q-16 0 -28 3.5t-26 17.5q-14 13 -25.5 22t-25.5 22z" />
    <glyph glyph-name="Idieresis" unicode="&#xcf;" horiz-adv-x="424" 
d="M295 858q23 0 39 -15.5t16 -38.5v-15q0 -23 -16 -38t-39 -15q-24 0 -40 15t-16 38v15q0 23 16 38.5t40 15.5zM122 858q23 0 39 -15.5t16 -38.5v-15q0 -23 -16 -38t-39 -15q-24 0 -40 15t-16 38v15q0 23 16 38.5t40 15.5zM355 101q20 2 37 -10t16 -33q1 -14 -3.5 -23.5
t-13 -15.5t-19 -9.5t-21.5 -4.5q-29 -5 -60.5 -7.5t-84.5 -2.5q-41 0 -73 4t-53 6q-11 1 -22 4.5t-19 9.5t-13 15.5t-4 23.5q-1 21 17 33t38 10q31 -2 50 -3.5t40 -2.5v515q-20 -1 -40.5 -2.5t-49.5 -3.5q-9 0 -19 3.5t-18 9t-13 13t-5 17.5q-1 14 3.5 23.5t13 15.5t19 9
t21.5 5q3 1 15 2.5t30 3t39.5 3t42.5 1.5q61 0 100 -4t46 -6q11 -2 21.5 -5t18.5 -9t12.5 -15.5t3.5 -23.5q1 -21 -16 -33t-37 -10q-31 3 -50 4.5t-42 2.5v-517q21 1 43 2.5t49 4.5z" />
    <glyph glyph-name="idieresis" unicode="&#xef;" horiz-adv-x="263" 
d="M81 479q0 20 13 34t33 14q21 0 34.5 -13.5t13.5 -34.5v-436q0 -20 -13 -34t-34 -14q-20 0 -33.5 14t-13.5 34v436zM215 695q23 0 39 -15t16 -38v-15q0 -23 -16 -38t-39 -15t-39.5 15t-16.5 38v15q0 23 16.5 38t39.5 15zM42 695q23 0 39 -15t16 -38v-15q0 -23 -16 -38
t-39 -15t-39.5 15t-16.5 38v15q0 23 16.5 38t39.5 15z" />
    <glyph glyph-name="Idotaccent" unicode="&#x130;" horiz-adv-x="423" 
d="M266 790q0 -24 -16 -39t-40 -15t-40 15t-16 39v14q0 24 16 39t40 15t40 -15t16 -39v-14zM347 101q20 2 37.5 -10t16.5 -33q1 -14 -4 -23.5t-13 -15.5t-19 -9.5t-22 -4.5q-20 -3 -35 -4.5t-31 -3t-34.5 -2t-44.5 -0.5q-41 0 -73.5 4t-52.5 6q-11 1 -21.5 4.5t-19 9.5
t-13 15.5t-3.5 23.5q-1 21 16.5 33t37.5 10q31 -2 50 -3.5t41 -2.5v515q-21 -1 -41.5 -2.5t-49.5 -3.5q-19 1 -37 12t-17 31q-1 14 3.5 23.5t12.5 15.5t18.5 9t21.5 5q3 1 15 2.5t30 3t39.5 3t42.5 1.5q61 0 100.5 -4t45.5 -6q11 -2 21.5 -5t19 -9t13 -15.5t3.5 -23.5
q1 -21 -16.5 -33t-37.5 -10q-31 3 -49.5 4.5t-41.5 2.5v-517q20 1 42 2.5t49 4.5z" />
    <glyph glyph-name="dotlessi" unicode="&#x131;" horiz-adv-x="263" 
d="M81 479q0 20 13 34t33 14q21 0 34.5 -13.5t13.5 -34.5v-436q0 -20 -13 -34t-34 -14q-20 0 -33.5 14t-13.5 34v436z" />
    <glyph glyph-name="Igrave" unicode="&#xcc;" horiz-adv-x="411" 
d="M202 737q-30 0 -52 21q-18 17 -37 35t-36 34q-8 8 -12.5 14.5t-4.5 15.5q0 7 6 13.5t15 12t20 9t22 3.5q25 0 42 -26q15 -22 29.5 -44t29.5 -44q2 -4 4 -10t2 -11q0 -10 -7.5 -16.5t-20.5 -6.5zM358 101q20 2 37.5 -10t16.5 -33q1 -14 -4 -23.5t-13 -15.5t-19 -9.5
t-22 -4.5q-20 -3 -35 -4.5t-31 -3t-34.5 -2t-44.5 -0.5q-41 0 -73.5 4t-52.5 6q-11 1 -21.5 4.5t-19 9.5t-13 15.5t-3.5 23.5q-1 21 16.5 33t37.5 10q31 -2 50 -3.5t41 -2.5v515q-21 -1 -41.5 -2.5t-49.5 -3.5q-19 1 -37 12t-17 31q-1 14 3.5 23.5t12.5 15.5t18.5 9t21.5 5
q3 1 15 2.5t30 3t39.5 3t42.5 1.5q61 0 100.5 -4t45.5 -6q11 -2 21.5 -5t19 -9t13 -15.5t3.5 -23.5q1 -21 -16.5 -33t-37.5 -10q-31 3 -49.5 4.5t-41.5 2.5v-517q20 1 42 2.5t49 4.5z" />
    <glyph glyph-name="igrave" unicode="&#xec;" horiz-adv-x="263" 
d="M81 479q0 20 13 34t33 14q21 0 34.5 -13.5t13.5 -34.5v-436q0 -20 -13 -34t-34 -14q-20 0 -33.5 14t-13.5 34v436zM130 575q-15 0 -27.5 4.5t-24.5 16.5q-18 17 -37 35t-36 34q-8 8 -12.5 14.5t-4.5 14.5q0 7 6 14t15 12.5t20 9t22 3.5q14 0 24 -7t18 -19
q15 -22 29.5 -44t29.5 -45q2 -4 4 -9.5t2 -10.5q0 -23 -28 -23z" />
    <glyph glyph-name="Imacron" unicode="&#x12a;" horiz-adv-x="418" 
d="M77 760q-18 0 -29.5 12.5t-11.5 28.5q0 17 11.5 29t29.5 12h256q18 0 29.5 -12t11.5 -29q0 -16 -11.5 -28.5t-29.5 -12.5h-256zM352 101q20 2 37.5 -10t16.5 -33q1 -14 -4 -23.5t-13 -15.5t-19 -9.5t-22 -4.5q-20 -3 -35 -4.5t-31 -3t-34.5 -2t-44.5 -0.5q-41 0 -73.5 4
t-52.5 6q-11 1 -21.5 4.5t-19 9.5t-13 15.5t-3.5 23.5q-1 21 16.5 33t37.5 10q31 -2 50 -3.5t41 -2.5v515q-21 -1 -41.5 -2.5t-49.5 -3.5q-19 1 -37 12t-17 31q-1 14 3.5 23.5t12.5 15.5t18.5 9t21.5 5q3 1 15 2.5t30 3t39.5 3t42.5 1.5q61 0 100.5 -4t45.5 -6
q11 -2 21.5 -5t19 -9t13 -15.5t3.5 -23.5q1 -21 -16.5 -33t-37.5 -10q-31 3 -49.5 4.5t-41.5 2.5v-517q20 1 42 2.5t49 4.5z" />
    <glyph glyph-name="imacron" unicode="&#x12b;" horiz-adv-x="263" 
d="M81 479q0 20 13 34t33 14q21 0 34.5 -13.5t13.5 -34.5v-436q0 -20 -13 -34t-34 -14q-20 0 -33.5 14t-13.5 34v436zM0 598q-17 0 -29 12t-12 29q0 16 12 28.5t29 12.5h257q17 0 29 -12.5t12 -28.5q0 -17 -12 -29t-29 -12h-257z" />
    <glyph glyph-name="Iogonek" unicode="&#x12e;" horiz-adv-x="437" 
d="M356 97q20 1 36.5 -11t15.5 -32q1 -29 -16.5 -39.5t-39.5 -14.5q-1 0 -3 -0.5t-4 -0.5q-9 -1 -29.5 -2.5t-49.5 -3.5q-13 -1 -23 -8t-16.5 -16t-10 -18.5t-3.5 -16.5q0 -14 11.5 -21.5t28.5 -11.5q37 -8 37 -33q0 -32 -37 -32q-15 0 -36 3.5t-41 13t-34 26.5t-14 44
q0 18 6 36.5t18 33.5q-23 2 -38 3t-26 3q-3 1 -5.5 1h-3.5q-22 4 -40 14.5t-17 39.5q-1 20 16.5 32t37.5 11q32 -3 51 -4.5t40 -2.5v516q-20 -1 -41 -2.5t-50 -3.5q-18 1 -36.5 12t-17.5 30q0 15 4.5 24.5t12.5 15.5t18.5 9t21.5 5q4 0 9 1q15 2 47.5 5t70.5 3q52 0 88 -3
t50 -5q2 0 4.5 -0.5t3.5 -0.5q22 -4 39.5 -14t16.5 -40q1 -20 -16 -32t-37 -10q-7 1 -13 1t-11 1q-21 2 -35.5 3t-32.5 1v-516q21 1 43 2.5t49 4.5h1z" />
    <glyph glyph-name="iogonek" unicode="&#x12f;" horiz-adv-x="263" 
d="M175 40q0 -14 -4 -22.5t-16 -19.5v1q-21 -18 -30 -31.5t-9 -28.5q0 -14 11.5 -21.5t28.5 -11.5q36 -8 36 -33q0 -15 -9.5 -23.5t-26.5 -8.5q-15 0 -36 3.5t-40.5 13t-33.5 26t-14 43.5q0 28 13 49t39 43q-2 4 -2.5 7.5t-0.5 7.5v445q0 20 13 34t33 14q21 0 34.5 -13.5
t13.5 -34.5v-439zM74 670q0 23 15 36t38 13t39 -13t16 -36v-13q0 -22 -16 -35.5t-39 -13.5t-38 13.5t-15 35.5v13z" />
    <glyph glyph-name="Kcommaaccent" unicode="&#x136;" horiz-adv-x="714" 
d="M657 73q13 -14 13 -33t-13.5 -35t-35.5 -16q-9 0 -15.5 2t-13 8t-14.5 17t-21 29q-6 8 -13 18.5t-17 24.5q-21 28 -46 61t-50.5 65t-50.5 61.5t-47 51.5q-22 -21 -46 -47q-21 -22 -47 -50.5t-52 -59.5q4 -42 6 -71t4 -49q1 -21 -9.5 -38t-30.5 -17q-15 -1 -25.5 3.5
t-16.5 12.5t-9.5 18.5t-5.5 22.5q-8 84 -12 169t-4 168q0 72 3.5 137.5t13.5 121.5q5 26 15.5 42t40.5 14q20 -2 31 -18.5t10 -36.5v-4q-1 -10 -4 -42.5t-6 -76.5t-5.5 -95t-2.5 -98v-13.5v-8v-7.5v-11q27 29 63.5 67t77 79t81.5 81.5t76 75.5q10 9 23 22l25.5 25.5l24 24
l18.5 18.5l-1 -1q7 10 16.5 14t20.5 4q18 0 33 -13t15 -35q0 -17 -15 -34l-237 -234q9 -8 30.5 -31t54.5 -62t76 -94t94 -127zM293 -181q39 12 43 38q-17 5 -27.5 16.5t-10.5 31.5v5q0 22 15 36.5t39 14.5t39.5 -16t15.5 -44v-5q0 -34 -8.5 -56t-25.5 -38
q-15 -15 -38.5 -23.5t-37.5 -8.5t-21.5 7t-7.5 16q0 20 25 26z" />
    <glyph glyph-name="kcommaaccent" unicode="&#x137;" horiz-adv-x="568" 
d="M526 72q14 -13 14 -32q0 -21 -12.5 -33t-29.5 -12q-24 0 -44 21q-4 3 -17 20t-30.5 41t-37 51.5t-36.5 52t-28.5 41.5t-12.5 21q-1 -1 -33.5 -35.5t-86.5 -91.5q2 -16 4 -30.5t4 -31.5q2 -19 -7 -38t-34 -21q-29 -2 -40.5 15.5t-14.5 40.5q-15 113 -21.5 202t-6.5 165
q0 74 4.5 137.5t12.5 127.5q2 12 5.5 22.5t9.5 18.5t16 12t25 3q20 -1 30.5 -18t9.5 -37v-3q-1 -9 -3.5 -39t-5 -68.5t-4 -81t-1.5 -77.5q1 -44 1.5 -96.5t4.5 -102.5q79 88 133.5 144t88.5 89q40 39 64 59q23 19 42 19q20 0 29.5 -12t9.5 -30q0 -20 -18 -36
q-23 -21 -49 -46q-23 -21 -51.5 -49.5t-59.5 -60.5q2 -3 6.5 -9.5l13.5 -19.5t23.5 -32.5t36.5 -47.5q28 -36 46 -58t29 -34q12 -14 20 -20h1zM230 -186q40 12 44 38q-17 5 -28 16.5t-11 31.5v5q0 22 15.5 36.5t39.5 14.5t39.5 -16t15.5 -44v-5q0 -34 -8.5 -56t-25.5 -38
q-15 -15 -38.5 -23.5t-38.5 -8.5q-13 0 -20.5 7t-7.5 16q0 20 24 26z" />
    <glyph glyph-name="Lacute" unicode="&#x139;" horiz-adv-x="619" 
d="M537 90q19 0 31.5 -13.5t12.5 -31.5q0 -20 -12.5 -32.5t-31.5 -12.5h-384q-21 -1 -39.5 8t-20.5 38q0 2 -0.5 6t-1.5 9q-4 32 -11 104t-7 178q0 66 4 142t14 163q3 23 15 40.5t42 15.5q20 -1 31.5 -18.5t9.5 -38.5q0 -2 -3 -28t-6.5 -69.5t-6 -100t-2.5 -119.5
q0 -59 3.5 -120t12.5 -120h350zM148 737q-22 -1 -26 14.5t4 29.5q15 22 29.5 44t29.5 44q16 26 43 26q10 0 21 -3.5t20 -9t15 -12t6 -13.5q0 -9 -4.5 -15.5t-12.5 -14.5l-73 -69q-22 -21 -52 -21z" />
    <glyph glyph-name="lacute" unicode="&#x13a;" horiz-adv-x="422" 
d="M207 757q-22 0 -25.5 15t4.5 29q14 22 29 44t29 45q9 13 19 19.5t24 6.5q10 0 21 -3.5t20 -9t15 -12.5t6 -14q0 -9 -4.5 -15t-11.5 -14l-73 -69q-13 -12 -25 -17t-28 -5zM347 101q20 2 37.5 -10t16.5 -33q1 -14 -4 -23.5t-13 -15.5t-19 -9.5t-22 -4.5q-20 -3 -35 -4.5
t-31 -3t-34.5 -2t-44.5 -0.5q-41 0 -73.5 4t-52.5 6q-11 1 -21.5 4.5t-19 9.5t-13 15.5t-3.5 23.5q-1 21 16.5 33t37.5 10q31 -2 50 -3.5t41 -2.5v515q-21 -1 -41.5 -2.5t-49.5 -3.5q-19 1 -37 12t-17 31q-1 14 3.5 23.5t12.5 15.5t18.5 9t21.5 5q3 1 15 2.5t30 3t39.5 3
t42.5 1.5q61 0 100.5 -4t45.5 -6q11 -2 21.5 -5t19 -9t13 -15.5t3.5 -23.5q1 -21 -16.5 -33t-37.5 -10q-31 3 -49.5 4.5t-41.5 2.5v-517q20 1 42 2.5t49 4.5z" />
    <glyph glyph-name="Lcaron" unicode="&#x13d;" horiz-adv-x="619" 
d="M537 90q19 0 31.5 -13.5t12.5 -31.5q0 -20 -12.5 -32.5t-31.5 -12.5h-384q-16 -2 -26.5 1.5t-17.5 11.5t-11 20.5t-7 27.5q-4 32 -11 104t-7 178q0 66 4 142t14 163q3 22 15 39.5t41 16.5q21 0 32.5 -17.5t9.5 -39.5q0 -2 -3 -28t-6.5 -69.5t-6 -100t-2.5 -119.5
q0 -59 3.5 -120t12.5 -120h350zM262 662q3 40 42 40h15q14 0 22.5 -7t8.5 -23q0 -11 -6 -26h1q-8 -26 -17 -51.5t-17 -51.5q-5 -14 -11 -20.5t-20 -6.5q-13 0 -21 7.5t-6 25.5z" />
    <glyph glyph-name="lcaron" unicode="&#x13e;" horiz-adv-x="505" 
d="M422 692q5 40 43 40h15q14 0 22.5 -7t8.5 -23q0 -11 -6 -26h1q-8 -26 -17 -51.5t-17 -51.5q-5 -14 -11.5 -20.5t-19.5 -6.5t-21 7.5t-6 25.5zM347 101q20 2 37.5 -10t16.5 -33q1 -14 -4 -23.5t-13 -15.5t-19 -9.5t-22 -4.5q-20 -3 -35 -4.5t-31 -3t-34.5 -2t-44.5 -0.5
q-41 0 -73.5 4t-52.5 6q-11 1 -21.5 4.5t-19 9.5t-13 15.5t-3.5 23.5q-1 21 16.5 33t37.5 10q31 -2 50 -3.5t41 -2.5v515q-21 -1 -41.5 -2.5t-49.5 -3.5q-19 1 -37 12t-17 31q-1 14 3.5 23.5t12.5 15.5t18.5 9t21.5 5q3 1 15 2.5t30 3t39.5 3t42.5 1.5q61 0 100.5 -4
t45.5 -6q11 -2 21.5 -5t19 -9t13 -15.5t3.5 -23.5q1 -21 -16.5 -33t-37.5 -10q-31 3 -49.5 4.5t-41.5 2.5v-517q20 1 42 2.5t49 4.5z" />
    <glyph glyph-name="Lcommaaccent" unicode="&#x13b;" horiz-adv-x="619" 
d="M537 90q19 0 31.5 -13.5t12.5 -31.5q0 -20 -12.5 -32.5t-31.5 -12.5h-384q-16 -2 -26.5 1.5t-17.5 11.5t-11 20.5t-7 27.5q-4 32 -11 104t-7 178q0 66 4 142t14 163q3 23 15 40.5t42 15.5q20 -1 31.5 -18.5t9.5 -38.5q0 -2 -3 -28t-6.5 -69.5t-6 -100t-2.5 -119.5
q0 -59 3.5 -120t12.5 -120h350zM263 -186q39 12 43 38q-17 5 -28 16.5t-11 31.5v5q0 22 15.5 36.5t39.5 14.5t39.5 -16t15.5 -44v-5q0 -34 -8.5 -56t-25.5 -38q-15 -15 -38.5 -23.5t-38.5 -8.5q-13 0 -20.5 7t-7.5 16q0 20 25 26z" />
    <glyph glyph-name="lcommaaccent" unicode="&#x13c;" horiz-adv-x="436" 
d="M155 -186q39 12 43 38q-17 5 -28 16.5t-11 31.5v5q0 22 15.5 36.5t39.5 14.5t39.5 -16t15.5 -44v-5q0 -34 -8.5 -56t-25.5 -38q-15 -15 -38.5 -23.5t-38.5 -8.5q-13 0 -20.5 7t-7.5 16q0 20 25 26zM347 101q20 2 37.5 -10t16.5 -33q1 -14 -4 -23.5t-13 -15.5t-19 -9.5
t-22 -4.5q-20 -3 -35 -4.5t-31 -3t-34.5 -2t-44.5 -0.5q-41 0 -73.5 4t-52.5 6q-11 1 -21.5 4.5t-19 9.5t-13 15.5t-3.5 23.5q-1 21 16.5 33t37.5 10q31 -2 50 -3.5t41 -2.5v515q-21 -1 -41.5 -2.5t-49.5 -3.5q-19 1 -37 12t-17 31q-1 14 3.5 23.5t12.5 15.5t18.5 9t21.5 5
q3 1 15 2.5t30 3t39.5 3t42.5 1.5q61 0 100.5 -4t45.5 -6q11 -2 21.5 -5t19 -9t13 -15.5t3.5 -23.5q1 -21 -16.5 -33t-37.5 -10q-31 3 -49.5 4.5t-41.5 2.5v-517q20 1 42 2.5t49 4.5z" />
    <glyph glyph-name="Ldot" unicode="&#x13f;" horiz-adv-x="619" 
d="M537 90q19 0 31.5 -13.5t12.5 -31.5q0 -20 -12.5 -32.5t-31.5 -12.5h-384q-16 -2 -26.5 1.5t-17.5 11.5t-11 20.5t-7 27.5q-4 32 -11 104t-7 178q0 66 4 142t14 163q3 22 15 39.5t41 16.5q21 0 32.5 -17.5t9.5 -39.5q0 -2 -3 -28t-6.5 -69.5t-6 -100t-2.5 -119.5
q0 -59 3.5 -120t12.5 -120h350zM508 362q0 -24 -16.5 -39.5t-40.5 -15.5t-40 15.5t-16 39.5v13q0 24 16 39t40 15t40.5 -15t16.5 -39v-13z" />
    <glyph glyph-name="ldot" unicode="&#x140;" horiz-adv-x="414" 
d="M422 362q0 -22 -14.5 -37.5t-37.5 -15.5q-22 0 -36.5 15.5t-14.5 37.5v13q0 21 14.5 37t36.5 16q23 0 37.5 -16t14.5 -37v-13zM347 101q20 2 37.5 -10t16.5 -33q1 -14 -4 -23.5t-13 -15.5t-19 -9.5t-22 -4.5q-20 -3 -35 -4.5t-31 -3t-34.5 -2t-44.5 -0.5q-41 0 -73.5 4
t-52.5 6q-11 1 -21.5 4.5t-19 9.5t-13 15.5t-3.5 23.5q-1 21 16.5 33t37.5 10q31 -2 50 -3.5t41 -2.5v515q-21 -1 -41.5 -2.5t-49.5 -3.5q-19 1 -37 12t-17 31q-1 14 3.5 23.5t12.5 15.5t18.5 9t21.5 5q3 1 15 2.5t30 3t39.5 3t42.5 1.5q61 0 100.5 -4t45.5 -6
q11 -2 21.5 -5t19 -9t13 -15.5t3.5 -23.5q1 -21 -16.5 -33t-37.5 -10q-31 3 -49.5 4.5t-41.5 2.5v-517q20 1 42 2.5t49 4.5z" />
    <glyph glyph-name="Lslash" unicode="&#x141;" horiz-adv-x="649" 
d="M560 89q19 0 32 -13.5t13 -31.5q0 -20 -13 -32.5t-32 -12.5h-384q-11 -1 -21.5 1t-19 8t-14 16.5t-5.5 26.5q-3 21 -9.5 78.5t-10.5 148.5q-8 -3 -10.5 -4t-4.5 -3q-19 -7 -38.5 -2.5t-25.5 24.5v-1q-13 27 0 44t35 28h1q3 2 16 8.5l27 13.5q1 58 5 124t14 138
q2 11 5.5 21.5t9.5 18.5t15.5 12.5t24.5 3.5q21 0 32.5 -17.5t9.5 -38.5q0 -2 -2.5 -19.5t-5 -47t-5.5 -69t-4 -85.5q48 16 80.5 25t40.5 11q21 5 41.5 1.5t30.5 -32.5v1q7 -18 -4.5 -36t-30.5 -24q-50 -14 -86.5 -25.5t-72.5 -25.5q0 -57 3.5 -116.5t12.5 -116.5h350v0z
" />
    <glyph glyph-name="lslash" unicode="&#x142;" horiz-adv-x="370" 
d="M350 425q8 -17 -3 -33.5t-30 -21.5h1q-31 -8 -52 -14t-45 -15v-298q0 -20 -13.5 -34t-33.5 -14t-34 14t-14 34v259q-11 -5 -24 -11t-27 -13q-17 -8 -35.5 -3t-24.5 22q-10 24 1 39.5t29 24.5l28 14t53 26v289q0 20 13.5 34t33.5 14t34 -14t14 -34v-255q23 7 40.5 11.5
t22.5 5.5q20 5 39 1.5t28 -29.5z" />
    <glyph glyph-name="Nacute" unicode="&#x143;" horiz-adv-x="790" 
d="M381 737q-12 0 -20 6.5t-8 16.5q0 5 2.5 11t4.5 10q14 22 29 44t29 44q17 26 43 26q10 0 21 -3.5t20 -9t15 -12t6 -13.5q0 -9 -4.5 -15.5t-11.5 -14.5l-73 -69q-24 -21 -53 -21zM635 711q20 0 33.5 -14.5t13.5 -33.5v-617q0 -20 -13 -33t-36 -13q-15 0 -26 7.5t-21 18.5
q-12 17 -36 52t-57 81t-72 99t-80.5 105.5t-83 101t-78.5 86.5v-505q0 -20 -14 -34.5t-35 -14.5q-20 0 -33 14.5t-13 34.5v615q0 19 14 33.5t33 14.5q21 0 29.5 -4.5t15.5 -9.5q8 -8 31.5 -33.5t58 -64t76 -87t84.5 -103t84.5 -112t76.5 -112.5v480q0 19 14 33.5t34 14.5z
" />
    <glyph glyph-name="nacute" unicode="&#x144;" horiz-adv-x="616" 
d="M332 536q48 0 85.5 -15.5t63.5 -43.5t40 -67t14 -86v-281q0 -20 -14 -34t-34 -14t-34 14t-14 34v262q0 66 -33 104t-96 38q-23 0 -50 -6.5t-50 -27t-38 -59t-14 -103.5q2 -49 8 -96t14 -101v1q4 -20 -6 -39t-35 -21q-29 -2 -40.5 15.5t-14.5 40.5q-9 71 -14 126.5
t-8 104.5t-3 96t2 101q1 26 14.5 42.5t42.5 15.5q20 -3 30 -19t10 -35v-18.5t-1 -21.5q29 42 70 67.5t105 25.5zM300 575q-22 -1 -25.5 14t4.5 29q14 23 29 45t29 44q18 26 43 26q10 0 21 -3.5t20 -9t15 -12.5t6 -14q0 -8 -4 -14.5t-12 -14.5l-73 -69q-13 -12 -25 -16.5
t-28 -4.5z" />
    <glyph glyph-name="Ncaron" unicode="&#x147;" horiz-adv-x="790" 
d="M635 711q20 0 33.5 -14.5t13.5 -33.5v-617q0 -20 -13 -33t-36 -13q-15 0 -25.5 6.5t-20.5 17.5q-71 104 -143 203q-31 42 -64.5 86.5t-68 87t-68.5 81.5t-64 69v-505q0 -20 -14 -34.5t-35 -14.5q-20 0 -33 14.5t-13 34.5v615q0 19 14 33.5t33 14.5q21 0 29 -2t12 -5
q8 -8 32 -34t58.5 -65.5t76.5 -89t85.5 -104.5t85.5 -113t77 -113v480q0 19 14 33.5t34 14.5zM436 871q14 14 26 17.5t27 3.5q21 0 25.5 -15.5t-6.5 -29.5l-69 -84q-9 -11 -19 -18.5t-27 -7.5h-18q-17 0 -27 7.5t-19 18.5q-17 20 -34 42t-34 42q-13 14 -7.5 29.5t26.5 15.5
q14 0 27 -4.5t27 -16.5q14 -11 26 -22.5t25 -23.5z" />
    <glyph glyph-name="ncaron" unicode="&#x148;" horiz-adv-x="616" 
d="M332 536q48 0 85.5 -15.5t63.5 -43.5t40 -67t14 -86v-281q0 -20 -14 -34t-34 -14t-34 14t-14 34v262q0 66 -33 104t-96 38q-23 0 -50 -6.5t-50 -27t-38 -59t-14 -103.5q2 -49 8 -96t14 -101v1q4 -20 -6 -39t-35 -21q-29 -2 -40.5 15.5t-14.5 40.5q-9 71 -14 126.5
t-8 104.5t-3 96t2 101q1 26 14.5 42.5t42.5 15.5q20 -3 30 -19t10 -35v-18.5t-1 -21.5q29 42 70 67.5t105 25.5zM354 709q14 13 26 16.5t27 3.5q22 0 27 -15.5t-8 -29.5l-68 -83q-10 -12 -20 -19t-27 -7h-17q-17 0 -27 7t-20 19q-17 20 -34 41.5t-34 41.5q-13 14 -7.5 29.5
t26.5 15.5q15 0 28 -4.5t27 -15.5q13 -12 25 -23t25 -23z" />
    <glyph glyph-name="Ncommaaccent" unicode="&#x145;" horiz-adv-x="790" 
d="M324 -181q40 13 44 38q-17 5 -28 16.5t-11 31.5v5q0 22 15 36.5t39 14.5t39.5 -16t15.5 -44v-5q0 -34 -8.5 -56t-25.5 -38q-15 -15 -38.5 -23.5t-37.5 -8.5t-21.5 7t-7.5 16q0 20 25 26zM635 711q20 0 33.5 -14.5t13.5 -33.5v-617q0 -20 -13 -33t-36 -13q-15 0 -26 7.5
t-21 18.5q-12 17 -36 52t-57 81t-72 99t-80.5 105.5t-83 101t-78.5 86.5v-505q0 -20 -14 -34.5t-35 -14.5q-20 0 -33 14.5t-13 34.5v615q0 19 14 33.5t33 14.5q21 0 29.5 -4.5t15.5 -9.5q8 -8 31.5 -33.5t58 -64t76 -87t84.5 -103t84.5 -112t76.5 -112.5v480q0 19 14 33.5
t34 14.5z" />
    <glyph glyph-name="ncommaaccent" unicode="&#x146;" horiz-adv-x="616" 
d="M332 536q48 0 85.5 -15.5t63.5 -43.5t40 -67t14 -86v-281q0 -20 -14 -34t-34 -14t-34 14t-14 34v262q0 66 -33 104t-96 38q-23 0 -50 -6.5t-50 -27t-38 -59t-14 -103.5q2 -49 8 -96t14 -101v1q4 -20 -6 -39t-35 -21q-29 -2 -40.5 15.5t-14.5 40.5q-9 71 -14 126.5
t-8 104.5t-3 96t2 101q1 26 14.5 42.5t42.5 15.5q20 -3 30 -19t10 -35v-18.5t-1 -21.5q29 42 70 67.5t105 25.5zM242 -186q40 13 44 38q-17 5 -28 16.5t-11 31.5v5q0 22 15 36.5t39 14.5t40 -16t16 -44v-5q0 -34 -8.5 -56t-25.5 -38q-16 -15 -39.5 -23.5t-37.5 -8.5t-21 7
t-7 16q0 20 24 26z" />
    <glyph glyph-name="Ntilde" unicode="&#xd1;" horiz-adv-x="790" 
d="M288 752q-5 -8 -12 -15.5t-19 -7.5q-14 0 -24.5 10t-10.5 23q0 5 0.5 7.5t0.5 3.5q17 51 39.5 72t57.5 21q18 0 38.5 -7t39.5 -15q14 -6 28.5 -11.5t23.5 -5.5q14 0 21 6.5t15 22.5q5 8 12.5 15t18.5 7q14 0 24.5 -10t10.5 -23q0 -7 -2 -13q0 -1 -0.5 -1.5t-0.5 -1.5
q-16 -48 -38 -68t-57 -20q-18 0 -38.5 7t-39.5 15q-14 6 -28.5 11.5t-23.5 5.5q-14 0 -21 -6.5t-15 -21.5zM635 711q20 0 33.5 -14.5t13.5 -33.5v-617q0 -20 -13 -33t-36 -13q-15 0 -26 7.5t-21 18.5q-12 17 -36 52t-57 81t-72 99t-80.5 105.5t-83 101t-78.5 86.5v-505
q0 -20 -14 -34.5t-35 -14.5q-20 0 -33 14.5t-13 34.5v615q0 19 14 33.5t33 14.5q21 0 29.5 -4.5t15.5 -9.5q8 -8 31.5 -33.5t58 -64t76 -87t84.5 -103t84.5 -112t76.5 -112.5v480q0 19 14 33.5t34 14.5z" />
    <glyph glyph-name="ntilde" unicode="&#xf1;" horiz-adv-x="616" 
d="M332 536q48 0 85.5 -15.5t63.5 -43.5t40 -67t14 -86v-281q0 -20 -14 -34t-34 -14t-34 14t-14 34v262q0 66 -33 104t-96 38q-23 0 -49.5 -6.5t-50 -27t-38.5 -59t-14 -103.5q2 -49 8 -96t14 -101v1q4 -20 -6 -39t-35 -21q-29 -2 -40.5 15.5t-14.5 40.5q-9 71 -14 126.5
t-8 104.5t-3 96t2 101q1 26 14.5 42.5t42.5 15.5q20 -3 30 -19t10 -35v-18.5t-1 -21.5q29 42 70 67.5t105 25.5zM207 589q-5 -8 -11.5 -15t-19.5 -7q-14 0 -24.5 9.5t-10.5 23.5q0 5 0.5 7.5t0.5 3.5q17 51 39.5 72t57.5 21q15 0 32 -6t34 -13.5t33.5 -13.5t30.5 -6
t21.5 6.5t14.5 21.5q5 8 12.5 15.5t19.5 7.5q14 0 24.5 -10t10.5 -23q0 -7 -2 -13q0 -1 -0.5 -1.5t-0.5 -1.5q-17 -48 -39 -68.5t-57 -20.5q-15 0 -31.5 6t-33.5 13.5t-33.5 13.5t-31.5 6q-13 0 -20.5 -6t-15.5 -22z" />
    <glyph glyph-name="Oacute" unicode="&#xd3;" horiz-adv-x="850" 
d="M412 -12q-80 0 -145.5 29.5t-112.5 79t-72.5 115t-25.5 138.5q0 72 26 138t73 115.5t113 79t146 29.5t145.5 -29.5t112.5 -79t72.5 -115t25.5 -138.5q0 -72 -26 -137.5t-73 -115.5t-113 -79.5t-146 -29.5zM414 79q56 0 103.5 21t81.5 58t53 86t19 106q0 56 -19.5 105.5
t-54 86t-82 58t-103.5 21.5t-103 -21t-81 -58t-53 -86t-19 -106q0 -56 19 -105.5t53.5 -86t82 -58t103.5 -21.5zM410 747q-12 0 -20 6t-8 17q0 5 2.5 11t4.5 9q14 23 29 45t29 44q18 26 43 26q10 0 21 -3.5t20 -9t15 -12.5t6 -14q0 -8 -4.5 -14.5t-11.5 -14.5l-73 -69
q-24 -21 -53 -21z" />
    <glyph glyph-name="oacute" unicode="&#xf3;" horiz-adv-x="646" 
d="M313 -12q-59 0 -108.5 21.5t-85.5 59t-56 87t-20 105.5q0 55 20.5 104t56.5 86.5t86 59.5t109 22t108.5 -21.5t85.5 -59t56.5 -87t20.5 -104.5t-20.5 -104.5t-57 -87t-86.5 -59.5t-109 -22zM315 75q39 0 71 14.5t55 40t36 59t13 72.5t-13.5 72.5t-37.5 59t-56.5 40
t-69.5 14.5q-39 0 -71 -14.5t-55 -40t-35.5 -59t-12.5 -72.5t13.5 -72.5t37 -59t55.5 -40t70 -14.5zM312 575q-12 0 -20 6t-8 17q0 5 2.5 10.5t4.5 9.5q14 23 29 45t29 44q9 13 19 19.5t24 6.5q10 0 21 -3.5t20 -9t15 -12.5t6 -14q0 -8 -4.5 -14.5t-11.5 -14.5l-73 -69
q-13 -12 -25 -16.5t-28 -4.5z" />
    <glyph glyph-name="Obreve" unicode="&#x14e;" horiz-adv-x="850" 
d="M412 -12q-80 0 -145.5 29.5t-112.5 79t-72.5 115t-25.5 138.5q0 72 26 138t73 115.5t113 79t146 29.5t145.5 -29.5t112.5 -79t72.5 -115t25.5 -138.5q0 -72 -26 -137.5t-73 -115.5t-113 -79.5t-146 -29.5zM414 79q56 0 103.5 21t81.5 58t53 86t19 106q0 56 -19.5 105.5
t-54 86t-82 58t-103.5 21.5t-103 -21t-81 -58t-53 -86t-19 -106q0 -56 19 -105.5t53.5 -86t82 -58t103.5 -21.5zM413 749q-96 0 -137 75q-5 8 -8 19.5t-3 19.5q0 17 10 28t27 11q15 0 22.5 -6t11.5 -14q10 -23 28 -37.5t49 -14.5t49 14.5t28 37.5q5 8 12.5 14t21.5 6
q17 0 27 -11t10 -28q0 -8 -3 -19.5t-8 -19.5q-41 -75 -137 -75z" />
    <glyph glyph-name="obreve" unicode="&#x14f;" horiz-adv-x="646" 
d="M313 -12q-59 0 -108.5 21.5t-85.5 59t-56 87t-20 105.5q0 55 20.5 104t56.5 86.5t86 59.5t109 22t108.5 -21.5t85.5 -59t56.5 -87t20.5 -104.5t-20.5 -104.5t-57 -87t-86.5 -59.5t-109 -22zM315 75q39 0 71 14.5t55 40t36 59t13 72.5t-13.5 72.5t-37.5 59t-56.5 40
t-69.5 14.5q-39 0 -71 -14.5t-55 -40t-35.5 -59t-12.5 -72.5t13.5 -72.5t37 -59t55.5 -40t70 -14.5zM314 577q-96 0 -137 75q-5 8 -8 19.5t-3 19.5q0 17 10 28t27 11q15 0 22 -6t12 -14q10 -23 28 -37.5t49 -14.5t49 14.5t28 37.5q5 8 12 14t22 6q17 0 27 -11t10 -28
q0 -8 -3 -19.5t-8 -19.5q-41 -75 -137 -75z" />
    <glyph glyph-name="Ocircumflex" unicode="&#xd4;" horiz-adv-x="850" 
d="M412 -12q-80 0 -145.5 29.5t-112.5 79t-72.5 115t-25.5 138.5q0 72 26 138t73 115.5t113 79t146 29.5t145.5 -29.5t112.5 -79t72.5 -115t25.5 -138.5q0 -72 -26 -137.5t-73 -115.5t-113 -79.5t-146 -29.5zM414 79q56 0 103.5 21t81.5 58t53 86t19 106q0 56 -19.5 105.5
t-54 86t-82 58t-103.5 21.5t-103 -21t-81 -58t-53 -86t-19 -106q0 -56 19 -105.5t53.5 -86t82 -58t103.5 -21.5zM362 768q-14 -14 -25.5 -17.5t-28.5 -3.5q-12 0 -19.5 6t-7.5 17q0 9 8 20l69 86q9 11 19 18t27 7h18q17 0 27 -7t20 -18l69 -86q7 -10 7 -20q0 -23 -28 -23
q-16 0 -28 3.5t-26 17.5q-14 13 -25.5 22t-25.5 22z" />
    <glyph glyph-name="ocircumflex" unicode="&#xf4;" horiz-adv-x="646" 
d="M313 -12q-59 0 -108.5 21.5t-85.5 59t-56 87t-20 105.5q0 55 20.5 104t56.5 86.5t86 59.5t109 22t108.5 -21.5t85.5 -59t56.5 -87t20.5 -104.5t-20.5 -104.5t-57 -87t-86.5 -59.5t-109 -22zM315 75q39 0 71 14.5t55 40t36 59t13 72.5t-13.5 72.5t-37.5 59t-56.5 40
t-69.5 14.5q-39 0 -71 -14.5t-55 -40t-35.5 -59t-12.5 -72.5t13.5 -72.5t37 -59t55.5 -40t70 -14.5zM263 596q-14 -14 -26 -17.5t-28 -3.5q-20 0 -25.5 14.5t6.5 28.5l69 86q9 11 19 18t27 7h18q17 0 27 -7t19 -18l69 -86q12 -14 6 -28.5t-26 -14.5q-16 0 -28 3.5t-26 17.5
q-14 13 -25.5 22t-25.5 22z" />
    <glyph glyph-name="Odieresis" unicode="&#xd6;" horiz-adv-x="850" 
d="M412 -12q-80 0 -145.5 29.5t-112.5 79t-72.5 115t-25.5 138.5q0 72 26 138t73 115.5t113 79t146 29.5t145.5 -29.5t112.5 -79t72.5 -115t25.5 -138.5q0 -72 -26 -137.5t-73 -115.5t-113 -79.5t-146 -29.5zM414 79q56 0 103.5 21t81.5 58t53 86t19 106q0 56 -19.5 105.5
t-54 86t-82 58t-103.5 21.5t-103 -21t-81 -58t-53 -86t-19 -106q0 -56 19 -105.5t53.5 -86t82 -58t103.5 -21.5zM500 867q23 0 39 -15t16 -38v-15q0 -23 -16 -38t-39 -15t-39.5 15t-16.5 38v15q0 23 16.5 38t39.5 15zM327 867q23 0 39 -15t16 -38v-15q0 -23 -16 -38t-39 -15
t-39.5 15t-16.5 38v15q0 23 16.5 38t39.5 15z" />
    <glyph glyph-name="odieresis" unicode="&#xf6;" horiz-adv-x="646" 
d="M313 -12q-59 0 -108.5 21.5t-85.5 59t-56 87t-20 105.5q0 55 20.5 104t56.5 86.5t86 59.5t109 22t108.5 -21.5t85.5 -59t56.5 -87t20.5 -104.5t-20.5 -104.5t-57 -87t-86.5 -59.5t-109 -22zM315 75q39 0 71 14.5t55 40t36 59t13 72.5t-13.5 72.5t-37.5 59t-56.5 40
t-69.5 14.5q-39 0 -71 -14.5t-55 -40t-35.5 -59t-12.5 -72.5t13.5 -72.5t37 -59t55.5 -40t70 -14.5zM401 695q23 0 39 -15t16 -38v-15q0 -23 -16 -38t-39 -15q-24 0 -40 15t-16 38v15q0 23 16 38t40 15zM228 695q23 0 39 -15t16 -38v-15q0 -23 -16 -38t-39 -15q-24 0 -40 15
t-16 38v15q0 23 16 38t40 15z" />
    <glyph glyph-name="Ograve" unicode="&#xd2;" horiz-adv-x="850" 
d="M412 -12q-80 0 -145.5 29.5t-112.5 79t-72.5 115t-25.5 138.5q0 72 26 138t73 115.5t113 79t146 29.5t145.5 -29.5t112.5 -79t72.5 -115t25.5 -138.5q0 -72 -26 -137.5t-73 -115.5t-113 -79.5t-146 -29.5zM414 79q56 0 103.5 21t81.5 58t53 86t19 106q0 56 -19.5 105.5
t-54 86t-82 58t-103.5 21.5t-103 -21t-81 -58t-53 -86t-19 -106q0 -56 19 -105.5t53.5 -86t82 -58t103.5 -21.5zM415 747q-30 0 -52 21q-18 17 -37 35t-36 34q-8 8 -12.5 14.5t-4.5 14.5q0 7 6 14t15 12.5t20 9t21 3.5q14 0 24.5 -7t18.5 -19q15 -22 29.5 -44t29.5 -45
q2 -3 4 -9t2 -11q0 -23 -28 -23z" />
    <glyph glyph-name="ograve" unicode="&#xf2;" horiz-adv-x="646" 
d="M313 -12q-59 0 -108.5 21.5t-85.5 59t-56 87t-20 105.5q0 55 20.5 104t56.5 86.5t86 59.5t109 22t108.5 -21.5t85.5 -59t56.5 -87t20.5 -104.5t-20.5 -104.5t-57 -87t-86.5 -59.5t-109 -22zM315 75q39 0 71 14.5t55 40t36 59t13 72.5t-13.5 72.5t-37.5 59t-56.5 40
t-69.5 14.5q-39 0 -71 -14.5t-55 -40t-35.5 -59t-12.5 -72.5t13.5 -72.5t37 -59t55.5 -40t70 -14.5zM316 575q-15 0 -27.5 4.5t-25.5 16.5q-17 17 -36 35t-36 34q-8 8 -12.5 14.5t-4.5 14.5q0 7 6 14t15 12.5t20 9t21 3.5q14 0 24 -7t19 -19q14 -22 29 -44t29 -45
q2 -4 4.5 -9.5t2.5 -10.5q0 -23 -28 -23z" />
    <glyph glyph-name="Ohungarumlaut" unicode="&#x150;" horiz-adv-x="850" 
d="M412 -12q-80 0 -145.5 29.5t-112.5 79t-72.5 115t-25.5 138.5q0 72 26 138t73 115.5t113 79t146 29.5t145.5 -29.5t112.5 -79t72.5 -115t25.5 -138.5q0 -72 -26 -137.5t-73 -115.5t-113 -79.5t-146 -29.5zM414 79q56 0 103.5 21t81.5 58t53 86t19 106q0 56 -19.5 105.5
t-54 86t-82 58t-103.5 21.5t-103 -21t-81 -58t-53 -86t-19 -106q0 -56 19 -105.5t53.5 -86t82 -58t103.5 -21.5zM479 747q-22 -1 -27 14t6 29q14 23 29.5 45.5t29.5 44.5v-1q8 12 17.5 19t23.5 7q10 0 20.5 -3.5t19 -8.5t14 -12t5.5 -14q0 -14 -14 -28l-72 -71
q-14 -14 -25 -17.5t-27 -3.5zM320 747q-23 0 -26.5 14t4.5 29q15 23 30 45.5t30 44.5v-1q8 12 17.5 19t23.5 7q10 0 20.5 -3.5t19 -8.5t14 -12t5.5 -14q0 -13 -15 -28l-72 -71q-14 -14 -25 -17.5t-26 -3.5z" />
    <glyph glyph-name="ohungarumlaut" unicode="&#x151;" horiz-adv-x="646" 
d="M313 -12q-59 0 -108.5 21.5t-85.5 59t-56 87t-20 105.5q0 55 20.5 104t56.5 86.5t86 59.5t109 22t108.5 -21.5t85.5 -59t56.5 -87t20.5 -104.5t-20.5 -104.5t-57 -87t-86.5 -59.5t-109 -22zM315 75q39 0 71 14.5t55 40t36 59t13 72.5t-13.5 72.5t-37.5 59t-56.5 40
t-69.5 14.5q-39 0 -71 -14.5t-55 -40t-35.5 -59t-12.5 -72.5t13.5 -72.5t37 -59t55.5 -40t70 -14.5zM381 575q-23 0 -26.5 14t5.5 29q14 23 29.5 45.5t29.5 44.5v-1q8 12 17.5 19t23.5 7q10 0 20.5 -3.5t19 -8.5t14 -12t5.5 -14q0 -8 -4 -14.5t-10 -13.5l-72 -71
q-14 -14 -25 -17.5t-27 -3.5zM222 575q-22 0 -26.5 14t4.5 29q15 23 30 45.5t30 44.5v-1q8 12 17 19t23 7q21 0 40.5 -12t19.5 -26q0 -8 -4 -14.5t-11 -13.5l-72 -71q-14 -14 -25 -17.5t-26 -3.5z" />
    <glyph glyph-name="Omacron" unicode="&#x14c;" horiz-adv-x="850" 
d="M412 -12q-80 0 -145.5 29.5t-112.5 79t-72.5 115t-25.5 138.5q0 72 26 138t73 115.5t113 79t146 29.5t145.5 -29.5t112.5 -79t72.5 -115t25.5 -138.5q0 -72 -26 -137.5t-73 -115.5t-113 -79.5t-146 -29.5zM414 79q56 0 103.5 21t81.5 58t53 86t19 106q0 56 -19.5 105.5
t-54 86t-82 58t-103.5 21.5t-103 -21t-81 -58t-53 -86t-19 -106q0 -56 19 -105.5t53.5 -86t82 -58t103.5 -21.5zM285 770q-17 0 -29 12t-12 29q0 16 12 28.5t29 12.5h257q17 0 28.5 -12.5t11.5 -28.5q0 -17 -11.5 -29t-28.5 -12h-257z" />
    <glyph glyph-name="omacron" unicode="&#x14d;" horiz-adv-x="646" 
d="M313 -12q-59 0 -108.5 21.5t-85.5 59t-56 87t-20 105.5q0 55 20.5 104t56.5 86.5t86 59.5t109 22t108.5 -21.5t85.5 -59t56.5 -87t20.5 -104.5t-20.5 -104.5t-57 -87t-86.5 -59.5t-109 -22zM315 75q39 0 71 14.5t55 40t36 59t13 72.5t-13.5 72.5t-37.5 59t-56.5 40
t-69.5 14.5q-39 0 -71 -14.5t-55 -40t-35.5 -59t-12.5 -72.5t13.5 -72.5t37 -59t55.5 -40t70 -14.5zM186 598q-18 0 -29.5 12t-11.5 29q0 16 11.5 28.5t29.5 12.5h256q18 0 29.5 -12.5t11.5 -28.5q0 -17 -11.5 -29t-29.5 -12h-256z" />
    <glyph glyph-name="Oslash" unicode="&#xd8;" horiz-adv-x="850" 
d="M412 -12q-64 0 -118 19.5t-99 51.5q-13 -14 -26 -27.5t-26 -26.5q-15 -15 -31 -15q-18 0 -28.5 11t-10.5 27q0 19 13 30q14 16 25.5 28t25.5 28q-39 48 -60 108t-21 128q0 72 26 138t73 115.5t113 79t146 29.5q64 0 119 -19.5t98 -51.5q13 14 26 27t26 27q15 15 32 15
t27.5 -11t10.5 -27q0 -20 -12 -30q-15 -16 -26.5 -28.5t-26.5 -28.5q38 -47 60 -107.5t22 -127.5q0 -72 -26 -137.5t-73 -115.5t-113 -79.5t-146 -29.5zM156 350q0 -45 13 -87.5t37 -76.5q93 98 180.5 191.5t180.5 192.5q-33 25 -71.5 38.5t-83.5 13.5q-56 0 -103 -21
t-81 -58t-53 -86t-19 -105v-2zM414 78q56 0 103.5 21.5t81.5 58t53 86t19 106.5q0 45 -13.5 87.5t-37.5 76.5q-92 -98 -180 -192t-180 -193q65 -51 154 -51z" />
    <glyph glyph-name="oslash" unicode="&#xf8;" horiz-adv-x="646" 
d="M313 -12q-46 0 -87 14t-73 37q-9 -9 -17 -17.5t-16 -16.5q-15 -15 -32 -15q-14 0 -25 10t-11 25q0 20 13 30v-1q11 11 17.5 18t16.5 17q-56 69 -56 172q0 55 20.5 104t56.5 86.5t86 59.5t109 22q47 0 87 -13t72 -37q9 10 17.5 18t16.5 17q15 15 33 15q15 0 25.5 -10
t10.5 -25q0 -8 -4 -16t-9 -13q-10 -11 -18 -19l-18 -18q58 -72 58 -171q0 -55 -20.5 -104.5t-57 -87t-86.5 -59.5t-109 -22zM138 261q0 -29 6.5 -54t20.5 -49q64 67 125 129.5t124 128.5q-41 32 -101 32q-39 0 -71 -14.5t-55 -39.5t-36 -59t-13 -72v-2zM315 74
q39 0 71.5 14.5t55.5 40t36 59.5t13 73q0 57 -28 103q-60 -62 -124 -128.5t-124 -129.5q20 -14 46 -23t54 -9z" />
    <glyph glyph-name="Oslashacute" unicode="&#x1fe;" horiz-adv-x="850" 
d="M412 -12q-64 0 -118 19.5t-99 51.5q-13 -14 -26 -27.5t-26 -26.5q-15 -15 -31 -15q-18 0 -28.5 11t-10.5 27q0 19 13 30q14 16 25.5 28t25.5 28q-39 48 -60 108t-21 128q0 72 26 138t73 115.5t113 79t146 29.5q64 0 119 -19.5t98 -51.5q13 14 26 27t26 27q15 15 32 15
t27.5 -11t10.5 -27q0 -20 -12 -30q-15 -16 -26.5 -28.5t-26.5 -28.5q38 -47 60 -107.5t22 -127.5q0 -72 -26 -137.5t-73 -115.5t-113 -79.5t-146 -29.5zM156 350q0 -45 13 -87.5t37 -76.5q93 98 180.5 191.5t180.5 192.5q-33 25 -71.5 38.5t-83.5 13.5q-56 0 -103 -21
t-81 -58t-53 -86t-19 -105v-2zM414 78q56 0 103.5 21.5t81.5 58t53 86t19 106.5q0 45 -13.5 87.5t-37.5 76.5q-92 -98 -180 -192t-180 -193q65 -51 154 -51zM410 747q-12 0 -20 6t-8 17q0 5 2.5 11t4.5 9q14 23 29 45t29 44q18 26 43 26q10 0 21 -3.5t20 -9t15 -12.5t6 -14
q0 -8 -4.5 -14.5t-11.5 -14.5l-73 -69q-24 -21 -53 -21z" />
    <glyph glyph-name="oslashacute" unicode="&#x1ff;" horiz-adv-x="646" 
d="M313 -12q-46 0 -87 14t-73 37q-9 -9 -17 -17.5t-16 -16.5q-15 -15 -32 -15q-14 0 -25 10t-11 25q0 20 13 30v-1q11 11 17.5 18t16.5 17q-56 69 -56 172q0 55 20.5 104t56.5 86.5t86 59.5t109 22q47 0 87 -13t72 -37q9 10 17.5 18t16.5 17q15 15 33 15q15 0 25.5 -10
t10.5 -25q0 -8 -4 -16t-9 -13q-10 -11 -18 -19l-18 -18q58 -72 58 -171q0 -55 -20.5 -104.5t-57 -87t-86.5 -59.5t-109 -22zM138 261q0 -29 6.5 -54t20.5 -49q64 67 125 129.5t124 128.5q-41 32 -101 32q-39 0 -71 -14.5t-55 -39.5t-36 -59t-13 -72v-2zM315 74
q39 0 71.5 14.5t55.5 40t36 59.5t13 73q0 57 -28 103q-60 -62 -124 -128.5t-124 -129.5q20 -14 46 -23t54 -9zM312 575q-12 0 -20 6t-8 17q0 5 2.5 10.5t4.5 9.5q14 23 29 45t29 44q9 13 19 19.5t24 6.5q10 0 21 -3.5t20 -9t15 -12.5t6 -14q0 -8 -4.5 -14.5t-11.5 -14.5
l-73 -69q-13 -12 -25 -16.5t-28 -4.5z" />
    <glyph glyph-name="Otilde" unicode="&#xd5;" horiz-adv-x="850" 
d="M412 -12q-80 0 -145.5 29.5t-112.5 79t-72.5 115t-25.5 138.5q0 72 26 138t73 115.5t113 79t146 29.5t145.5 -29.5t112.5 -79t72.5 -115t25.5 -138.5q0 -72 -26 -137.5t-73 -115.5t-113 -79.5t-146 -29.5zM414 79q56 0 103.5 21t81.5 58t53 86t19 106q0 56 -19.5 105.5
t-54 86t-82 58t-103.5 21.5t-103 -21t-81 -58t-53 -86t-19 -106q0 -56 19 -105.5t53.5 -86t82 -58t103.5 -21.5zM317 761q-5 -8 -12 -15t-19 -7q-14 0 -24.5 9.5t-10.5 23.5q0 5 0.5 7.5t0.5 3.5q17 51 39.5 72t57.5 21q15 0 32 -6t34 -13.5t33.5 -13.5t30.5 -6t21.5 6.5
t14.5 21.5q5 8 12.5 15.5t18.5 7.5q14 0 24.5 -10t10.5 -23q0 -7 -2 -13q0 -1 -0.5 -1.5t-0.5 -1.5q-16 -48 -38 -68t-57 -20q-15 0 -31.5 6t-33.5 13t-33.5 13t-31.5 6q-14 0 -21 -6t-15 -22z" />
    <glyph glyph-name="otilde" unicode="&#xf5;" horiz-adv-x="646" 
d="M313 -12q-59 0 -108.5 21.5t-85.5 59t-56 87t-20 105.5q0 55 20.5 104t56.5 86.5t86 59.5t109 22t108.5 -21.5t85.5 -59t56.5 -87t20.5 -104.5t-20.5 -104.5t-57 -87t-86.5 -59.5t-109 -22zM315 75q39 0 71 14.5t55 40t36 59t13 72.5t-13.5 72.5t-37.5 59t-56.5 40
t-69.5 14.5q-39 0 -71 -14.5t-55 -40t-35.5 -59t-12.5 -72.5t13.5 -72.5t37 -59t55.5 -40t70 -14.5zM218 589q-5 -8 -12 -15t-19 -7q-14 0 -24.5 9.5t-10.5 23.5q0 5 0.5 7.5t0.5 3.5q17 51 39.5 72t57.5 21q15 0 32 -6t34 -13.5t33.5 -13.5t30.5 -6t21 6.5t15 21.5
q5 8 12.5 15.5t18.5 7.5q14 0 24.5 -10t10.5 -23q0 -7 -2 -13q0 -1 -0.5 -1.5t-0.5 -1.5q-16 -48 -38 -68.5t-57 -20.5q-15 0 -32 6t-34 13.5t-33.5 13.5t-30.5 6t-21 -6t-15 -22z" />
    <glyph glyph-name="OE" unicode="&#x152;" horiz-adv-x="1131" 
d="M1057 88q20 0 33 -13t13 -32t-13 -32t-33 -13h-178.5h-126h-91h-73t-72 -0.5t-88.5 -0.5q-83 0 -151.5 27t-118 74.5t-77 111.5t-27.5 139q0 74 28 137.5t78 110.5t118.5 74t149.5 29q34 0 67.5 0.5t71 0.5h82.5h103t131.5 0.5t169.5 0.5q19 0 32 -13t13 -33
q0 -19 -13 -31.5t-32 -12.5l-388 -1q-7 -51 -10.5 -106.5t-4.5 -106.5h358q19 0 32 -14t13 -31q0 -19 -13 -32t-32 -13h-358q1 -41 3.5 -78t4.5 -66.5t4 -49.5t3 -26h392zM154 346q0 -54 19.5 -101.5t55 -82t86 -54.5t113.5 -20h138q-8 75 -11 140t-3 123q0 90 5 155t10 104
h-139q-63 0 -113.5 -20.5t-86 -56t-55 -84t-19.5 -103.5z" />
    <glyph glyph-name="oe" unicode="&#x153;" horiz-adv-x="1049" 
d="M991 266q0 -20 -13.5 -32t-30.5 -12q-26 -3 -59 -5q-29 -2 -69 -3.5t-91 -1.5q-14 0 -33.5 1t-39 2.5t-37 2.5t-27.5 2q12 -73 59 -111.5t108 -38.5q45 0 79 15.5t61 40.5q5 5 12 8t16 3q18 0 30 -12.5t12 -29.5q0 -18 -14 -32v1q-38 -35 -84 -57t-114 -22
q-67 0 -124.5 30.5t-92.5 84.5q-37 -53 -94.5 -84t-129.5 -31q-59 0 -109 21.5t-86 59t-56.5 87.5t-20.5 106q0 55 20.5 105t57 87.5t86.5 59.5t110 22q69 0 127.5 -32t95.5 -83q33 49 87 82t120 33q58 0 103.5 -22t76.5 -59t47.5 -85.5t16.5 -100.5zM493 257q0 47 -16 82.5
t-42 58.5t-58 35t-62 13q-39 0 -71 -14.5t-55.5 -40t-36 -59.5t-12.5 -73t13.5 -73t37 -59.5t56 -40t70.5 -14.5q39 0 71 14.5t55.5 39.5t36.5 59t13 72zM745 449q-60 0 -101 -42t-52 -108l167 -4q41 0 73.5 0.5t62.5 2.5q-4 31 -15 58.5t-29.5 48t-45 32.5t-60.5 12z" />
    <glyph glyph-name="Racute" unicode="&#x154;" horiz-adv-x="723" 
d="M666 57q10 -14 4 -30.5t-21 -27.5q-7 -5 -16.5 -7.5t-19.5 -1t-20 7.5t-17 18q-4 5 -9.5 12t-12.5 17q-14 19 -32.5 45t-40.5 55t-46.5 59t-49.5 57h-202q1 -80 8 -130.5t7 -79.5q2 -22 -9 -39t-32 -17q-29 -2 -40.5 16t-15.5 41q-10 88 -14 164.5t-4 142.5
q0 106 6.5 177.5t11.5 103.5q7 39 25 49.5t55 8.5h233q66 0 117 -18.5t84 -52.5q26 -26 41.5 -62.5t15.5 -79.5q0 -46 -14 -80t-38.5 -59t-57.5 -41.5t-71 -26.5q13 -14 34.5 -39.5t46 -56t49.5 -63.5t45 -63v1zM407 349q74 0 120.5 35t46.5 98q0 60 -43.5 93t-122.5 33
h-212q-8 -62 -11.5 -129t-3.5 -130h226zM345 737q-22 0 -25.5 15t4.5 29q14 22 29 44t29 44q17 26 43 26q10 0 21 -3.5t20 -9t15 -12t6 -13.5q0 -9 -4.5 -15.5t-11.5 -14.5l-73 -69q-24 -21 -53 -21z" />
    <glyph glyph-name="racute" unicode="&#x155;" horiz-adv-x="405" 
d="M207 575q-22 -1 -25.5 14t4.5 29q14 23 29 45t29 44q9 13 19 19.5t24 6.5q10 0 21 -3.5t20 -9t15 -12.5t6 -14q0 -8 -4.5 -14.5t-11.5 -14.5l-73 -69q-13 -12 -25 -16.5t-28 -4.5zM327 533q21 0 33.5 -14t12.5 -34q0 -19 -11.5 -32.5t-29.5 -15.5q-35 -5 -66 -20
t-54 -42.5t-36.5 -67t-13.5 -91.5q4 -81 9.5 -121.5t6.5 -42.5q2 -22 -9.5 -39.5t-32.5 -17.5q-29 -1 -40 16.5t-14 40.5q-6 56 -10 107.5t-4 102t3 102t11 108.5q4 23 15 40t40 15q20 -1 32.5 -16.5t8.5 -38.5q-1 -6 -2.5 -15.5t-3.5 -14.5q30 42 73 66.5t82 24.5z" />
    <glyph glyph-name="Rcaron" unicode="&#x158;" horiz-adv-x="723" 
d="M666 57q10 -14 4 -30.5t-21 -27.5q-7 -5 -16.5 -7.5t-19.5 -1t-20 7.5t-17 18q-4 5 -9.5 12t-12.5 17q-14 19 -32.5 45t-40.5 55t-46.5 59t-49.5 57h-202q3 -73 7.5 -125.5t6.5 -73.5q1 -4 1 -6.5v-4.5q2 -22 -9 -38.5t-31 -17.5q-15 -1 -25 3.5t-16.5 12.5t-10 18.5
t-5.5 22.5q-10 88 -14 164.5t-4 142.5q0 106 6.5 177.5t11.5 103.5q1 5 1.5 8.5t0.5 5.5q2 19 10.5 28.5t20 13.5t24 3.5t23.5 -1.5h233q66 0 117 -18.5t84 -52.5q26 -26 41.5 -62.5t15.5 -79.5q0 -46 -14 -80t-38.5 -59t-57.5 -41.5t-71 -26.5q13 -14 34.5 -39.5t46 -56
t49.5 -63.5t45 -63v1zM407 349q74 0 120.5 35t46.5 98q0 60 -43.5 93t-122.5 33h-212q-8 -62 -11.5 -129t-3.5 -130h226zM399 871q14 14 26 17.5t27 3.5q13 0 20 -6.5t7 -17.5q0 -6 -2.5 -10.5t-5.5 -10.5l-68 -84q-10 -11 -20 -18.5t-27 -7.5h-18q-17 0 -27 7.5t-19 18.5
q-17 20 -34 42t-34 42q-4 6 -6.5 10.5t-2.5 10.5q0 11 8 17.5t20 6.5q15 0 28 -4.5t27 -16.5q13 -11 25 -22.5t25 -23.5z" />
    <glyph glyph-name="rcaron" unicode="&#x159;" horiz-adv-x="405" 
d="M262 709q14 13 26 16.5t27 3.5q13 0 20 -6.5t7 -16.5q0 -6 -2.5 -11t-6.5 -11l-68 -83q-9 -12 -19 -19t-27 -7h-18q-17 0 -27 7t-19 19q-17 20 -34 41.5t-34 41.5q-4 6 -6.5 11t-2.5 11q0 10 7.5 16.5t20.5 6.5q14 0 27 -4.5t27 -15.5q14 -12 25.5 -23t25.5 -23zM327 533
q21 0 33.5 -14t12.5 -34q0 -19 -11.5 -32.5t-29.5 -15.5q-35 -5 -66 -20t-54 -42.5t-36.5 -67t-13.5 -91.5q4 -81 9.5 -121.5t6.5 -42.5q2 -22 -9.5 -39.5t-32.5 -17.5q-29 -1 -40 16.5t-14 40.5q-6 56 -10 107.5t-4 102t3 102t11 108.5q4 23 15 40t40 15q20 -1 32.5 -16.5
t8.5 -38.5q-1 -6 -2.5 -15.5t-3.5 -14.5q30 42 73 66.5t82 24.5z" />
    <glyph glyph-name="Rcommaaccent" unicode="&#x156;" horiz-adv-x="723" 
d="M666 57q10 -14 4 -30.5t-21 -27.5q-7 -5 -16.5 -7.5t-19.5 -1t-20 7.5t-17 18q-20 24 -41 53t-44 61t-49 65.5t-57 65.5h-202q1 -80 8 -130.5t7 -79.5q2 -22 -9 -38.5t-31 -17.5q-15 -1 -25 3.5t-16.5 12.5t-10 18.5t-5.5 22.5q-10 88 -14 164.5t-4 142.5q0 114 7.5 184
t12.5 111q2 19 10.5 28.5t20 13.5t24 3.5t23.5 -1.5h233q66 0 117 -18.5t84 -52.5q26 -26 41.5 -62.5t15.5 -79.5q0 -46 -14 -80t-38.5 -59t-57.5 -41.5t-71 -26.5q13 -14 34.5 -39.5t46 -56t49.5 -63.5t45 -63v1zM407 349q74 0 120.5 35t46.5 98q0 60 -43.5 93t-122.5 33
h-212q-8 -62 -11.5 -129t-3.5 -130h226zM288 -181q40 13 44 38q-17 5 -28 16.5t-11 31.5v5q0 22 15 36.5t39 14.5t40 -16t16 -44v-5q0 -34 -9 -56t-26 -38q-15 -15 -38.5 -23.5t-37.5 -8.5t-21.5 7t-7.5 16q0 20 25 26z" />
    <glyph glyph-name="rcommaaccent" unicode="&#x157;" horiz-adv-x="405" 
d="M327 533q21 0 33.5 -14t12.5 -34q0 -19 -11.5 -32.5t-29.5 -15.5q-35 -5 -66 -20t-54 -42.5t-36.5 -67t-13.5 -91.5q4 -81 9.5 -121.5t6.5 -42.5q2 -22 -9.5 -39.5t-32.5 -17.5q-29 -1 -40 16.5t-14 40.5q-6 56 -10 107.5t-4 102t3 102t11 108.5q4 23 15 40t40 15
q20 -1 32.5 -16.5t8.5 -38.5q-1 -6 -2.5 -15.5t-3.5 -14.5q30 42 73 66.5t82 24.5zM69 -186q40 13 44 38q-17 5 -28 16.5t-11 31.5v5q0 22 15 36.5t39 14.5t40 -16t16 -44v-5q0 -34 -8.5 -56t-25.5 -38q-16 -15 -39.5 -23.5t-37.5 -8.5t-21 7t-7 16q0 20 24 26z" />
    <glyph glyph-name="Sacute" unicode="&#x15a;" horiz-adv-x="640" 
d="M330 -10q-76 0 -141 24.5t-123 69.5q-18 11 -18 37q0 14 8 25t19 17t24 5t24 -10q46 -38 97 -58.5t113 -20.5q64 0 102.5 30t38.5 78q0 21 -7 38.5t-26 31.5t-52 26t-84 23q-60 13 -104.5 30.5t-74 42t-43.5 57.5t-14 78q0 42 17.5 78t48.5 62.5t73.5 41t93.5 14.5
q69 0 122 -17.5t101 -51.5q8 -5 14 -15t6 -24t-7 -25t-18 -16.5t-24 -5t-25 8.5q-42 30 -83 43.5t-88 13.5q-62 0 -98.5 -29t-36.5 -73q0 -22 7.5 -39.5t27.5 -32t54 -26.5t88 -24q59 -13 102 -30.5t71.5 -42t42.5 -57t14 -74.5q0 -46 -18 -83.5t-50 -64t-76.5 -41
t-97.5 -14.5zM315 747q-28 0 -28 23q0 5 2.5 11t4.5 9q14 23 29 45t29 44q9 13 19 19.5t24 6.5q10 0 21 -3.5t20 -9t15 -12.5t6 -14q0 -8 -4.5 -14.5t-12.5 -14.5l-72 -69q-24 -21 -53 -21z" />
    <glyph glyph-name="sacute" unicode="&#x15b;" horiz-adv-x="498" 
d="M250 -10q-51 0 -104 18t-95 47q-7 5 -12.5 14t-5.5 21t7 21.5t17 15t21.5 5.5t21.5 -8q37 -25 76 -38t78 -13q41 0 67.5 19t26.5 53q0 16 -9.5 28t-26 21t-38 16t-45.5 14q-30 9 -61 19.5t-56 27.5t-40.5 42.5t-15.5 63.5q0 35 13.5 63.5t37.5 48.5t57.5 31t72.5 11
q42 0 85 -12t81 -32q9 -5 16 -15.5t7 -24.5q0 -12 -6 -21.5t-15.5 -14.5t-20.5 -5.5t-21 4.5q-32 18 -64.5 28t-63.5 10q-40 0 -63.5 -18t-23.5 -47q0 -15 10.5 -26t27.5 -20t39 -16.5t45 -14.5q29 -9 59 -21t54 -29.5t39.5 -43t15.5 -61.5q0 -38 -14.5 -68t-40 -50.5
t-59.5 -31.5t-74 -11zM243 575q-12 0 -20 6t-8 17q0 5 2.5 10.5t4.5 9.5q14 23 29 45t29 44q9 13 19 19.5t24 6.5q10 0 21 -3.5t20 -9t15 -12.5t6 -14q0 -8 -4.5 -14.5t-12.5 -14.5l-72 -69q-13 -12 -25.5 -16.5t-27.5 -4.5z" />
    <glyph glyph-name="Scaron" unicode="&#x160;" horiz-adv-x="640" 
d="M330 -10q-76 0 -141 24.5t-123 69.5q-18 11 -18 37q0 15 7.5 26t18.5 16.5t24.5 4.5t24.5 -10q46 -38 97 -58.5t113 -20.5q64 0 102.5 30t38.5 78q0 21 -7 38.5t-26 31.5t-52 26t-84 23q-60 13 -104.5 30.5t-74 42t-43.5 57.5t-14 78q0 42 17.5 78t48.5 62.5t73.5 41
t93.5 14.5q69 0 122 -17.5t101 -51.5q8 -5 14 -15t6 -24t-7 -25t-18 -17t-24 -5.5t-25 9.5q-42 30 -83 43.5t-88 13.5q-62 0 -98.5 -29t-36.5 -73q0 -22 7.5 -39.5t27.5 -32t54 -26.5t88 -24q59 -13 102 -30.5t71.5 -42t42.5 -57t14 -74.5q0 -46 -18 -83.5t-50 -64
t-76.5 -41t-97.5 -14.5zM368 881q15 13 27 16.5t27 3.5q20 0 25.5 -15t-7.5 -29l-68 -84q-9 -12 -19 -19t-27 -7h-18q-17 0 -27 7t-19 19q-17 20 -34.5 41.5t-34.5 42.5q-11 14 -6 29t26 15q14 0 27 -4.5t27 -15.5q14 -12 25.5 -23t25.5 -23z" />
    <glyph glyph-name="scaron" unicode="&#x161;" horiz-adv-x="498" 
d="M250 -10q-51 0 -104 18t-95 47q-7 5 -12.5 14t-5.5 21q0 13 6.5 22.5t16.5 14.5t21.5 4.5t22.5 -7.5q37 -25 76 -38t78 -13q41 0 67.5 19t26.5 53q0 16 -9.5 28t-26 21t-38 16t-45.5 14q-30 9 -61 19.5t-56 27.5t-40.5 42.5t-15.5 63.5q0 35 13.5 63.5t37.5 48.5t57.5 31
t72.5 11q42 0 85 -12t81 -32q9 -5 16 -15.5t7 -24.5q0 -11 -6 -20.5t-15 -15.5t-20.5 -6.5t-21.5 5.5q-32 18 -64.5 28t-63.5 10q-40 0 -63.5 -18t-23.5 -47q0 -15 10.5 -26t27.5 -20t39 -16.5t45 -14.5q29 -9 59 -21t54 -29.5t39.5 -43t15.5 -61.5q0 -38 -14.5 -68
t-40 -50.5t-59.5 -31.5t-74 -11zM297 709q14 13 26 16.5t27 3.5q21 0 25.5 -15.5t-7.5 -29.5l-68 -83q-9 -12 -19 -19t-27 -7h-18q-17 0 -27 7t-19 19q-17 20 -34 41.5t-34 41.5q-13 14 -8 29.5t27 15.5q14 0 27 -4.5t27 -15.5q14 -12 25.5 -23t25.5 -23z" />
    <glyph glyph-name="Scedilla" unicode="&#x15e;" horiz-adv-x="640" 
d="M344 396q119 -26 175 -72.5t56 -130.5q0 -44 -16 -80t-44.5 -62.5t-68 -42.5t-86.5 -20q-11 -11 -26 -25.5t-32 -30.5t-33.5 -31t-29.5 -26q-8 -7 -19.5 -12t-25.5 -5t-24.5 8t-11.5 27q0 12 3.5 22t15.5 22l17 17t24 22q11 10 14.5 12.5t8.5 7.5q-48 11 -90.5 32
t-83.5 53q-8 5 -13 15.5t-5 21.5q0 14 7.5 26t19 18t25 5t24.5 -12v1q48 -42 97.5 -61t111.5 -19q66 0 104.5 30.5t38.5 78.5q0 21 -8 38t-27.5 31.5t-52 27t-82.5 23.5q-112 26 -174.5 74.5t-62.5 134.5q0 42 17.5 78.5t48.5 62.5t74 41t94 15q69 0 122.5 -17.5
t101.5 -52.5q8 -5 14 -15t6 -24q0 -20 -13 -33.5t-33 -13.5q-16 0 -29 9q-42 30 -83 43.5t-88 13.5q-63 0 -99.5 -29t-36.5 -71q0 -23 7.5 -41t27.5 -33t54.5 -27t88.5 -24z" />
    <glyph glyph-name="scedilla" unicode="&#x15f;" horiz-adv-x="498" 
d="M280 304q30 -9 60.5 -20.5t54.5 -28.5t39 -42t15 -62q0 -68 -41 -109t-106 -52q-8 -8 -17.5 -18t-20.5 -22q-20 -22 -41.5 -44t-35.5 -34q-8 -7 -18.5 -11.5t-21.5 -4.5q-14 0 -24.5 8.5t-13.5 27.5q-2 12 1 21.5t14 23.5q6 6 13.5 14t15.5 16.5t15.5 16.5t12.5 13
q-32 8 -64 22.5t-58 33.5q-6 5 -11.5 13.5t-5.5 21.5t6.5 22.5t16.5 14.5t21.5 4.5t22.5 -7.5q75 -52 154 -52q42 0 68.5 19t26.5 54q0 16 -10 28t-26.5 21t-38 16t-44.5 14q-31 9 -62 19.5t-56 27.5t-40.5 42.5t-15.5 64.5q0 35 13.5 63.5t37.5 49t57.5 31.5t73.5 11
q42 0 85 -12t81 -33q10 -5 17 -15.5t7 -24.5q0 -12 -6 -21.5t-15.5 -14.5t-21.5 -5.5t-23 4.5q-31 18 -63.5 28t-62.5 10q-41 0 -64.5 -18t-23.5 -45q0 -16 10.5 -27.5t27.5 -20.5t39 -16.5t46 -15.5z" />
    <glyph glyph-name="Scommaaccent" unicode="&#x218;" horiz-adv-x="640" 
d="M330 -10q-76 0 -141 24.5t-123 69.5q-18 13 -18 36q0 18 12.5 33t33.5 15q9 0 16.5 -3t12.5 -7q46 -38 97 -58.5t113 -20.5q64 0 102.5 30t38.5 78q0 21 -7 38.5t-26 31.5t-52 26t-84 23q-60 13 -104.5 30.5t-74 42t-43.5 57.5t-14 78q0 42 17.5 78t48.5 62.5t73.5 41
t93.5 14.5q69 0 122 -17.5t101 -51.5q8 -5 14 -15t6 -24t-7 -25t-18 -16.5t-24 -5t-25 8.5q-42 30 -83 43.5t-88 13.5q-62 0 -98.5 -29t-36.5 -73q0 -22 7.5 -39.5t27.5 -32t54 -26.5t88 -24q59 -13 102 -30.5t71.5 -42t42.5 -57t14 -74.5q0 -46 -18 -83.5t-50 -64
t-76.5 -41t-97.5 -14.5zM258 -187q39 12 43 38q-17 5 -27.5 16.5t-10.5 31.5v5q0 22 15 36.5t39 14.5t39.5 -16t15.5 -44v-5q0 -34 -8.5 -56t-25.5 -38q-15 -15 -38.5 -23.5t-37.5 -8.5t-21.5 7t-7.5 16q0 20 25 26z" />
    <glyph glyph-name="scommaaccent" unicode="&#x219;" horiz-adv-x="498" 
d="M250 -10q-51 0 -104 18t-95 47q-7 5 -12.5 14t-5.5 21q0 17 12.5 29.5t30.5 12.5q7 0 13 -2.5t11 -5.5q37 -25 76 -38t78 -13q41 0 67.5 19t26.5 53q0 16 -9.5 28t-26 21t-38 16t-45.5 14q-30 9 -61 19.5t-56 27.5t-40.5 42.5t-15.5 63.5q0 35 13.5 63.5t37.5 48.5
t57.5 31t72.5 11q42 0 85 -12t81 -32q9 -5 16 -15.5t7 -24.5q0 -17 -12.5 -29.5t-30.5 -12.5q-12 0 -20 5q-32 18 -64.5 28t-63.5 10q-40 0 -63.5 -18t-23.5 -47q0 -15 10.5 -26t27.5 -20t39 -16.5t45 -14.5q29 -9 59 -21t54 -29.5t39.5 -43t15.5 -61.5q0 -38 -14.5 -68
t-40 -50.5t-59.5 -31.5t-74 -11zM185 -186q40 13 43 38q-17 5 -27.5 16.5t-10.5 31.5v5q0 22 15 36.5t39 14.5t39.5 -16t15.5 -44v-5q0 -34 -8.5 -56t-25.5 -38q-15 -15 -38.5 -23.5t-37.5 -8.5t-21.5 7t-7.5 16q0 20 25 26z" />
    <glyph glyph-name="Tcaron" unicode="&#x164;" horiz-adv-x="648" 
d="M549 698q22 -4 39.5 -15t16.5 -40q0 -21 -17 -32t-38 -10q-11 0 -26 2.5t-37 5.5t-52 5.5t-72 2.5v-572q0 -20 -14.5 -35t-34.5 -15t-34.5 15t-14.5 35v572q-78 -2 -119.5 -7.5t-55.5 -7.5q-2 -1 -4 -1h-4q-21 -1 -38 9.5t-17 31.5q-2 30 16 41t41 15q67 10 121.5 14.5
t108.5 4.5t110 -4.5t124 -14.5h1zM367 871q14 14 26 17.5t27 3.5q20 0 25.5 -15.5t-7.5 -29.5l-68 -84q-9 -11 -19 -18.5t-27 -7.5h-18q-17 0 -27 7.5t-19 18.5q-17 20 -34 42t-34 42q-13 14 -7.5 29.5t26.5 15.5q14 0 27 -4.5t27 -16.5q14 -11 25.5 -22.5t25.5 -23.5z" />
    <glyph glyph-name="tcaron" unicode="&#x165;" horiz-adv-x="404" 
d="M334 515q20 -3 35 -11.5t15 -34.5q1 -17 -14.5 -27t-32.5 -11q-29 3 -63 4.5t-65 1.5v-283q0 -42 20.5 -58.5t54.5 -16.5q11 0 20.5 1.5t15.5 3.5q2 0 3 0.5t3 0.5t4 1q20 0 30.5 -13t10.5 -28q0 -12 -7 -23t-20 -16q-17 -7 -36 -11t-42 -4q-32 0 -60 8.5t-48.5 27
t-32 47.5t-11.5 70v292q-20 -2 -32 -2.5t-31 -2.5t-33.5 8t-14.5 29q-1 26 15 35.5t35 11.5q14 2 24.5 2.5t36.5 2.5v114q0 20 13 34.5t33 14.5t34.5 -14.5t14.5 -34.5v-111q38 -1 71 -3t47 -4zM286 709q5 40 43 40h14q31 0 31 -31q0 -8 -5 -26q-8 -26 -17 -51.5t-17 -51.5
q-4 -14 -10.5 -20t-20.5 -6q-12 0 -20.5 7.5t-6.5 25.5z" />
    <glyph glyph-name="Tcommaaccent" unicode="&#x162;" horiz-adv-x="648" 
d="M549 698q22 -4 39.5 -15t16.5 -40q0 -21 -17 -32t-38 -10h-4.5t-4.5 1q-15 2 -58 7.5t-120 7.5v-572q0 -20 -14.5 -35t-34.5 -15t-34.5 15t-14.5 35v572q-78 -2 -119.5 -7.5t-55.5 -7.5q-2 -1 -4 -1h-4q-21 -1 -38 9.5t-17 31.5q-2 30 16 41t41 15q67 10 121.5 14.5
t108.5 4.5t110 -4.5t124 -14.5h1zM255 -186q40 13 43 38q-17 5 -27.5 16.5t-10.5 31.5v5q0 22 15 36.5t39 14.5t39.5 -16t15.5 -44v-5q0 -34 -8.5 -56t-25.5 -38q-15 -15 -38.5 -23.5t-37.5 -8.5t-21.5 7t-7.5 16q0 20 25 26z" />
    <glyph glyph-name="tcommaaccent" unicode="&#x163;" horiz-adv-x="404" 
d="M334 515q20 -3 35.5 -12t14.5 -35q0 -17 -15.5 -26.5t-31.5 -10.5q-29 3 -63 4.5t-65 1.5v-283q0 -42 20.5 -58.5t54.5 -16.5q11 0 20.5 1.5t15.5 3.5q2 0 3 0.5t3 0.5t4 1q20 0 30.5 -13t10.5 -28q0 -12 -7 -23t-20 -16q-17 -7 -36 -11t-42 -4q-32 0 -60 8.5t-48.5 27
t-32 47.5t-11.5 70v292q-20 -2 -32 -2.5t-31 -2.5t-33.5 8t-14.5 29q-1 26 15 35.5t35 11.5q8 1 14 1.5t12 0.5t14 0.5t21 2.5v114q0 20 13 34.5t33 14.5t34.5 -14.5t14.5 -34.5v-111q42 -1 74 -3.5t50 -4.5h1zM159 -186q40 12 44 38q-17 5 -28 16.5t-11 31.5v5
q0 22 15.5 36.5t39.5 14.5t39.5 -16t15.5 -44v-5q0 -34 -8.5 -56t-25.5 -38q-15 -15 -38.5 -23.5t-38.5 -8.5q-13 0 -20.5 7t-7.5 16q0 20 24 26z" />
    <glyph glyph-name="Thorn" unicode="&#xde;" horiz-adv-x="673" 
d="M87 656q0 20 14 34.5t33 14.5q20 0 34.5 -14.5t14.5 -34.5v-73h168q60 0 108.5 -15.5t83 -45t53.5 -71.5t19 -95q0 -58 -22 -101.5t-60 -73t-88.5 -44t-106.5 -14.5h-155v-79q0 -20 -14.5 -34.5t-34.5 -14.5q-19 0 -33 14.5t-14 34.5v612zM341 212q81 0 129 39t48 104
q0 68 -47.5 103t-125.5 35h-162v-281h158z" />
    <glyph glyph-name="thorn" unicode="&#xfe;" horiz-adv-x="664" 
d="M74 686q0 21 13.5 34.5t33.5 13.5t33.5 -13.5t13.5 -34.5v-246q32 38 76.5 65.5t106.5 27.5q47 0 92 -18t80 -53t56.5 -85.5t21.5 -115.5q0 -64 -21.5 -114.5t-56.5 -85.5t-80 -53.5t-92 -18.5q-65 0 -108.5 25t-74.5 63v-190q0 -20 -13 -33.5t-33 -13.5
q-21 0 -34.5 13.5t-13.5 33.5v799zM337 76q35 0 65.5 12.5t53.5 36.5t36 58.5t13 78.5q0 42 -13.5 76t-36.5 58t-53.5 37t-64.5 13q-33 0 -64 -13.5t-55 -38t-38.5 -58.5t-14.5 -75q0 -42 14.5 -76t38.5 -58t55 -37.5t64 -13.5z" />
    <glyph glyph-name="Uacute" unicode="&#xda;" horiz-adv-x="759" 
d="M648 648q11 -93 14.5 -168.5t3.5 -122.5q0 -14 -0.5 -25t-0.5 -19v-16q-1 -74 -23 -131t-61 -96t-93 -59.5t-120 -20.5q-65 0 -119 20.5t-92.5 59.5t-60.5 96t-23 131q0 5 -0.5 22t-0.5 38q0 48 3.5 123.5t14.5 168.5q3 22 15 39.5t41 16.5q21 0 32.5 -17t9.5 -39
q-9 -92 -12.5 -157t-5.5 -108q-2 -50 -1 -83q0 -107 53 -163.5t147 -56.5t147 56.5t53 163.5q1 33 -1 83q-2 43 -6 108t-12 157q-2 21 9 38t32 18q30 3 42.5 -15.5t14.5 -41.5zM367 737q-13 0 -21 6.5t-8 16.5q0 5 2.5 11t4.5 10q15 22 29.5 44t28.5 44q17 26 43 26
q10 0 21 -3.5t20 -9t15 -12t6 -13.5q0 -9 -4 -15.5t-12 -14.5l-73 -69q-22 -21 -52 -21z" />
    <glyph glyph-name="uacute" unicode="&#xfa;" horiz-adv-x="616" 
d="M266 -11q-48 0 -85.5 15.5t-63.5 43.5t-40 67t-14 86v281q0 20 14 34t34 14t33.5 -14t13.5 -34v-262q0 -46 16.5 -76.5t43.5 -46.5t61 -17t70 11q6 3 21.5 13.5t31 31.5t27 55t10.5 83t-7 96t-14 101v-1q-4 20 6 39t35 21q29 2 40 -15t15 -40q9 -71 14 -126.5t8 -105
t3 -96.5t-2 -101q-1 -26 -14.5 -42.5t-42.5 -15.5q-20 3 -30 19t-10 35v18.5t1 21.5q-29 -42 -70 -67.5t-105 -25.5zM293 575q-13 0 -21 6t-8 17q0 5 2.5 10.5t4.5 9.5q15 23 29.5 45t29.5 44q17 26 42 26q10 0 21.5 -3.5t20.5 -9t15 -12.5t6 -14q0 -8 -4.5 -14.5
t-12.5 -14.5l-73 -69q-12 -12 -24.5 -16.5t-27.5 -4.5z" />
    <glyph glyph-name="Ubreve" unicode="&#x16c;" horiz-adv-x="759" 
d="M648 648q7 -59 10.5 -107t5.5 -89t2 -78.5t-1 -76.5q-1 -74 -23 -131t-61 -96t-93 -59.5t-120 -20.5q-65 0 -119 20.5t-92.5 59.5t-60.5 96t-23 131v76.5t1.5 79t5 89t10.5 107.5q3 23 15 40.5t42 15.5q20 -1 31.5 -18t9.5 -38q-9 -92 -12.5 -157t-5.5 -108
q-2 -50 -1 -83q0 -107 53 -163.5t147 -56.5t147 56.5t53 163.5q1 33 -1 83q-2 43 -6 108t-12 157q-2 21 9 38t32 18q30 3 42.5 -15.5t14.5 -41.5zM368 737q-94 0 -137 76q-5 8 -7.5 19t-2.5 20q0 17 10 28t27 11q14 0 21.5 -6t12.5 -15q9 -23 27.5 -37t48.5 -14
q31 0 49.5 14t27.5 37q5 9 12.5 15t21.5 6q17 0 27 -11t10 -28q0 -9 -2.5 -20t-7.5 -19q-43 -76 -138 -76z" />
    <glyph glyph-name="ubreve" unicode="&#x16d;" horiz-adv-x="616" 
d="M266 -11q-48 0 -85.5 15.5t-63.5 43.5t-40 67t-14 86v281q0 20 14 34t34 14t33.5 -14t13.5 -34v-262q0 -46 16.5 -76.5t43.5 -46.5t61 -17t70 11q6 3 21.5 13.5t31 31.5t27 55t10.5 83t-7 96t-14 101v-1q-4 20 6 39t35 21q29 2 40 -15t15 -40q15 -106 19.5 -188t4.5 -146
v-51t-1 -44q-1 -26 -14.5 -42.5t-42.5 -15.5q-20 3 -30 19t-10 35v18.5t1 21.5q-29 -42 -70 -67.5t-105 -25.5zM295 577q-96 0 -137 75q-5 8 -8 19.5t-3 19.5q0 17 10 28t27 11q14 0 21.5 -6t12.5 -14q9 -23 27.5 -37.5t49.5 -14.5q30 0 48.5 14.5t27.5 37.5q5 8 12.5 14
t21.5 6q17 0 27 -11t10 -28q0 -8 -2.5 -19.5t-7.5 -19.5q-43 -75 -137 -75z" />
    <glyph glyph-name="Ucircumflex" unicode="&#xdb;" horiz-adv-x="759" 
d="M648 648q11 -93 14.5 -168.5t3.5 -122.5q0 -14 -0.5 -25t-0.5 -19v-16q-1 -74 -23 -131t-61 -96t-93 -59.5t-120 -20.5q-65 0 -119 20.5t-92.5 59.5t-60.5 96t-23 131q0 5 -0.5 22t-0.5 38q0 48 3.5 123.5t14.5 168.5q3 23 15 40.5t42 15.5q20 -1 31.5 -18t9.5 -38
q-9 -92 -12.5 -157t-5.5 -108q-2 -50 -1 -83q0 -107 53 -163.5t147 -56.5t147 56.5t53 163.5q1 33 -1 83q-2 43 -6 108t-12 157q-2 22 9.5 39t32.5 17h-1q30 3 42.5 -15.5t14.5 -41.5zM317 758q-14 -14 -25.5 -17.5t-28.5 -3.5q-12 0 -19.5 6.5t-7.5 16.5q0 8 8 21l69 85
q10 11 19.5 18.5t27.5 7.5h17q18 0 27.5 -7.5t19.5 -18.5l69 -85q8 -13 8 -21q0 -10 -8 -16.5t-20 -6.5q-17 0 -29 3.5t-26 17.5q-14 13 -25 22.5t-25 21.5z" />
    <glyph glyph-name="ucircumflex" unicode="&#xfb;" horiz-adv-x="616" 
d="M266 -11q-48 0 -85.5 15.5t-63.5 43.5t-40 67t-14 86v281q0 20 14 34t34 14t33.5 -14t13.5 -34v-262q0 -33 9.5 -59.5t26.5 -44.5t39.5 -28t49.5 -10q29 0 66 13q6 3 21.5 13.5t31 31.5t27 55t10.5 83t-7 96t-14 101v-1q-4 20 6 39t35 21q29 2 40 -15t15 -40
q15 -106 19.5 -188t4.5 -146v-51t-1 -44q-1 -26 -14.5 -42.5t-42.5 -15.5q-20 3 -30 19t-10 35v18.5t1 21.5q-29 -42 -70 -67.5t-105 -25.5zM243 596q-14 -14 -25.5 -17.5t-27.5 -3.5q-20 0 -26 14.5t6 28.5l69 86q10 11 20 18t27 7h17q18 0 27.5 -7t19.5 -18l69 -86
q13 -14 6.5 -28.5t-26.5 -14.5q-17 0 -29 3.5t-26 17.5q-14 13 -25 22t-25 22z" />
    <glyph glyph-name="Udieresis" unicode="&#xdc;" horiz-adv-x="759" 
d="M648 648q11 -93 14.5 -168.5t3.5 -122.5q0 -14 -0.5 -25t-0.5 -19v-16q-1 -74 -23 -131t-61 -96t-93 -59.5t-120 -20.5q-65 0 -119 20.5t-92.5 59.5t-60.5 96t-23 131q0 5 -0.5 22t-0.5 38q0 48 3.5 123.5t14.5 168.5q3 22 15 39.5t41 16.5q21 0 32.5 -17t9.5 -39
q-9 -92 -12.5 -157t-5.5 -108q-2 -50 -1 -83q0 -107 53 -163.5t147 -56.5t147 56.5t53 163.5q1 33 -1 83q-2 43 -6 108t-12 157q-2 22 9.5 39t32.5 17h-1q30 3 42.5 -15.5t14.5 -41.5zM455 858q23 0 39 -15.5t16 -38.5v-15q0 -23 -16 -38t-39 -15t-39 15t-16 38v15
q0 23 16 38.5t39 15.5zM282 858q23 0 39 -15.5t16 -38.5v-15q0 -23 -16 -38t-39 -15t-39 15t-16 38v15q0 23 16 38.5t39 15.5z" />
    <glyph glyph-name="udieresis" unicode="&#xfc;" horiz-adv-x="616" 
d="M266 -11q-48 0 -85.5 15.5t-63.5 43.5t-40 67t-14 86v281q0 20 14 34t34 14t33.5 -14t13.5 -34v-262q0 -46 16.5 -76.5t43.5 -46.5t61 -17t70 11q6 3 21.5 13.5t31 31.5t27 55t10.5 83t-7 96t-14 101v-1q-4 20 6 39t35 21q29 2 40 -15t15 -40q9 -71 14 -126.5t8 -105
t3 -96.5t-2 -101q-1 -26 -14.5 -42.5t-42.5 -15.5q-20 3 -30 19t-10 35v18.5t1 21.5q-29 -42 -70 -67.5t-105 -25.5zM381 695q23 0 39.5 -15t16.5 -38v-15q0 -23 -16.5 -38t-39.5 -15t-39 15t-16 38v15q0 23 16 38t39 15zM208 695q23 0 39 -15t16 -38v-15q0 -23 -16 -38
t-39 -15t-39 15t-16 38v15q0 23 16 38t39 15z" />
    <glyph glyph-name="Ugrave" unicode="&#xd9;" horiz-adv-x="759" 
d="M648 648q11 -93 14.5 -168.5t3.5 -122.5q0 -14 -0.5 -25t-0.5 -19v-16q-1 -74 -23 -131t-61 -96t-93 -59.5t-120 -20.5q-65 0 -119 20.5t-92.5 59.5t-60.5 96t-23 131q0 5 -0.5 22t-0.5 38q0 48 3.5 123.5t14.5 168.5q3 22 15 39.5t41 16.5q21 0 32.5 -17t9.5 -39
q-9 -92 -12.5 -157t-5.5 -108q-2 -50 -1 -83q0 -107 53 -163.5t147 -56.5t147 56.5t53 163.5q1 33 -1 83q-2 43 -6 108t-12 157q-2 22 9.5 39t32.5 17h-1q30 3 42.5 -15.5t14.5 -41.5zM370 737q-30 0 -52 21q-17 17 -36.5 35t-36.5 34q-8 8 -12.5 14.5t-4.5 15.5q0 7 6 13.5
t15 12t20 9t22 3.5q25 0 42 -26q15 -22 29.5 -44t29.5 -44q2 -4 4.5 -10t2.5 -11q0 -10 -8 -16.5t-21 -6.5z" />
    <glyph glyph-name="ugrave" unicode="&#xf9;" horiz-adv-x="616" 
d="M266 -11q-48 0 -85.5 15.5t-63.5 43.5t-40 67t-14 86v281q0 20 14 34t34 14t33.5 -14t13.5 -34v-262q0 -46 16.5 -76.5t43.5 -46.5t61 -17t70 11q6 3 21.5 13.5t31 31.5t27 55t10.5 83t-7 96t-14 101v-1q-4 20 6 39t35 21q29 2 40 -15t15 -40q9 -71 14 -126.5t8 -105
t3 -96.5t-2 -101q-1 -26 -14.5 -42.5t-42.5 -15.5q-20 3 -30 19t-10 35v18.5t1 21.5q-29 -42 -70 -67.5t-105 -25.5zM297 575q-16 0 -28 4.5t-25 16.5q-17 17 -36.5 35t-36.5 34q-8 8 -12 14.5t-4 14.5q0 7 6 14t15 12.5t20 9t21 3.5q14 0 24 -7t19 -19q14 -22 28.5 -44
t29.5 -45q2 -4 4.5 -9.5t2.5 -10.5q0 -11 -8 -17t-20 -6z" />
    <glyph glyph-name="Uhungarumlaut" unicode="&#x170;" horiz-adv-x="759" 
d="M648 648q7 -59 10.5 -107t5.5 -89t2 -78.5t-1 -76.5q-1 -74 -23 -131t-61 -96t-93 -59.5t-120 -20.5q-65 0 -119 20.5t-92.5 59.5t-60.5 96t-23 131v76.5t1.5 79t5 89t10.5 107.5q3 22 15 39.5t41 16.5q21 0 32.5 -17t9.5 -39q-9 -92 -12.5 -157t-5.5 -108q-2 -50 -1 -83
q0 -107 53 -163.5t147 -56.5t147 56.5t53 163.5q1 33 -1 83q-2 43 -6 108t-12 157q-2 22 9.5 39t32.5 17h-1q30 3 42.5 -15.5t14.5 -41.5zM436 737q-24 1 -28 14.5t6 29.5q15 22 30 44.5t29 44.5v-1q8 13 17.5 19.5t23.5 6.5q21 0 40.5 -11.5t19.5 -25.5t-15 -29l-72 -71
q-14 -14 -25 -17.5t-26 -3.5zM276 737q-23 1 -26.5 14.5t5.5 29.5q14 22 29.5 44.5t29.5 44.5v-1q8 13 17.5 19.5t23.5 6.5q10 0 20.5 -3.5t19 -8.5t14 -11.5t5.5 -13.5q0 -8 -4 -15t-10 -14l-72 -71q-14 -14 -25 -17.5t-27 -3.5z" />
    <glyph glyph-name="uhungarumlaut" unicode="&#x171;" horiz-adv-x="616" 
d="M266 -11q-48 0 -85.5 15.5t-63.5 43.5t-40 67t-14 86v281q0 20 14 34t34 14t33.5 -14t13.5 -34v-262q0 -46 16.5 -76.5t43.5 -46.5t61 -17t70 11q6 3 21.5 13.5t31 31.5t27 55t10.5 83t-7 96t-14 101v-1q-4 20 6 39t35 21q29 2 40 -15t15 -40q15 -106 19.5 -188t4.5 -146
v-51t-1 -44q-1 -26 -14.5 -42.5t-42.5 -15.5q-20 3 -30 19t-10 35v18.5t1 21.5q-29 -42 -70 -67.5t-105 -25.5zM362 575q-23 -1 -27 13.5t5 29.5q15 23 30 45.5t30 44.5v-1q8 12 17 19t23 7q21 0 40.5 -12t19.5 -26q0 -8 -4 -14.5t-11 -13.5l-72 -71q-14 -14 -25 -17.5
t-26 -3.5zM202 575q-23 0 -26.5 14t5.5 29q14 23 29.5 45.5t29.5 44.5v-1q8 12 17.5 19t23.5 7q10 0 20.5 -3.5t19 -8.5t14 -12t5.5 -14q0 -8 -4 -14.5t-10 -13.5l-72 -71q-14 -14 -25 -17.5t-27 -3.5z" />
    <glyph glyph-name="Umacron" unicode="&#x16a;" horiz-adv-x="759" 
d="M648 648q11 -93 14.5 -168.5t3.5 -122.5q0 -14 -0.5 -25t-0.5 -19v-16q-1 -74 -23 -131t-61 -96t-93 -59.5t-120 -20.5q-65 0 -119 20.5t-92.5 59.5t-60.5 96t-23 131q0 5 -0.5 22t-0.5 38q0 48 3.5 123.5t14.5 168.5q3 23 15 40.5t42 15.5q20 -1 31.5 -18t9.5 -38
q-9 -92 -12.5 -157t-5.5 -108q-2 -50 -1 -83q0 -107 53 -163.5t147 -56.5t147 56.5t53 163.5q1 33 -1 83q-2 43 -6 108t-12 157q-2 21 9 38t32 18q30 3 42.5 -15.5t14.5 -41.5zM240 760q-17 0 -29 12.5t-12 28.5q0 17 12 29t29 12h257q17 0 29 -12t12 -29q0 -16 -12 -28.5
t-29 -12.5h-257z" />
    <glyph glyph-name="umacron" unicode="&#x16b;" horiz-adv-x="616" 
d="M266 -11q-48 0 -85.5 15.5t-63.5 43.5t-40 67t-14 86v281q0 20 14 34t34 14t33.5 -14t13.5 -34v-262q0 -46 16.5 -76.5t43.5 -46.5t61 -17t70 11q6 3 21.5 13.5t31 31.5t27 55t10.5 83t-7 96t-14 101v-1q-4 20 6 39t35 21q29 2 40 -15t15 -40q15 -106 19.5 -188t4.5 -146
v-51t-1 -44q-1 -26 -14.5 -42.5t-42.5 -15.5q-20 3 -30 19t-10 35v18.5t1 21.5q-29 -42 -70 -67.5t-105 -25.5zM166 598q-17 0 -29 12t-12 29q0 16 12 28.5t29 12.5h257q17 0 29 -12.5t12 -28.5q0 -17 -12 -29t-29 -12h-257z" />
    <glyph glyph-name="Uogonek" unicode="&#x172;" horiz-adv-x="759" 
d="M648 648q12 -94 15.5 -169t3.5 -122q0 -14 -0.5 -25t-0.5 -19v-16q-2 -123 -59.5 -200t-153.5 -99l2 1q-21 -8 -40 -23.5t-19 -39.5q0 -14 12.5 -21.5t29.5 -11.5q35 -7 35 -33q0 -15 -9.5 -23.5t-26.5 -8.5q-14 0 -35.5 3.5t-41.5 13t-34 26.5t-14 44q0 17 5.5 34
t16.5 32q-80 12 -131 40.5t-80.5 73.5t-40.5 105.5t-11 135.5q0 67 6 142.5t13 160.5q4 23 16 40.5t42 15.5q19 -1 30.5 -18.5t9.5 -37.5q-8 -90 -11.5 -155t-5.5 -108q-2 -50 -1 -85q0 -107 53 -164t146 -57q94 0 147 57t53 164v31q0 35 -3 112t-15 205q-2 21 9 38t32 18
q30 2 41.5 -15.5t14.5 -40.5v-1z" />
    <glyph glyph-name="uogonek" unicode="&#x173;" horiz-adv-x="616" 
d="M499 -95q20 -3 28.5 -11t8.5 -22q0 -31 -37 -31q-18 0 -40.5 6.5t-42 20t-31.5 35.5t-7 53q3 17 15 39.5t26 39.5q0 4 1 7q-26 -27 -67.5 -41.5t-86.5 -14.5q-32 0 -63 9t-53 26q-24 19 -42 46q-16 23 -29.5 59t-14.5 85q-1 36 -1 65t1.5 58.5t5.5 62.5t11 76
q2 12 5.5 22.5t10 18.5t16 12t24.5 3q20 -1 30.5 -17.5t9.5 -36.5q0 -9 -3 -22t-6 -35.5t-5.5 -56.5t-2.5 -85q1 -40 5.5 -76.5t18 -64.5t39.5 -45t71 -17q46 0 74 16t43 43.5t20 64.5t5 79q0 51 -2 85t-5 56t-5.5 35t-4.5 22q-2 20 9 37t31 18q15 1 25 -3t16 -12t9.5 -18.5
t5.5 -22.5q10 -62 14.5 -108.5t4.5 -89.5q0 -46 -4.5 -92.5t-11.5 -108.5q-1 -7 -1.5 -14.5t-1.5 -14.5q-3 -17 -11.5 -26t-17.5 -17q-11 -10 -20 -22.5t-10 -41.5q-1 -15 11.5 -21.5t32.5 -11.5h-1z" />
    <glyph glyph-name="Uring" unicode="&#x16e;" horiz-adv-x="759" 
d="M648 648q7 -59 10.5 -107t5.5 -89t2 -78.5t-1 -76.5q-1 -74 -23 -131t-61 -96t-93 -59.5t-120 -20.5q-65 0 -119 20.5t-92.5 59.5t-60.5 96t-23 131v76.5t1.5 79t5 89t10.5 107.5q3 23 15 40.5t42 15.5q20 -1 31.5 -18t9.5 -38q-9 -92 -12.5 -157t-5.5 -108
q-2 -50 -1 -83q0 -107 53 -163.5t147 -56.5t147 56.5t53 163.5q1 33 -1 83q-2 43 -6 108t-12 157q-2 21 9 38t32 18q30 3 42.5 -15.5t14.5 -41.5zM368 727q-22 0 -42 8.5t-35 23t-24 34t-9 42.5q0 22 9 41t24 33.5t35 23t42 8.5t42 -8.5t35.5 -23t24.5 -34.5t9 -42
q0 -21 -9 -40.5t-24.5 -34t-35.5 -23t-42 -8.5zM368 784q21 0 36 15t15 36q0 20 -14.5 35t-36.5 15q-21 0 -35.5 -15.5t-14.5 -36.5q0 -20 15 -34.5t35 -14.5z" />
    <glyph glyph-name="uring" unicode="&#x16f;" horiz-adv-x="616" 
d="M266 -11q-48 0 -85.5 15.5t-63.5 43.5t-40 67t-14 86v281q0 20 14 34t34 14t33.5 -14t13.5 -34v-262q0 -46 16.5 -76.5t43.5 -46.5t61 -17t70 11q6 3 21.5 13.5t31 31.5t27 55t10.5 83t-7 96t-14 101v-1q-4 20 6 39t35 21q29 2 40 -15t15 -40q15 -106 19.5 -188t4.5 -146
v-51t-1 -44q-1 -26 -14.5 -42.5t-42.5 -15.5q-20 3 -30 19t-10 35v18.5t1 21.5q-29 -42 -70 -67.5t-105 -25.5zM295 574q-22 0 -42 8.5t-35.5 23t-24.5 34t-9 42.5q0 21 9 40.5t24.5 34t35.5 23t42 8.5t42 -8.5t35 -23t24 -34.5t9 -42t-9 -41t-24 -33.5t-35 -23t-42 -8.5z
M295 630q20 0 35 15t15 37q0 20 -14.5 34.5t-35.5 14.5q-22 0 -36.5 -15t-14.5 -36t15 -35.5t36 -14.5z" />
    <glyph glyph-name="Wacute" unicode="&#x1e82;" horiz-adv-x="1101" 
d="M1001 713q19 0 37 -13t15 -36q-6 -41 -16 -92.5t-23.5 -108.5t-29 -116.5t-32 -115.5t-33.5 -106t-32 -89q-11 -24 -27.5 -32t-34.5 -7h-4q-21 0 -37 10.5t-26 25.5q-27 45 -57.5 107t-60.5 131t-58.5 140t-51.5 133q-23 -63 -51.5 -133.5t-59.5 -139.5t-61.5 -131
t-56.5 -107q-9 -15 -26 -25.5t-36 -11.5h-6q-17 2 -33 11t-25 31q-15 38 -31 87t-32 104.5t-31.5 113.5t-28.5 112.5t-23.5 102.5t-16.5 84q-2 12 -1 24.5t6.5 23t15.5 17t25 6.5q17 0 30 -8.5t17 -25.5q19 -93 42 -190q10 -41 21 -87t23 -93.5t25 -94.5t27 -91
q21 39 42.5 83.5t42.5 91t40.5 93t37.5 89.5q40 100 79 201q7 15 17.5 23.5t29.5 8.5q17 0 26 -8.5t16 -23.5q37 -101 77 -200q17 -42 37 -88.5t41.5 -93t43.5 -91.5t45 -85q32 104 57 203t43 178q21 92 38 175q4 17 16 25.5t29 8.5zM533 737q-22 -1 -26 14.5t4 29.5
q15 22 29.5 44t29.5 44q16 26 43 26q10 0 21 -3.5t20 -9t15 -12t6 -13.5q0 -9 -4.5 -15.5t-12.5 -14.5l-73 -69q-22 -21 -52 -21z" />
    <glyph glyph-name="wacute" unicode="&#x1e83;" horiz-adv-x="858" 
d="M248 -8q-35 0 -51 41q-17 49 -36.5 103t-39.5 109.5t-39.5 109.5t-36.5 103q-4 12 -4.5 24t4 22t15 16.5t27.5 6.5q19 0 30.5 -10.5t16.5 -27.5q15 -47 29.5 -90t28.5 -85t28.5 -85t30.5 -90q30 89 59.5 175.5t58.5 175.5q6 16 17.5 26.5t28.5 10.5h4q18 0 30 -10.5
t18 -26.5l117 -352l119 353q5 14 15.5 25t30.5 11q16 0 26 -6.5t14.5 -16.5t4.5 -22t-4 -23l-154 -426q-8 -19 -21.5 -30t-31.5 -11q-36 0 -50 41q-15 46 -29.5 88t-28.5 83t-28 83t-30 87q-29 -85 -58.5 -170.5t-58.5 -170.5q-12 -41 -50 -41h-2zM414 575q-22 -1 -25.5 14
t4.5 29q14 23 29 45t29 44q9 13 19 19.5t24 6.5q10 0 21 -3.5t20 -9t15 -12.5t6 -14q0 -8 -4.5 -14.5t-11.5 -14.5l-73 -69q-13 -12 -25 -16.5t-28 -4.5z" />
    <glyph glyph-name="Wcircumflex" unicode="&#x174;" horiz-adv-x="1101" 
d="M1006 713q19 0 37 -13t15 -36q-6 -41 -16.5 -92.5t-24 -108.5t-29 -116.5t-32 -115.5t-33 -106t-31.5 -89q-11 -24 -27.5 -32t-34.5 -7h-5q-20 0 -36 10.5t-26 25.5q-27 45 -57.5 107t-60.5 131t-58.5 140t-51.5 133q-23 -63 -52 -133.5t-59.5 -139.5t-61 -131
t-56.5 -107q-9 -15 -26 -25.5t-36 -11.5h-6q-17 2 -33 11t-25 31q-15 38 -31 87t-32 104.5t-31.5 113.5t-28.5 112.5t-23.5 102.5t-16.5 84q-2 12 -1 24.5t6.5 23t15.5 17t25 6.5q17 0 30 -8.5t17 -25.5q19 -93 42 -190q10 -41 21 -87t23 -93.5t25 -94.5t27 -91
q21 39 42.5 83.5t42.5 91t40.5 93t37.5 89.5q40 100 79 201q7 15 17 23.5t30 8.5q17 0 26 -8.5t15 -23.5q37 -101 77 -200q17 -42 37 -88.5t41.5 -93t44 -91.5t45.5 -85q32 104 57 203t43 178q21 92 38 175q3 17 15.5 25.5t29.5 8.5zM483 758q-14 -14 -25.5 -17.5
t-27.5 -3.5q-20 0 -25.5 15t5.5 29l69 85q10 11 20 18.5t27 7.5h17q18 0 28 -7.5t19 -18.5l69 -85q12 -14 6 -29t-26 -15q-17 0 -29 3.5t-26 17.5q-14 13 -25 22.5t-25 21.5z" />
    <glyph glyph-name="wcircumflex" unicode="&#x175;" horiz-adv-x="858" 
d="M749 535q25 -5 31.5 -23t5.5 -39q-11 -52 -28.5 -108.5t-39 -113.5t-45 -113t-47.5 -106q-7 -13 -19.5 -26.5t-27.5 -13.5t-26.5 12.5t-19.5 27.5q-33 69 -63 139t-54 144q-12 -34 -26 -70.5t-29 -73.5t-31 -72.5t-31 -66.5q-8 -15 -17 -27.5t-28 -12.5
q-17 -2 -28.5 11.5t-19.5 28.5q-24 50 -48 105.5t-45 112.5t-38 114t-28 110q-1 20 7 37.5t31 23.5q17 2 29.5 -10.5t16.5 -29.5q14 -78 45.5 -171.5t76.5 -194.5q43 98 74 191t46 169q1 17 12.5 32t30.5 14q18 1 30 -14t13 -32q15 -76 46.5 -169.5t73.5 -190.5
q45 100 77 195t46 171q3 17 16 30.5t31 9.5zM365 596q-14 -14 -25.5 -17.5t-28.5 -3.5q-20 0 -25.5 14.5t6.5 28.5l69 86q9 11 19 18t27 7h18q17 0 27 -7t20 -18l69 -86q11 -14 5 -28.5t-26 -14.5q-16 0 -28 3.5t-26 17.5q-14 13 -25.5 22t-25.5 22z" />
    <glyph glyph-name="Wdieresis" unicode="&#x1e84;" horiz-adv-x="1101" 
d="M1003 713q19 0 37 -13t15 -36q-6 -41 -16 -92.5t-23.5 -108.5t-29 -116.5t-32 -115.5t-33.5 -106t-32 -89q-11 -24 -27.5 -32t-34.5 -7h-4q-21 0 -37 10.5t-26 25.5q-27 45 -57.5 107t-60.5 131t-58.5 140t-51.5 133q-23 -63 -51.5 -133.5t-59.5 -139.5t-61.5 -131
t-56.5 -107q-9 -15 -26 -25.5t-36 -11.5h-6q-17 2 -33 11t-25 31q-15 38 -31 87t-32 104.5t-31.5 113.5t-28.5 112.5t-23.5 102.5t-16.5 84q-2 12 -1 24.5t6.5 23t15.5 17t25 6.5q17 0 30 -8.5t17 -25.5q19 -93 42 -190q10 -41 21 -87t23 -93.5t25 -94.5t27 -91
q21 39 42.5 83.5t42.5 91t40.5 93t37.5 89.5q40 100 79 201q7 15 17 23.5t30 8.5q17 0 26 -8.5t16 -23.5q37 -101 77 -200q17 -42 37 -88.5t41.5 -93t43.5 -91.5t45 -85q32 104 57 203t43 178q21 92 38 175q4 17 16 25.5t29 8.5zM621 858q23 0 39.5 -15.5t16.5 -38.5v-15
q0 -23 -16.5 -38t-39.5 -15t-39 15t-16 38v15q0 23 16 38.5t39 15.5zM448 858q23 0 39.5 -15.5t16.5 -38.5v-15q0 -23 -16.5 -38t-39.5 -15t-39 15t-16 38v15q0 23 16 38.5t39 15.5z" />
    <glyph glyph-name="wdieresis" unicode="&#x1e85;" horiz-adv-x="858" 
d="M248 -8q-35 0 -51 41q-17 49 -36.5 103t-39.5 109.5t-39.5 109.5t-36.5 103q-4 12 -4.5 24t4 22t15 16.5t27.5 6.5q19 0 30.5 -10.5t16.5 -27.5q15 -47 29.5 -90t28.5 -85t28.5 -85t30.5 -90q30 89 59.5 175.5t58.5 175.5q6 16 17.5 26.5t28.5 10.5h4q18 0 30 -10.5
t18 -26.5l117 -352l119 353q5 14 15.5 25t30.5 11q16 0 26 -6.5t14.5 -16.5t4.5 -22t-4 -23l-154 -426q-8 -19 -21.5 -30t-31.5 -11q-36 0 -50 41q-15 46 -29.5 88t-28.5 83t-28 83t-30 87q-29 -85 -58.5 -170.5t-58.5 -170.5q-12 -41 -50 -41h-2zM503 695q23 0 39 -15
t16 -38v-15q0 -23 -16 -38t-39 -15t-39.5 15t-16.5 38v15q0 23 16.5 38t39.5 15zM330 695q23 0 39 -15t16 -38v-15q0 -23 -16 -38t-39 -15q-24 0 -40 15t-16 38v15q0 23 16 38t40 15z" />
    <glyph glyph-name="Wgrave" unicode="&#x1e80;" horiz-adv-x="1101" 
d="M1001 713q19 0 37 -13t15 -36q-6 -41 -16 -92.5t-23.5 -108.5t-29 -116.5t-32 -115.5t-33.5 -106t-32 -89q-11 -24 -27.5 -32t-34.5 -7h-4q-21 0 -37 10.5t-26 25.5q-27 45 -57.5 107t-60.5 131t-58.5 140t-51.5 133q-23 -63 -51.5 -133.5t-59.5 -139.5t-61.5 -131
t-56.5 -107q-9 -15 -26 -25.5t-36 -11.5h-6q-17 2 -33 11t-25 31q-15 38 -31 87t-32 104.5t-31.5 113.5t-28.5 112.5t-23.5 102.5t-16.5 84q-2 12 -1 24.5t6.5 23t15.5 17t25 6.5q17 0 30 -8.5t17 -25.5q19 -93 42 -190q10 -41 21 -87t23 -93.5t25 -94.5t27 -91
q21 39 42.5 83.5t42.5 91t40.5 93t37.5 89.5q40 100 79 201q7 15 17.5 23.5t29.5 8.5q17 0 26 -8.5t16 -23.5q37 -101 77 -200q17 -42 37 -88.5t41.5 -93t43.5 -91.5t45 -85q32 104 57 203t43 178q21 92 38 175q4 17 16 25.5t29 8.5zM537 737q-29 0 -53 21q-17 17 -36 35
t-37 34q-7 8 -11.5 14.5t-4.5 15.5q0 7 6 13.5t15 12t20 9t21 3.5q25 0 43 -26q14 -22 29 -44t29 -44q8 -14 4.5 -29t-25.5 -15z" />
    <glyph glyph-name="wgrave" unicode="&#x1e81;" horiz-adv-x="858" 
d="M248 -8q-35 0 -51 41q-17 49 -36.5 103t-39.5 109.5t-39.5 109.5t-36.5 103q-4 12 -4.5 24t4 22t15 16.5t27.5 6.5q19 0 30.5 -10.5t16.5 -27.5h-1q16 -47 30.5 -90t28.5 -85t28.5 -85t30.5 -90q30 89 59.5 175.5t58.5 175.5q6 16 17.5 26.5t28.5 10.5h4q18 0 30 -10.5
t18 -26.5l117 -352l119 353q5 14 15.5 25t30.5 11q16 0 26 -6.5t14.5 -16.5t4.5 -22t-4 -23l-154 -426q-8 -19 -21.5 -30t-31.5 -11q-36 0 -50 41q-15 46 -29.5 88t-28.5 83t-28 83t-30 87q-29 -85 -58.5 -170.5t-58.5 -170.5q-12 -41 -50 -41h-2zM418 575q-15 0 -27.5 4.5
t-24.5 16.5q-18 17 -37 35t-36 34q-8 8 -12.5 14.5t-4.5 14.5q0 7 6 14t15 12.5t20 9t21 3.5q14 0 24 -7t19 -19q15 -22 29.5 -44t28.5 -45q8 -14 4.5 -29t-25.5 -14z" />
    <glyph glyph-name="Yacute" unicode="&#xdd;" horiz-adv-x="708" 
d="M606 710q14 1 25.5 -6t17.5 -18.5t6 -24.5t-7 -25l-1 -1q-11 -27 -27.5 -56.5t-36 -59.5t-41.5 -59.5t-43 -56.5q-50 -63 -106 -127v-230q0 -20 -14.5 -35t-34.5 -15h-4q-20 0 -34 15t-14 35v230q-3 3 -19 21t-39.5 46t-52 63t-55.5 74t-50.5 78.5t-37.5 76.5l-1 1
q-8 12 -8 25t6.5 24t18 18t25.5 7t27 -9t18 -20q14 -34 35.5 -71t45.5 -73t47.5 -68.5t42.5 -57.5t31 -39.5t13 -14.5q48 55 90 111q18 24 37 50.5t36 54.5t32 55t26 53q6 11 19 20t27 9zM342 737q-22 0 -25.5 15t4.5 29q14 22 29 44t29 44q17 26 43 26q10 0 21 -3.5t20 -9
t15 -12t6 -13.5q0 -9 -4.5 -15.5t-11.5 -14.5l-73 -69q-24 -21 -53 -21z" />
    <glyph glyph-name="yacute" unicode="&#xfd;" horiz-adv-x="587" 
d="M485 528q13 0 23.5 -6.5t16.5 -16.5t7 -22t-5 -24q-23 -54 -48 -114.5t-50.5 -121.5t-51 -121.5t-47.5 -114.5q-17 -41 -36 -69t-40.5 -45.5t-46.5 -25.5t-55 -8q-25 0 -45.5 3.5t-40.5 11.5q-13 5 -21.5 15t-8.5 27q0 15 6 23.5t15.5 13t20.5 4t21 -3.5t21 -5.5t31 -2.5
q30 0 49.5 17t36.5 53l6 13q-36 55 -66.5 107.5t-55.5 107t-46 114t-39 129.5q-4 20 1.5 38.5t31.5 23.5q18 4 31 -7t18 -28q10 -39 26.5 -86t38 -98.5t47 -105t55.5 -105.5q38 99 77.5 198t77.5 198q5 13 16.5 23.5t28.5 10.5zM286 575q-23 -1 -25.5 13.5t3.5 29.5
q15 23 29.5 45t29.5 44q17 26 43 26q10 0 21 -3.5t20 -9t15 -12.5t6 -14q0 -8 -4.5 -14.5t-12.5 -14.5l-73 -69q-12 -12 -24.5 -16.5t-27.5 -4.5z" />
    <glyph glyph-name="Ycircumflex" unicode="&#x176;" horiz-adv-x="708" 
d="M606 710q27 0 36.5 -14t9.5 -31q0 -8 -2 -16.5t-4 -16.5q-11 -26 -27.5 -55t-36.5 -59t-41.5 -59.5t-42.5 -56.5q-49 -63 -105 -126v-230q0 -20 -14.5 -35t-34.5 -15h-4q-20 0 -34 15t-14 35l2 231q-56 61 -106 123q-21 26 -43 55.5t-42 59.5t-37 60t-27 57q-7 16 -7 33
t10 31t37 14q14 0 27 -9t18 -20q14 -34 35.5 -71t45.5 -73t47.5 -68.5t42.5 -57.5t31 -39.5t13 -14.5q48 55 90 111q18 24 37 50.5t36 54.5t32 55t26 53q6 11 19 20t27 9zM293 758q-14 -14 -25.5 -17.5t-28.5 -3.5q-20 0 -25.5 15t6.5 29l69 85q9 11 19 18.5t27 7.5h18
q17 0 27 -7.5t20 -18.5l69 -85q11 -14 5.5 -29t-26.5 -15q-16 0 -28 3.5t-26 17.5q-14 13 -25.5 22.5t-25.5 21.5z" />
    <glyph glyph-name="ycircumflex" unicode="&#x177;" horiz-adv-x="587" 
d="M485 528q13 0 23.5 -6.5t16.5 -16.5t7 -22t-5 -24q-23 -54 -48 -114.5t-50.5 -121.5t-51 -121.5t-47.5 -114.5q-17 -41 -36 -69t-40.5 -45.5t-46.5 -25.5t-55 -8q-25 0 -45.5 3.5t-40.5 11.5q-16 6 -23 16.5t-7 21.5q0 10 4.5 19.5t13 16t20 8.5t25.5 -3q10 -3 21 -5.5
t31 -2.5q30 0 49.5 17t36.5 53l6 13q-36 55 -66.5 107.5t-55.5 107t-46 114t-39 129.5q-4 20 1.5 38.5t31.5 23.5q18 4 31 -7t18 -28q10 -39 26.5 -86t38 -98.5t47 -105t55.5 -105.5q38 99 77.5 198t77.5 198q5 13 16.5 23.5t28.5 10.5zM236 596q-14 -14 -25.5 -17.5
t-27.5 -3.5q-20 0 -25.5 14.5t5.5 28.5l69 86q10 11 20 18t27 7h18q17 0 27 -7t19 -18l69 -86q13 -14 6.5 -28.5t-26.5 -14.5q-17 0 -29 3.5t-26 17.5q-14 13 -25 22t-25 22z" />
    <glyph glyph-name="Ydieresis" unicode="&#x178;" horiz-adv-x="708" 
d="M606 710q14 1 25.5 -6t17.5 -18.5t6 -24.5t-7 -25l-1 -1q-11 -27 -27.5 -56.5t-36 -59.5t-41.5 -59.5t-43 -56.5q-50 -63 -106 -127v-230q0 -20 -14.5 -35t-34.5 -15h-4q-20 0 -34 15t-14 35v230q-3 3 -19 21t-39.5 46t-52 63t-55.5 74t-50.5 78.5t-37.5 76.5l-1 1
q-8 12 -8 25t6.5 24t18 18t25.5 7t27 -9t18 -20q14 -34 35.5 -71t45.5 -73t47.5 -68.5t42.5 -57.5t31 -39.5t13 -14.5q48 55 90 111q18 24 37 50.5t36 54.5t32 55t26 53q6 11 19 20t27 9zM431 858q23 0 39 -15.5t16 -38.5v-15q0 -23 -16 -38t-39 -15t-39.5 15t-16.5 38v15
q0 23 16.5 38.5t39.5 15.5zM258 858q23 0 39 -15.5t16 -38.5v-15q0 -23 -16 -38t-39 -15t-39.5 15t-16.5 38v15q0 23 16.5 38.5t39.5 15.5z" />
    <glyph glyph-name="ydieresis" unicode="&#xff;" horiz-adv-x="587" 
d="M485 528q13 0 23.5 -6.5t16.5 -16.5t7 -22t-5 -24q-23 -54 -48 -114.5t-50.5 -121.5t-51 -121.5t-47.5 -114.5q-17 -41 -36 -69t-40.5 -45.5t-46.5 -25.5t-55 -8q-25 0 -45.5 3.5t-40.5 11.5q-13 5 -21.5 15t-8.5 27q0 15 6 23.5t15.5 13t20.5 4t21 -3.5t21 -5.5t31 -2.5
q30 0 49.5 17t36.5 53l6 13q-36 55 -66.5 107.5t-55.5 107t-46 114t-39 129.5q-4 20 1.5 38.5t31.5 23.5q18 4 31 -7t18 -28q10 -39 26.5 -86t38 -98.5t47 -105t55.5 -105.5q38 99 77.5 198t77.5 198q5 13 16.5 23.5t28.5 10.5zM374 695q23 0 39.5 -15t16.5 -38v-15
q0 -23 -16.5 -38t-39.5 -15t-39 15t-16 38v15q0 23 16 38t39 15zM201 695q23 0 39.5 -15t16.5 -38v-15q0 -23 -16.5 -38t-39.5 -15t-39 15t-16 38v15q0 23 16 38t39 15z" />
    <glyph glyph-name="Ygrave" unicode="&#x1ef2;" horiz-adv-x="708" 
d="M606 710q19 0 29.5 -7.5t14 -19t2 -25t-5.5 -26.5q-11 -26 -27.5 -55t-36.5 -59t-41.5 -59.5t-42.5 -56.5q-49 -63 -105 -126v-230q0 -20 -14.5 -35t-34.5 -15h-4q-20 0 -34 15t-14 35l2 231q-56 61 -106 123q-21 26 -43 55.5t-42 59.5t-37 60t-27 57q-5 12 -6.5 25.5
t2.5 25.5t14.5 19.5t29.5 7.5q14 0 27 -9t18 -20q14 -34 35.5 -71t45.5 -73t47.5 -68.5t42.5 -57.5t31 -39.5t13 -14.5q48 55 90 111q18 24 37 50.5t36 54.5t32 55t26 53q6 11 19 20t27 9zM346 737q-30 0 -52 21q-18 17 -37 35t-36 34q-8 8 -12.5 14.5t-4.5 15.5q0 7 6 13.5
t15 12t20 9t21 3.5q26 0 43 -26q15 -22 29.5 -44t29.5 -44q2 -4 4 -10t2 -11q0 -10 -7.5 -16.5t-20.5 -6.5z" />
    <glyph glyph-name="ygrave" unicode="&#x1ef3;" horiz-adv-x="587" 
d="M485 528q13 0 23.5 -6.5t16.5 -16.5t7 -22t-5 -24q-23 -54 -48 -114.5t-50.5 -121.5t-51 -121.5t-47.5 -114.5q-17 -41 -36 -69t-40.5 -45.5t-46.5 -25.5t-55 -8q-25 0 -45.5 3.5t-40.5 11.5q-13 5 -21.5 15t-8.5 27q0 15 6 23.5t15.5 13t20.5 4t21 -3.5t21 -5.5t31 -2.5
q30 0 49.5 17t36.5 53l6 13q-36 55 -66.5 107.5t-55.5 107t-46 114t-39 129.5q-4 20 1.5 38.5t31.5 23.5q18 4 31 -7t18 -28q10 -39 26.5 -86t38 -98.5t47 -105t55.5 -105.5q38 99 77.5 198t77.5 198q5 13 16.5 23.5t28.5 10.5zM290 575q-16 0 -28 4.5t-25 16.5
q-17 17 -36 35t-37 34q-7 8 -11.5 14.5t-4.5 14.5q0 7 6 14t15 12.5t20 9t21 3.5q14 0 24 -7t19 -19q14 -22 29 -44t29 -45q2 -4 4.5 -9.5t2.5 -10.5q0 -11 -8 -17t-20 -6z" />
    <glyph glyph-name="Zacute" unicode="&#x179;" horiz-adv-x="693" 
d="M578 90q19 0 32.5 -13t13.5 -30q0 -20 -13.5 -32.5t-32.5 -12.5h-472q-24 -4 -39 12t-15 37q0 8 3 17.5t10 16.5q20 22 52 60t69.5 85t78.5 99.5t80.5 104t75 98.5t62.5 84h-375q-18 0 -32 13.5t-14 30.5q0 19 14 32t32 13h466q23 0 33.5 -14.5t10.5 -32.5q0 -20 -14 -37
q-18 -28 -46 -68t-62.5 -87t-73 -98t-78 -100.5t-77 -95.5t-68.5 -82h379zM342 737q-22 0 -25.5 15t4.5 29q14 22 29 44t29 44q17 26 43 26q10 0 21 -3.5t20 -9t15 -12t6 -13.5q0 -9 -4.5 -15.5t-11.5 -14.5l-73 -69q-24 -21 -53 -21z" />
    <glyph glyph-name="zacute" unicode="&#x17a;" horiz-adv-x="556" 
d="M473 83q17 0 29.5 -12.5t12.5 -28.5q0 -17 -12.5 -29.5t-29.5 -12.5h-373q-21 0 -33.5 13.5t-12.5 31.5q0 9 4.5 18.5t12.5 17.5q58 52 104.5 96.5t85 87t71 85t63.5 89.5h-294q-17 1 -28 12.5t-11 28.5t12.5 29.5t29.5 12.5h359q23 2 35 -11.5t12 -32.5q0 -8 -2 -17
t-8 -16q-40 -62 -75.5 -111t-70.5 -91.5t-72.5 -81t-81.5 -78.5h273zM272 575q-22 -1 -25.5 14t4.5 29q14 23 29 45t29 44q9 13 19 19.5t24 6.5q10 0 21 -3.5t20 -9t15 -12.5t6 -14q0 -8 -4.5 -14.5t-11.5 -14.5l-73 -69q-13 -12 -25 -16.5t-28 -4.5z" />
    <glyph glyph-name="Zcaron" unicode="&#x17d;" horiz-adv-x="693" 
d="M578 88q19 0 32.5 -13t13.5 -30q0 -20 -13.5 -32.5t-32.5 -12.5h-472q-17 -3 -29.5 5.5t-19 22t-5 29t12.5 26.5q20 22 52 59.5t69.5 84t78.5 99t80.5 104t75 98.5t62.5 84h-375q-18 0 -32 13t-14 30q0 20 14 32.5t32 12.5h466q16 0 26.5 -9t14.5 -22t1.5 -28t-13.5 -26
l1 1q-17 -27 -44.5 -66.5t-62 -85.5t-73.5 -97t-78 -100.5t-77 -95.5t-70 -83h379zM396 871q14 14 26 17.5t27 3.5q20 0 25 -15.5t-6 -29.5l-68 -84q-10 -11 -20 -18.5t-27 -7.5h-18q-17 0 -27 7.5t-19 18.5q-17 20 -34 42t-34 42q-14 14 -7.5 29.5t26.5 15.5q15 0 28 -4.5
t27 -16.5q13 -11 25 -22.5t25 -23.5z" />
    <glyph glyph-name="zcaron" unicode="&#x17e;" horiz-adv-x="556" 
d="M90 0q-18 1 -28.5 9t-13.5 20t0.5 26t13.5 27q78 92 152.5 178.5t153.5 178.5h-274q-17 0 -29 12t-12 29t12 29.5t29 12.5h359q19 -1 29.5 -9t14 -20t-0.5 -26.5t-15 -26.5q-78 -92 -152 -178.5t-153 -178.5h286q17 0 29.5 -12.5t12.5 -28.5q0 -17 -12.5 -29.5
t-29.5 -12.5h-372zM326 709q14 13 26 16.5t27 3.5q21 0 25.5 -15.5t-6.5 -29.5l-68 -83q-10 -12 -20 -19t-27 -7h-18q-17 0 -27 7t-19 19q-17 20 -34 41.5t-34 41.5q-13 14 -7.5 29.5t26.5 15.5q15 0 28 -4.5t27 -15.5q13 -12 25 -23t25 -23z" />
    <glyph glyph-name="Zdotaccent" unicode="&#x17b;" horiz-adv-x="693" 
d="M578 90q19 0 32.5 -13t13.5 -30q0 -20 -13.5 -32.5t-32.5 -12.5h-472q-24 -4 -39 12t-15 37q0 8 3 17.5t10 16.5q20 22 52 60t69.5 85t78.5 99.5t80.5 104t75 98.5t62.5 84h-375q-18 0 -32 13.5t-14 30.5q0 19 14 32t32 13h466q23 0 33.5 -14.5t10.5 -32.5q0 -20 -14 -37
q-18 -28 -46 -68t-62.5 -87t-73 -98t-78 -100.5t-77 -95.5t-68.5 -82h379zM401 790q0 -24 -16.5 -39t-40.5 -15t-40 15t-16 39v14q0 24 16 39t40 15t40.5 -15t16.5 -39v-14z" />
    <glyph glyph-name="zdotaccent" unicode="&#x17c;" horiz-adv-x="556" 
d="M473 83q17 0 29.5 -12.5t12.5 -28.5q0 -17 -12.5 -29.5t-29.5 -12.5h-373q-18 0 -32 11.5t-14 29.5q-1 22 17 40q58 52 104.5 96.5t85 87t71 85t63.5 89.5h-294q-17 1 -28 12.5t-11 28.5t12.5 29.5t29.5 12.5h360q20 3 33 -9.5t13 -30.5q0 -11 -2 -18.5t-7 -16.5
q-40 -62 -75 -111t-70.5 -91.5t-73 -81.5t-82.5 -80h273zM331 628q0 -24 -16.5 -39t-40.5 -15t-40 15t-16 39v14q0 24 16 38.5t40 14.5t40.5 -14.5t16.5 -38.5v-14z" />
    <glyph glyph-name="schwa" unicode="&#x259;" horiz-adv-x="592" 
d="M299 308q13 0 32 -1t38.5 -2t37 -2t28.5 -2q-5 36 -20.5 64t-38 47t-50.5 29t-58 10q-45 0 -78.5 -15.5t-60.5 -40.5q-10 -9 -22 -10.5t-23 3t-18.5 14t-7.5 23.5q0 19 15 33v-1q38 36 84.5 57.5t112.5 21.5q54 0 102 -20t83.5 -56t56 -86.5t20.5 -111.5q0 -57 -19 -107
t-52.5 -87t-79.5 -58.5t-101 -21.5q-59 0 -104 22t-76.5 59t-47.5 85.5t-16 100.5q2 23 12.5 31.5t37.5 12.5q24 3 56 5q27 2 66.5 3t90.5 1zM282 71q61 0 102.5 41.5t50.5 109.5q-38 3 -81.5 4t-88.5 1q-40 0 -71.5 -0.5t-62.5 -2.5q4 -31 15.5 -59t30 -49t45 -33t60.5 -12
z" />
    <glyph glyph-name="germandbls" unicode="&#xdf;" horiz-adv-x="620" 
d="M513 558q0 -32 -9 -61t-24.5 -54.5t-36 -46t-42.5 -33.5q30 -9 58 -23.5t49 -35.5t33.5 -48.5t12.5 -62.5q0 -47 -18.5 -83.5t-50.5 -61.5t-74.5 -38.5t-91.5 -14.5q-19 0 -30.5 11.5t-11.5 28.5q0 15 11 26.5t26 13.5q65 5 106 34.5t41 83.5q0 25 -11.5 44t-31 33.5
t-46 23.5t-57.5 14q-17 4 -27.5 13.5t-10.5 28.5q0 16 8 25.5t19 15.5q24 10 45.5 26.5t37 38t24.5 46.5t9 51q0 45 -31 72.5t-82 27.5q-20 0 -40 -5.5t-36.5 -16t-27 -26t-12.5 -34.5q-7 -51 -9.5 -106.5t-2.5 -110.5q0 -68 3 -131t6.5 -112t6.5 -79t3 -32q1 -22 -9 -37.5
t-31 -19.5q-30 -2 -41.5 15t-15.5 40q-11 94 -15.5 181t-4.5 162q0 66 2.5 117t6.5 85q14 97 73.5 145t147.5 48q46 0 83.5 -14t64 -38t40.5 -56.5t14 -69.5z" />
    <glyph glyph-name="zero" unicode="0" horiz-adv-x="715" 
d="M347 -12q-68 0 -123 29t-93.5 78.5t-59 115t-20.5 139.5q0 73 21 139t60 115.5t94 78.5t123 29t122.5 -29t93 -78.5t59.5 -115t21 -139.5q0 -73 -21 -139t-60 -115.5t-94 -78.5t-123 -29zM349 78q46 0 82 22t61.5 59.5t39 86.5t13.5 104q0 54 -14 103t-39.5 86.5
t-62.5 60t-82 22.5t-81.5 -22t-62 -59t-39.5 -86.5t-14 -104.5q0 -54 14 -103.5t40 -87t63 -59.5t82 -22z" />
    <glyph glyph-name="one" unicode="1" horiz-adv-x="358" 
d="M164 605q-20 -7 -41 -14t-41 -13q-22 -7 -42.5 3t-20.5 36q0 17 9.5 27t24.5 15l112 40q12 4 22.5 6.5t24.5 2.5q21 0 34.5 -14.5t13.5 -33.5v-616q0 -20 -14 -34.5t-34 -14.5q-19 0 -33.5 14.5t-14.5 34.5v561z" />
    <glyph glyph-name="two" unicode="2" horiz-adv-x="599" 
d="M500 104q20 8 37 -5t18 -33q3 -29 -15 -40.5t-39 -15.5q-60 -8 -109 -12t-98 -4q-47 0 -96 4t-109 12q-23 5 -34.5 20.5t-11.5 34.5q0 12 4.5 24t15.5 22h-1q57 48 112.5 97t112.5 97q36 32 62.5 57.5t44 48.5t26 44.5t8.5 44.5q0 28 -10.5 50.5t-28 38t-41 24t-49.5 8.5
q-51 0 -89 -24.5t-73 -71.5q-14 -18 -34 -18q-12 0 -22.5 6.5t-17 17t-6.5 23.5t9 26q22 31 45.5 55t52 40.5t63 25.5t78.5 9q49 0 89.5 -15.5t70 -42.5t46 -64t16.5 -81q0 -37 -13 -70.5t-36.5 -65.5t-56 -64t-71.5 -66q-44 -38 -83.5 -72.5t-83.5 -74.5q23 -2 52.5 -3
t67.5 -2q53 1 89 3t58.5 5t34 5t16.5 3l-1 -1v0z" />
    <glyph glyph-name="three" unicode="3" horiz-adv-x="613" 
d="M302 -12q-80 0 -140.5 29.5t-103.5 76.5q-5 8 -9.5 17.5t-4.5 17.5q0 19 12 33t34 14q13 0 22 -4.5t14 -10.5q37 -41 79.5 -62t97.5 -21q29 0 54.5 8.5t44 25t29.5 39t11 51.5q0 30 -13 52.5t-37 38t-57 23.5t-73 8h-25q-20 0 -32 13.5t-12 30.5q0 9 5 19t15 17
q24 28 46.5 53.5t45 50.5t45 50.5t46.5 53.5h-280q-19 0 -32.5 12t-13.5 31q0 20 13.5 32.5t32.5 12.5h371q25 0 35.5 -11.5t10.5 -28.5q0 -11 -6 -24.5t-15 -22.5q-49 -55 -93.5 -104.5t-93.5 -104.5q45 -5 84 -18.5t68 -38t46 -60t17 -84.5q0 -48 -18.5 -87.5t-50.5 -68
t-75.5 -44t-93.5 -15.5z" />
    <glyph glyph-name="three.alt" horiz-adv-x="604" 
d="M298 -12q-77 0 -137.5 28.5t-105.5 75.5q-7 8 -11 16.5t-4 19.5q0 20 13.5 33t33.5 13q21 0 35 -15h-1q34 -38 78 -59.5t100 -21.5q63 0 103.5 31.5t40.5 86.5q0 54 -45 84t-127 30h-41q-18 0 -30 12.5t-12 30.5t12 30.5t30 12.5h43q66 0 109 30.5t43 86.5q0 48 -37 78.5
t-99 30.5q-50 0 -87 -20t-68 -57q-7 -7 -15 -12t-20 -5q-19 0 -32 12.5t-13 32.5q0 18 12 32v-1q41 50 95.5 79t129.5 29q51 0 93.5 -14.5t73 -40t47.5 -61.5t17 -78q0 -31 -8 -56t-22 -44t-32.5 -33.5t-39.5 -24.5q55 -21 88 -60.5t33 -105.5q0 -43 -17.5 -80.5
t-49.5 -65.5t-77 -44t-99 -16z" />
    <glyph glyph-name="four" unicode="4" horiz-adv-x="671" 
d="M567 245q17 0 30 -12t13 -32q0 -17 -13 -29t-30 -12h-55q-2 -28 -3 -55.5t-5 -57.5q-4 -22 -15 -40.5t-41 -16.5q-20 1 -30.5 18t-9.5 37q0 22 4.5 46t6.5 69h-344q-21 0 -35 13.5t-14 34.5q0 22 17 43l358 433q8 11 19 19.5t25 8.5q16 1 26.5 -3.5t17 -12t10 -18
t5.5 -21.5q6 -56 9 -108t4.5 -102t1 -100t-1.5 -102h50zM424 245q1 37 1.5 80t-0.5 86.5t-3 84.5t-6 74q-67 -84 -131.5 -162t-133.5 -163h273z" />
    <glyph glyph-name="five" unicode="5" horiz-adv-x="612" 
d="M301 440q52 0 97 -15t78.5 -43t52.5 -69t19 -93t-19 -95t-52.5 -74t-80 -48.5t-101.5 -17.5q-69 0 -127.5 26.5t-101.5 64.5q-18 15 -18 40q0 17 11 31.5t34 14.5q21 0 33 -13q40 -35 82 -54.5t88 -19.5q34 0 62 10.5t48.5 29.5t32 45.5t11.5 58.5q0 60 -44.5 97
t-115.5 37q-32 0 -53.5 -7t-38.5 -13q-26 -13 -46 -13q-29 -1 -40.5 16.5t-14.5 40.5v3t-1 7q-1 8 -2 22t-2.5 30.5t-2.5 34.5t-1 36q0 51 3 83t5 45q0 2 0.5 4t0.5 3q4 22 14.5 39.5t40.5 16.5q81 0 162 -0.5t162 -0.5q20 0 33 -13t13 -33q0 -19 -13 -31.5t-33 -12.5h-285
q-2 -24 -3 -48.5t-1 -45.5v-21t0.5 -20.5t1.5 -23t2 -30.5q24 10 50 14.5t60 4.5z" />
    <glyph glyph-name="six" unicode="6" horiz-adv-x="647" 
d="M324 -12q-59 0 -105.5 19.5t-80.5 52.5q-21 21 -37.5 46.5t-27.5 57.5t-17 73.5t-6 95.5q0 79 19.5 148.5t57 120.5t92 80.5t123.5 29.5q53 0 99 -18.5t84 -44.5q10 -6 16 -15.5t6 -23.5t-7 -25t-18 -16.5t-24 -5t-25 8.5q-32 25 -63.5 37.5t-71.5 12.5q-41 0 -75 -19
t-58.5 -53t-38.5 -82t-17 -106q28 35 71.5 59t112.5 24q49 0 93.5 -15.5t78 -44t53.5 -69t20 -91.5t-19.5 -94.5t-53.5 -75t-80.5 -49.5t-100.5 -18zM325 76q35 0 63.5 11.5t48.5 31.5t31 47t11 58q0 29 -11.5 54t-32 43t-49.5 28.5t-63 10.5q-36 0 -65.5 -12t-51 -31.5
t-33 -45t-11.5 -52.5q0 -30 12 -56.5t34 -45.5t51.5 -30t65.5 -11z" />
    <glyph glyph-name="seven" unicode="7" horiz-adv-x="626" 
d="M588 680q15 -14 13.5 -32t-12.5 -39q-72 -145 -145 -290.5t-145 -290.5q-8 -15 -19.5 -24t-26.5 -9q-14 0 -25 7t-17 17.5t-6.5 24t6.5 25.5q70 137 138.5 270t138.5 270q-31 2 -65 2h-70q-51 0 -101 -1.5t-94 -4.5q-17 1 -33 11t-16 27q-2 28 15 38t37 12l-2 -1
q1 0 20.5 2t49.5 3.5t67 3t73 1.5q27 0 56.5 -1t55.5 -2.5t45 -3t24 -2.5q10 -1 20 -4t18 -10v1z" />
    <glyph glyph-name="eight" unicode="8" horiz-adv-x="630" 
d="M306 -10q-56 0 -104.5 15t-84 42t-56 64.5t-20.5 82.5q0 58 35 101t91 68q-43 23 -73 61t-30 96q0 42 19.5 76.5t53 60t77.5 39.5t92 14q49 0 93 -14t77 -39.5t52.5 -61t19.5 -77.5q0 -56 -30 -94t-73 -61q55 -25 91 -67.5t36 -102.5q0 -45 -20.5 -82.5t-56 -64.5
t-84 -41.5t-105.5 -14.5zM306 77q80 0 124 34.5t44 84.5q0 26 -13 48t-35.5 38t-53.5 25t-66 9t-65.5 -9t-53.5 -25t-36 -38.5t-13 -49.5q0 -24 11.5 -45t33 -37t52.5 -25.5t71 -9.5zM306 399q30 0 57 8.5t46.5 23.5t31 36.5t11.5 47.5q0 23 -11 43t-30.5 34.5t-46.5 22.5
t-58 8t-57.5 -8t-46 -22.5t-31 -35t-11.5 -44.5q0 -26 11.5 -47t31.5 -36t46.5 -23t56.5 -8z" />
    <glyph glyph-name="nine" unicode="9" horiz-adv-x="647" 
d="M287 -12q-59 0 -108 20.5t-88 49.5q-9 8 -15 17t-6 22q0 15 8 26.5t20 16.5t26 3.5t26 -12.5q32 -27 65.5 -40t73.5 -13q41 0 75.5 19t59.5 53t40 81.5t17 104.5q-30 -37 -75 -62.5t-108 -25.5q-54 0 -99.5 16.5t-78 46t-50.5 70.5t-18 90q0 51 18.5 95t52 76.5t80.5 51
t103 18.5q61 0 106 -19.5t80 -53.5q20 -20 36 -45.5t27.5 -58t17.5 -74t6 -94.5q0 -83 -21 -153t-59.5 -120t-92.5 -78t-119 -28zM307 333q37 0 66.5 12.5t50.5 32.5t32 46.5t11 54.5q0 30 -12 56.5t-33.5 46t-52 31t-66.5 11.5t-64.5 -12t-48 -33t-30 -48.5t-10.5 -57.5
t11.5 -56t32 -44.5t49.5 -29t64 -10.5z" />
    <glyph glyph-name="period" unicode="." horiz-adv-x="164" 
d="M21 71q0 24 16 39.5t41 15.5q24 0 39.5 -15.5t15.5 -39.5v-19q0 -25 -15.5 -41t-39.5 -16q-25 0 -41 16t-16 41v19v0z" />
    <glyph glyph-name="comma" unicode="," horiz-adv-x="176" 
d="M12 -88q0 8 5.5 15.5t12.5 11.5q26 11 38 25.5t11 37.5q-14 7 -26 20.5t-12 33.5v16q0 23 15 38.5t39 15.5q26 0 42 -17t16 -46v-18q0 -47 -10 -76t-28 -48q-17 -17 -38.5 -27.5t-34.5 -10.5q-14 0 -22 8t-8 21z" />
    <glyph glyph-name="colon" unicode=":" horiz-adv-x="255" 
d="M68 472q0 23 15.5 39t40.5 16t40.5 -16t15.5 -39v-21q0 -24 -15.5 -39.5t-40.5 -15.5t-40.5 15.5t-15.5 39.5v21zM68 71q0 24 15.5 39.5t40.5 15.5t40.5 -15.5t15.5 -39.5v-19q0 -25 -15.5 -41t-40.5 -16t-40.5 16t-15.5 41v19z" />
    <glyph glyph-name="semicolon" unicode=";" horiz-adv-x="255" 
d="M39 -88q0 8 6 15.5t12 11.5q26 11 38 25.5t11 37.5q-14 7 -26 20.5t-12 33.5v16q0 23 15 38.5t40 15.5q26 0 41.5 -17t15.5 -46v-18q0 -47 -10 -76t-28 -48q-17 -17 -38 -27.5t-35 -10.5t-22 8t-8 21zM68 472q0 23 15.5 39t40.5 16t40.5 -16t15.5 -39v-21
q0 -24 -15.5 -39.5t-40.5 -15.5t-40.5 15.5t-15.5 39.5v21z" />
    <glyph glyph-name="ellipsis" unicode="&#x2026;" horiz-adv-x="723" 
d="M63 71q0 24 15.5 39.5t39.5 15.5q25 0 40 -15.5t15 -39.5v-19q0 -25 -15 -41t-40 -16q-24 0 -39.5 16t-15.5 41v19zM297 71q0 24 15 39.5t40 15.5q24 0 39 -15.5t15 -39.5v-19q0 -25 -15 -41t-39 -16q-25 0 -40 16t-15 41v19zM531 71q0 24 15 39.5t39 15.5t39.5 -15.5
t15.5 -39.5v-19q0 -25 -15.5 -41t-39.5 -16t-39 16t-15 41v19z" />
    <glyph glyph-name="periodcentered" unicode="&#xb7;" horiz-adv-x="245" 
d="M63 312q0 24 16.5 40t40.5 16q23 0 39 -16t16 -40v-19q0 -24 -16 -40t-39 -16q-24 0 -40.5 16t-16.5 40v19v0z" />
    <glyph glyph-name="bullet" unicode="&#x2022;" horiz-adv-x="478" 
d="M232 215q-28 0 -53 10.5t-43.5 29t-29.5 44t-11 54.5q0 28 11 53t30 43.5t44 29t52 10.5t52 -10.5t43.5 -29t30 -44t11.5 -54.5t-11 -53.5t-29.5 -43t-43.5 -29t-53 -10.5z" />
    <glyph glyph-name="ampersand" unicode="&#x26;" horiz-adv-x="696" 
d="M601 -9q-14 0 -21.5 4.5t-16.5 12.5l-82 85q-48 -51 -102 -77t-121 -26q-48 0 -89 14.5t-71 41t-47 64t-17 83.5q0 68 41.5 118t116.5 82q-31 38 -46.5 72t-15.5 76q0 36 13.5 67t38.5 54t60 36.5t78 13.5q38 0 70 -13t55.5 -35.5t36.5 -52.5t13 -65q0 -65 -41 -108.5
t-113 -71.5q36 -37 69 -69.5t69 -69.5q17 26 33 55.5t31 61.5q3 8 12.5 17t26.5 9q20 0 32.5 -12.5t12.5 -31.5q0 -4 -2 -10.5t-4 -11.5q-17 -37 -37.5 -74t-42.5 -66q23 -23 44 -45t44 -45q8 -9 13 -16.5t5 -20.5q0 -20 -13 -33t-33 -13zM263 75q44 0 84 21.5t75 58.5
q-44 45 -87 87.5t-87 88.5q-63 -24 -90 -60t-27 -78q0 -25 10 -46.5t27.5 -37.5t41.5 -25t53 -9zM224 539q0 -27 13 -52t48 -63q59 20 88.5 49t29.5 71q0 37 -24 61t-62 24q-42 0 -67.5 -26t-25.5 -64z" />
    <glyph glyph-name="exclam" unicode="!" horiz-adv-x="271" 
d="M77 662q1 16 11.5 28.5t26.5 12.5h34q17 0 27 -12.5t11 -28.5q-5 -108 -11.5 -220.5t-11.5 -220.5q-2 -14 -10.5 -23t-21.5 -9q-14 0 -23 8.5t-10 22.5zM76 71q0 24 15.5 39.5t40.5 15.5q24 0 40 -15.5t16 -39.5v-19q0 -25 -16 -41t-40 -16q-25 0 -40.5 16t-15.5 41v19z
" />
    <glyph glyph-name="exclamdown" unicode="&#xa1;" horiz-adv-x="271" 
d="M187 38q-1 -16 -11 -28.5t-27 -12.5h-34q-16 0 -26.5 12.5t-11.5 28.5q5 108 11 221t11 221q1 14 10 22.5t23 8.5t22.5 -8.5t9.5 -22.5zM188 629q0 -24 -16 -39.5t-40 -15.5q-25 0 -40.5 15.5t-15.5 39.5v20q0 24 15.5 40t40.5 16q24 0 40 -16t16 -40v-20z" />
    <glyph glyph-name="question" unicode="?" horiz-adv-x="537" 
d="M237 188q-13 0 -23 9.5t-12 25.5l-10 109q-2 18 8 30t28 14q74 5 117 37t43 91q0 24 -9 45t-26.5 37t-42 25t-54.5 9q-48 0 -85 -19t-69 -54q-12 -12 -25.5 -13t-25.5 4.5t-19.5 16t-7.5 23.5q0 8 4.5 17t10.5 16q38 42 92.5 70t126.5 28q51 0 93 -15.5t72 -42.5
t46 -64.5t16 -81.5q0 -47 -15.5 -83t-42.5 -61.5t-64 -41t-80 -21.5q-2 -19 -3.5 -37.5t-3.5 -37.5q-2 -16 -11.5 -25.5t-23.5 -9.5h-4zM182 71q0 24 16 39.5t40 15.5t40.5 -15.5t16.5 -39.5v-19q0 -25 -16.5 -41t-40.5 -16t-40 16t-16 41v19z" />
    <glyph glyph-name="questiondown" unicode="&#xbf;" horiz-adv-x="537" 
d="M281 512q10 1 19 -3q8 -3 14 -10t6 -22l10 -108q2 -18 -8.5 -30.5t-28.5 -14.5q-74 -5 -116.5 -37t-42.5 -91q0 -24 9 -45t26.5 -37t42 -25t54.5 -9q48 0 86 20.5t73 57.5q5 3 11 5.5t17 2.5q17 0 30.5 -12t13.5 -31q0 -18 -14 -34q-38 -42 -92.5 -70t-126.5 -28
q-52 0 -94 15.5t-71.5 42.5t-45.5 64.5t-16 81.5q0 47 15.5 83t42.5 61.5t64 41t80 21.5q2 19 3.5 37.5t3.5 37.5q1 16 11 25.5t24 9.5zM339 629q0 -24 -15.5 -39.5t-39.5 -15.5q-25 0 -40.5 15.5t-15.5 39.5v20q0 24 15.5 40t40.5 16q24 0 39.5 -16t15.5 -40v-20z" />
    <glyph glyph-name="quotedblleft" unicode="&#x201c;" horiz-adv-x="445" 
d="M395 674q0 -8 -6.5 -15.5t-13.5 -10.5q-48 -23 -47 -64q14 -6 25.5 -20t11.5 -34v-15q0 -23 -16 -39t-39 -16q-26 0 -41 17.5t-15 45.5v19q0 47 9 76t28 47q17 17 38 28t35 11t22.5 -8t8.5 -22zM200 674q0 -8 -6 -15.5t-13 -10.5q-49 -23 -48 -64q14 -6 25.5 -20
t11.5 -34v-15q0 -23 -15.5 -39t-38.5 -16q-26 0 -41.5 17.5t-15.5 45.5v19q0 47 9.5 76t27.5 47q17 17 38.5 28t34.5 11q14 0 22.5 -8t8.5 -22z" />
    <glyph glyph-name="quotedblright" unicode="&#x201d;" horiz-adv-x="445" 
d="M39 490q0 9 5.5 16t12.5 11q26 11 38 25.5t11 37.5q-15 6 -26.5 20t-11.5 34v15q0 24 15.5 40t39.5 16q26 0 41.5 -17.5t15.5 -45.5v-19q0 -47 -10 -76t-28 -47q-17 -18 -38 -28.5t-35 -10.5t-22 8t-8 21zM233 490q0 9 5.5 16t13.5 11q26 11 37.5 25.5t10.5 37.5
q-15 6 -26 20t-11 34v15q0 24 15.5 40t38.5 16q26 0 41.5 -17.5t15.5 -45.5v-19q0 -47 -9.5 -76t-28.5 -47q-17 -18 -38 -28.5t-35 -10.5t-22 8t-8 21z" />
    <glyph glyph-name="quoteleft" unicode="&#x2018;" horiz-adv-x="245" 
d="M200 674q0 -8 -6 -15.5t-13 -10.5q-49 -23 -48 -64q14 -6 25.5 -20t11.5 -34v-15q0 -23 -15.5 -39t-38.5 -16q-26 0 -41.5 17.5t-15.5 45.5v19q0 47 9.5 76t27.5 47q17 17 38.5 28t34.5 11q14 0 22.5 -8t8.5 -22z" />
    <glyph glyph-name="quoteright" unicode="&#x2019;" horiz-adv-x="176" 
d="M16 490q0 9 5 16t13 11q26 11 38 25.5t11 37.5q-16 6 -27 20t-11 34v15q0 24 15.5 40t38.5 16q26 0 42 -17.5t16 -45.5v-19q0 -47 -10 -76t-28 -47q-17 -18 -38.5 -28.5t-34.5 -10.5q-14 0 -22 8t-8 21z" />
    <glyph glyph-name="quotedblbase" unicode="&#x201e;" horiz-adv-x="445" 
d="M34 -88q0 8 6 15.5t13 11.5q26 11 37.5 25.5t10.5 37.5q-14 7 -26 20.5t-12 33.5v16q0 23 15.5 38.5t39.5 15.5q26 0 41.5 -17t15.5 -46v-18q0 -47 -10 -76t-28 -48q-17 -17 -38 -27.5t-35 -10.5t-22 8t-8 21zM228 -88q0 8 6 15.5t13 11.5q26 11 38 25.5t11 37.5
q-14 7 -26 20.5t-12 33.5v16q0 22 15.5 38t38.5 16q26 0 41.5 -17.5t15.5 -45.5v-18q0 -47 -9.5 -76t-27.5 -48q-17 -17 -38.5 -27.5t-34.5 -10.5q-14 0 -22.5 8t-8.5 21z" />
    <glyph glyph-name="quotesinglbase" unicode="&#x201a;" horiz-adv-x="245" 
d="M34 -88q0 8 6 15.5t13 11.5q26 11 37.5 25.5t10.5 37.5q-14 7 -26 20.5t-12 33.5v16q0 23 15.5 38.5t39.5 15.5q26 0 41.5 -17t15.5 -46v-18q0 -47 -10 -76t-28 -48q-17 -17 -38 -27.5t-35 -10.5t-22 8t-8 21z" />
    <glyph glyph-name="guillemotleft" unicode="&#xab;" horiz-adv-x="550" 
d="M221 41q-11 0 -20 5.5t-15 13.5l-130 168q-6 9 -9.5 17t-3.5 17q0 8 4 16t9 16q30 39 64.5 83.5t64.5 83.5q13 19 36 19q17 0 29.5 -11.5t12.5 -29.5q0 -8 -3 -15.5t-8 -13.5l-110 -147q27 -38 55.5 -76.5t55.5 -75.5q10 -15 10 -28q0 -17 -12.5 -29.5t-29.5 -12.5z
M438 41q-14 0 -22 5.5t-13 13.5q-32 42 -65.5 84.5t-65.5 83.5q-13 17 -13 34q0 14 13 32q32 41 65 83t65 84q13 19 36 19q17 0 28.5 -11.5t11.5 -29.5q0 -8 -3 -15.5t-7 -13.5l-110 -147q27 -38 55.5 -76.5t55.5 -75.5q4 -7 6.5 -13.5t2.5 -14.5q0 -17 -11.5 -29.5
t-28.5 -12.5z" />
    <glyph glyph-name="guillemotright" unicode="&#xbb;" horiz-adv-x="550" 
d="M314 480q12 0 20 -5t15 -13l130 -169q6 -9 9.5 -16t3.5 -16q0 -14 -13 -33l-129 -167q-7 -8 -15.5 -14t-20.5 -6q-17 0 -29.5 12.5t-12.5 29.5q0 7 3.5 15t7.5 13q26 35 56 74t56 75q-27 37 -56 75.5t-56 75.5v-1q-11 13 -11 29q0 18 12.5 29.5t29.5 11.5zM98 480
q12 0 20 -5t14 -13q32 -42 65.5 -84.5t65.5 -84.5q5 -8 9 -15.5t4 -16.5t-4 -17t-9 -16q-32 -41 -64.5 -83t-64.5 -84q-8 -8 -16.5 -14t-20.5 -6q-17 0 -29 12.5t-12 29.5q0 7 3.5 15t7.5 13q26 35 55 73.5t56 75.5l-56 76l-56 76q-5 8 -8 14t-2 14q0 17 12 28.5t30 11.5z
" />
    <glyph glyph-name="guilsinglleft" unicode="&#x2039;" horiz-adv-x="328" 
d="M221 41q-11 0 -20 5.5t-15 13.5l-130 168q-6 9 -9.5 17t-3.5 17q0 8 4 16t9 16q30 39 64.5 83.5t64.5 83.5q13 19 36 19q17 0 29.5 -11.5t12.5 -29.5q0 -8 -3 -15.5t-8 -13.5l-110 -147q27 -38 55.5 -76.5t55.5 -75.5q10 -15 10 -28q0 -17 -12.5 -29.5t-29.5 -12.5z" />
    <glyph glyph-name="guilsinglright" unicode="&#x203a;" horiz-adv-x="328" 
d="M98 480q12 0 20 -5t14 -13q32 -42 65.5 -84.5t65.5 -84.5q5 -8 9 -15.5t4 -16.5t-4 -17t-9 -16q-32 -41 -64.5 -83t-64.5 -84q-8 -8 -16.5 -14t-20.5 -6q-17 0 -29 12.5t-12 29.5q0 7 3.5 15t7.5 13q26 35 55 73.5t56 75.5l-56 76l-56 76q-5 8 -8 14t-2 14q0 17 12 28.5
t30 11.5z" />
    <glyph glyph-name="hyphen" unicode="-" horiz-adv-x="444" 
d="M97 253q-20 0 -34 14.5t-14 34.5t14 34.5t34 14.5h241q21 0 35 -14.5t14 -34.5t-14 -34.5t-35 -14.5h-241v0z" />
    <glyph glyph-name="endash" unicode="&#x2013;" horiz-adv-x="598" 
d="M95 255q-20 0 -33 14t-13 33t13 33t33 14h393q20 0 33.5 -14t13.5 -33t-13.5 -33t-33.5 -14h-393v0z" />
    <glyph glyph-name="emdash" unicode="&#x2014;" horiz-adv-x="898" 
d="M95 255q-20 0 -33 14t-13 33t13 33t33 14h683q20 0 33 -14t13 -33t-13 -33t-33 -14h-683v0z" />
    <glyph glyph-name="slash" unicode="/" horiz-adv-x="508" 
d="M-14 -89q0 13 7 22l-1 -2q106 212 211.5 422t211.5 422q6 10 16 17.5t22 7.5q16 0 28 -11.5t12 -28.5q0 -12 -5 -20l-424 -844q-13 -25 -37 -25q-17 0 -29 11.5t-12 28.5z" />
    <glyph glyph-name="backslash" unicode="\" horiz-adv-x="508" 
d="M508 -89q0 -17 -12 -28.5t-29 -11.5q-25 0 -37 25q-106 212 -212 422t-212 422q-5 8 -5 20q0 17 11.5 28.5t28.5 11.5q25 0 38 -25q106 -212 212 -422t212 -422q2 -4 3.5 -9.5t1.5 -10.5z" />
    <glyph glyph-name="bar" unicode="|" horiz-adv-x="303" 
d="M106 758q0 17 12.5 29.5t29.5 12.5q16 0 28.5 -12.5t12.5 -29.5v-846q0 -17 -12.5 -29t-28.5 -12q-17 0 -29.5 12t-12.5 29v846z" />
    <glyph glyph-name="fraction" unicode="&#x2044;" horiz-adv-x="434" 
d="M-48 -59q0 5 2 11.5t4 11.5q51 93 104 190.5t107 196t107 196t104 190.5q14 24 39 24q26 0 36.5 -20.5t-0.5 -43.5q-103 -187 -211.5 -386.5t-211.5 -386.5v1q-13 -25 -38 -25q-17 0 -29.5 11.5t-12.5 29.5z" />
    <glyph glyph-name="parenleft" unicode="(" horiz-adv-x="434" 
d="M339 -133q-6 0 -13 2t-10 4l1 -1q-125 74 -193 178t-68 239t68 239t193 178l-1 -1q3 2 10 4t13 2q16 0 27.5 -12t11.5 -27q0 -13 -5 -20.5t-13 -13.5q-102 -67 -155 -152t-53 -197t53 -197.5t155 -151.5q8 -6 13 -14t5 -20q0 -16 -11.5 -27.5t-27.5 -11.5z" />
    <glyph glyph-name="parenright" unicode=")" horiz-adv-x="434" 
d="M83 -133q-16 0 -27.5 11.5t-11.5 27.5q0 12 5.5 20t13.5 14q102 66 154.5 151.5t52.5 197.5t-52.5 197.5t-154.5 151.5q-8 6 -13.5 13.5t-5.5 20.5q0 15 11.5 27t27.5 12q6 0 12.5 -2t10.5 -4l-1 1q125 -74 193 -178t68 -239t-68 -239t-193 -178l1 1q-4 -2 -10.5 -4
t-12.5 -2z" />
    <glyph glyph-name="bracketleft" unicode="[" horiz-adv-x="417" 
d="M362 -48q15 0 27 -11.5t12 -27.5t-12 -27.5t-27 -11.5h-209q-28 -1 -40 17t-16 38q-4 42 -7.5 93.5t-5.5 108.5t-3.5 118.5t-1.5 122.5q0 59 1 115.5t3.5 107.5t5.5 94t7 75q4 20 12.5 36.5t31.5 19.5q3 1 10.5 1h24.5h64t123 -1q14 -1 26.5 -12.5t12.5 -25.5
q0 -17 -12 -28.5t-27 -11.5h-171q-3 -21 -5.5 -53.5t-4 -73t-2.5 -87t-1 -94.5q0 -71 1 -144.5t3.5 -138.5t5 -117.5t5.5 -81.5h169v0z" />
    <glyph glyph-name="bracketright" unicode="]" horiz-adv-x="439" 
d="M232 -48q3 29 5.5 81.5t5 117.5t3.5 138.5t1 144.5q0 52 -0.5 99.5t-2 88t-4 71.5t-6.5 49h-171q-15 0 -27 11.5t-12 28.5q0 14 12.5 25.5t26.5 12.5q31 0 61 0.5t54.5 0.5h43.5h28q21 0 26.5 0.5t8.5 -1.5q21 -4 30.5 -20.5t13.5 -35.5q4 -32 7 -75t5.5 -94t3.5 -107.5
t1 -115.5q0 -61 -1.5 -122.5t-3.5 -118.5t-5.5 -108.5t-7.5 -93.5q-4 -20 -16 -38t-40 -17h-209q-15 0 -27 11.5t-12 27.5t12 27.5t27 11.5h169z" />
    <glyph glyph-name="braceleft" unicode="{" horiz-adv-x="483" 
d="M385 -133q-62 13 -101.5 31.5t-61.5 43.5t-30 56.5t-8 70.5v35q0 11 0.5 21.5t0.5 17.5q0 51 -21 78.5t-80 28.5q-44 2 -44 39q0 17 11.5 27.5t32.5 11.5q59 1 80 28.5t21 78.5q0 6 -0.5 16.5t-0.5 21.5v35q0 38 9.5 69.5t32.5 57t61.5 44.5t97.5 32q17 3 31 -7t14 -27
q0 -14 -10 -23.5t-20 -13.5q-42 -12 -67 -24.5t-38 -28.5t-17 -37.5t-4 -50.5v-36q0 -11 0.5 -20t0.5 -17q0 -56 -22 -88t-60 -49q41 -18 61.5 -49t20.5 -88q0 -8 -0.5 -17.5t-0.5 -19.5v-36q0 -29 4 -50.5t17 -37.5t38 -28.5t67 -24.5q10 -4 20 -13.5t10 -23.5
q0 -18 -14 -28t-31 -6z" />
    <glyph glyph-name="braceright" unicode="}" horiz-adv-x="483" 
d="M85 711q61 -13 100.5 -31.5t61.5 -43.5t30.5 -57t8.5 -71v-35q0 -11 -0.5 -21.5t-0.5 -16.5q0 -51 20.5 -78.5t80.5 -28.5q20 -1 31.5 -11.5t11.5 -27.5q0 -37 -43 -39q-60 -1 -80.5 -28.5t-20.5 -78.5q0 -7 0.5 -17.5t0.5 -21.5v-35q0 -38 -10 -69.5t-33 -56.5t-62 -44
t-96 -32q-19 -4 -32 6t-13 28q0 14 9.5 23.5t20.5 13.5q42 12 67 24.5t37.5 28.5t16.5 37.5t4 50.5v36q0 10 -0.5 19.5t-0.5 17.5q0 56 22 87.5t60 49.5q-40 17 -61 48.5t-21 88.5q0 8 0.5 17t0.5 20v36q0 29 -4 50.5t-16.5 37.5t-37.5 28.5t-67 24.5q-11 4 -20.5 13.5
t-9.5 23.5q0 18 12.5 28.5t32.5 5.5z" />
    <glyph glyph-name="at" unicode="@" horiz-adv-x="961" 
d="M659 253q-4 -21 -6 -36.5t-2 -22.5q0 -32 20.5 -47t55.5 -15q24 0 45 15t37.5 40.5t26 60.5t11.5 74q2 66 -26 127.5t-79 109.5t-120.5 76.5t-151.5 28.5q-83 0 -154 -30.5t-122.5 -83.5t-81 -123.5t-29.5 -150.5q0 -84 33 -153t88 -118t125 -76t144 -27q53 0 104 14
t97 44q24 16 43 16q14 0 24 -8t12 -22q3 -17 -9.5 -29.5t-27.5 -20.5h1q-53 -28 -111 -43.5t-130 -15.5q-96 0 -178 35t-142 94.5t-94 139.5t-34 170t34.5 170.5t94 140.5t140 95.5t173.5 35.5t173 -33t139 -88t93 -128t34 -152q0 -65 -17 -112.5t-44.5 -78.5t-62 -45.5
t-69.5 -14.5q-54 0 -89.5 20t-52.5 55q-29 -32 -67.5 -53.5t-92.5 -21.5q-39 0 -72.5 13.5t-59 38.5t-40 60t-14.5 78q0 54 21 100.5t54.5 80.5t76 53.5t85.5 19.5q54 0 87 -19t53 -46q2 6 2 9.5t1 8.5q8 42 44 42q20 0 33 -15.5t9 -37.5zM429 147q30 0 57.5 14t48.5 37
t33.5 53t12.5 63q0 51 -31 84t-79 33q-30 0 -57.5 -13t-48.5 -36t-34 -54t-13 -67q0 -54 31.5 -84t79.5 -30z" />
    <glyph glyph-name="copyright" unicode="&#xa9;" horiz-adv-x="830" 
d="M403 -12q-77 0 -142.5 28.5t-114.5 78t-76.5 115.5t-27.5 140q0 73 28 139t77 115.5t115 78.5t142 29t142 -28.5t115 -78t76.5 -115.5t27.5 -140t-28 -139.5t-77 -115t-115 -78.5t-142 -29zM403 38q66 0 123 24.5t98.5 67.5t65.5 100t24 122q0 64 -23.5 120.5t-65.5 98.5
t-98.5 66.5t-122.5 24.5t-123 -24.5t-98.5 -67.5t-65.5 -100t-24 -122q0 -64 23.5 -120.5t65.5 -98.5t98.5 -66.5t122.5 -24.5zM407 158q-41 0 -75.5 15.5t-60 42.5t-40 63t-14.5 77q0 40 14.5 75.5t40 62t60.5 42t77 15.5q46 0 76.5 -13.5t55.5 -33.5q5 -5 10 -12.5
t5 -18.5q0 -15 -11 -25t-26 -10q-8 0 -13 2.5t-11 6.5q-18 16 -39.5 26t-47.5 10q-25 0 -46.5 -10t-37 -27.5t-24.5 -40.5t-9 -50q0 -26 9 -49.5t25 -40.5t37.5 -27t46.5 -10q29 0 50 9.5t42 27.5q5 3 9.5 5.5t12.5 2.5q14 0 24.5 -9.5t10.5 -24.5q0 -8 -4 -14.5t-9 -11.5h1
q-29 -24 -60 -39.5t-79 -15.5z" />
    <glyph glyph-name="published" unicode="&#x2117;" horiz-adv-x="830" 
d="M682 611q53 -53 80.5 -121.5t27.5 -145.5q0 -78 -30 -147t-81 -120.5t-119.5 -81t-146.5 -29.5q-79 0 -147 28t-122 82t-81 122.5t-27 145.5q0 78 29.5 147t80.5 120t120 80.5t148 29.5q77 0 146 -28t122 -82zM730 344q3 33 -7 71q-8 32 -29 73t-66 85q-34 32 -71 50.5
t-69 27.5q-37 11 -74 12q-67 0 -125 -25t-101 -68t-67.5 -101.5t-24.5 -125.5t24.5 -125t67 -100.5t100.5 -67t125 -24.5t124.5 24.5t100.5 67.5t67.5 101t24.5 125zM552 510q42 -36 42 -94q0 -30 -12.5 -55.5t-34.5 -42.5q-43 -32 -108 -32h-85q2 -22 4 -43l4 -42
q0 -17 -5.5 -29t-26.5 -12q-11 0 -17 4t-10 10t-5.5 12t-1.5 10q-6 41 -8.5 81t-2.5 78t2.5 76.5t8.5 74.5q1 23 14 30t34 7h102q64 0 106 -33zM527 414q-1 18 -10 33q-8 12 -25 22.5t-49 10.5h-83q-4 -29 -5.5 -61.5t-1.5 -69.5h88q38 0 62 17.5t24 47.5z" />
    <glyph glyph-name="registered.alt" horiz-adv-x="440" 
d="M312 459q6 -8 0 -18t-17 -10q-6 0 -11 5t-11 13q-7 10 -18 25t-24 29h-45q0 -14 1 -26t3 -24q2 -7 -3.5 -14t-13.5 -7h-1q-5 0 -11.5 3t-8.5 17q-5 42 -4 81t4 77q2 21 22 21h67q37 0 57 -20q17 -19 17 -43q0 -41 -42 -58zM276 568q0 17 -13 22t-24 5h-51q-3 -26 -3 -56
h53q38 0 38 28v1zM354 659q26 -26 39.5 -59t13.5 -68v-1q0 -38 -14 -71t-39 -57.5t-58 -39t-70 -14.5t-70 14t-59 40q-25 25 -38.5 58t-13.5 69v1q0 37 14 70t39 58t57.5 39t70.5 14q36 0 69 -13.5t59 -39.5zM226 382q30 0 57 11.5t46.5 32t31 47.5t11.5 58v1q0 31 -11.5 58
t-31 46.5t-46 31t-57.5 11.5t-57.5 -11.5t-46.5 -31.5t-31.5 -47t-11.5 -58v-1q0 -31 11.5 -58t31.5 -47t46.5 -31.5t57.5 -11.5z" />
    <glyph glyph-name="registered" unicode="&#xae;" horiz-adv-x="403" 
d="M295 459q7 -8 0.5 -18t-17.5 -10q-7 0 -17 10q-20 22 -47 62h-45q1 -13 1.5 -24.5t2.5 -23.5q0 -8 -4 -15t-13 -8h-1q-5 0 -11.5 3t-8.5 17q-5 42 -4 81t4 77q2 21 22 21h67q37 0 57 -20q17 -19 17 -43q0 -41 -42 -58zM259 568q0 17 -13 22t-24 5h-51q-3 -26 -3 -56h53
q38 0 38 28v1zM337 659q26 -26 39.5 -59t13.5 -68v-1q0 -38 -14 -71t-39 -57.5t-58 -39t-70 -14.5t-70 14t-59 40q-25 25 -38.5 58t-13.5 69v1q0 37 14 70t39 58t57.5 39t70.5 14q36 0 69 -13.5t59 -39.5zM209 382q30 0 57 11.5t46.5 32t31 47.5t11.5 58v1q0 31 -11.5 58
t-31 46.5t-46 31t-57.5 11.5t-57.5 -11.5t-46.5 -31.5t-31.5 -47t-11.5 -58v-1q0 -31 11.5 -58t31.5 -47t46.5 -31.5t57.5 -11.5z" />
    <glyph glyph-name="trademark" unicode="&#x2122;" horiz-adv-x="749" 
d="M685 666q4 -28 6 -72q2 -38 1 -97.5t-7 -146.5q-2 -16 -10.5 -25.5t-21.5 -9.5q-17 -2 -26.5 10t-5.5 32q5 25 7 56.5t2.5 64t-1 62.5t-2.5 51q-26 -39 -49 -80.5t-51 -78.5q-11 -14 -24 -13.5t-23 13.5q-28 37 -50 80t-50 79q-2 -26 -3 -55t0 -60t3 -61.5t6 -58.5
q2 -18 -6.5 -29.5t-25.5 -11.5q-12 0 -21 9.5t-11 25.5q-7 53 -9.5 97.5t-2.5 79.5q0 70 5.5 102.5t6.5 37.5q4 12 9.5 22.5t24.5 10.5q3 0 7.5 -1.5t13 -9t22 -23.5t33.5 -45q24 -35 42.5 -64.5t29.5 -48.5q12 22 31.5 52.5t39.5 60.5q19 28 32 43.5t21.5 23.5t13.5 10t8 2
q19 1 25.5 -10t9.5 -24zM275 696q17 -2 26 -9t9 -24q0 -12 -11.5 -24t-30.5 -7q-5 2 -25.5 4.5t-55.5 4.5v-293q0 -13 -10.5 -23t-24.5 -10q-13 0 -22 10t-9 23v293q-20 -1 -42 -3.5t-45 -7.5q-14 0 -26 8.5t-12 22.5q-1 10 3 16.5t9.5 10t11.5 5.5t11 3q38 5 67.5 7.5
t57.5 2.5q27 0 55 -2.5t64 -7.5z" />
    <glyph glyph-name="servicemark" unicode="&#x2120;" horiz-adv-x="707" 
d="M628 627q0 -14 0.5 -32.5t0.5 -38.5q0 -37 -1 -77.5t-5 -71.5q-5 -33 -32 -33q-17 0 -22.5 11.5t-3.5 22.5q0 9 2 34.5t3.5 55.5t2 59t-2.5 46q-21 -30 -40.5 -62.5t-30.5 -51.5q-12 -24 -31 -25.5t-30 17.5q-7 14 -27 48.5t-48 70.5q-3 -21 -2.5 -46t2.5 -50t4 -48.5
t2 -41.5q1 -11 -3 -24.5t-23 -15.5q-20 0 -26 12t-7 20q-5 34 -7.5 70.5t-2.5 70.5q0 35 2.5 67.5t7.5 58.5q3 14 9.5 23t23.5 9q10 0 22 -14q32 -42 58.5 -81t42.5 -66q14 23 31 48.5t32.5 48t28.5 38.5t18 21t15 5q16 0 26 -16t11 -62zM253 534q27 -27 27 -63
q0 -25 -9.5 -43.5t-25.5 -31t-37 -18.5t-43 -6q-33 0 -62.5 10.5t-55.5 30.5q-13 10 -13 25q0 20 16 26.5t31 -4.5q21 -19 41.5 -26.5t44.5 -7.5q25 0 40 11.5t15 30.5q0 14 -13.5 24t-54.5 20q-62 16 -87 38t-25 63q0 40 33 67.5t82 27.5q13 0 31.5 -3.5t35.5 -10t29.5 -17
t14.5 -23.5q1 -9 -3.5 -15.5t-11 -10.5t-14.5 -4.5t-14 4.5q-19 14 -35.5 19.5t-35.5 5.5q-23 0 -38 -10.5t-16 -25.5q0 -23 18 -32.5t42.5 -15.5t50.5 -12.5t42 -22.5z" />
    <glyph glyph-name="asterisk" unicode="*" horiz-adv-x="430" 
d="M183 498q-17 -11 -33 -23t-32 -23q-6 -4 -13 -7t-13 -3q-14 0 -24 10.5t-10 24.5q0 12 7.5 20.5t17.5 10.5h-1q12 6 20.5 10l17 8t17.5 8t21 9q-20 9 -39 18t-37 17q-10 5 -17 13.5t-7 19.5q0 14 10.5 23.5t23.5 11.5q8 0 14 -3t12 -7q19 -13 32 -22.5t33 -23.5
q-2 18 -4 39.5t-3 38.5q-2 16 8 27.5t25 11.5t25 -11.5t8 -26.5q-2 -25 -3.5 -39.5t-3.5 -39.5q17 11 33 23t32 23q6 4 13 7t13 3q14 0 24 -10.5t10 -24.5t-7.5 -21t-16.5 -12q-23 -11 -37.5 -17.5t-37.5 -17.5q18 -8 37.5 -17t37.5 -18h-1q10 -2 17.5 -10t7.5 -21
q0 -14 -10.5 -24.5t-23.5 -10.5q-8 0 -14 3t-12 7q-19 13 -32 22.5t-33 23.5q2 -19 4 -40t3 -39q2 -15 -8 -26.5t-25 -11.5t-25 11.5t-8 26.5z" />
    <glyph glyph-name="dagger" unicode="&#x2020;" horiz-adv-x="410" 
d="M169 506q-22 -2 -43 -3.5t-43 -3.5q-16 -2 -27 8.5t-11 26.5q0 15 11 26.5t27 9.5l85 -7q-2 26 -3.5 50t-3.5 50q-1 17 10.5 29.5t27.5 12.5q17 0 28 -12.5t10 -29.5l-7 -100q23 2 43.5 3.5t42.5 3.5q15 2 26.5 -9.5t11.5 -26.5q0 -16 -11.5 -26.5t-26.5 -8.5l-87 7
q2 -60 3 -121t3 -121q0 -17 -10 -27t-26 -10q-15 0 -25.5 10t-10.5 27z" />
    <glyph glyph-name="daggerdbl" unicode="&#x2021;" horiz-adv-x="430" 
d="M178 137q-22 -2 -42.5 -3.5t-43.5 -3.5q-15 -2 -26.5 9.5t-11.5 26.5q0 16 11.5 26.5t26.5 8.5l87 -7v312q-22 -2 -43 -3.5t-44 -3.5q-15 -2 -26.5 8.5t-11.5 26.5q0 15 11.5 26.5t26.5 9.5l86 -7q-2 26 -3.5 50t-3.5 50q-1 17 10.5 29.5t27.5 12.5t27.5 -12.5
t10.5 -29.5l-7 -100q22 2 43 3.5t43 3.5q15 2 26.5 -9.5t11.5 -26.5q0 -16 -11.5 -26.5t-26.5 -8.5l-87 7v-312q22 2 43.5 3.5t43.5 3.5q15 2 26.5 -8.5t11.5 -26.5q0 -15 -11.5 -26.5t-26.5 -9.5l-86 7q2 -26 3.5 -50t3.5 -50q1 -17 -10.5 -29.5t-27.5 -12.5t-27.5 12.5
t-10.5 29.5z" />
    <glyph glyph-name="dollar" unicode="$" horiz-adv-x="636" 
d="M274 720q0 17 12.5 29t28.5 12t28.5 -12t12.5 -29v-23q48 -6 85 -21.5t75 -41.5q10 -7 17 -16.5t7 -23.5q0 -20 -13.5 -32.5t-33.5 -12.5q-15 0 -27 9q-26 18 -56 33t-57 20v-221q112 -26 161 -72.5t49 -124.5q0 -41 -15 -74.5t-42.5 -58.5t-65.5 -40t-84 -19v-60
q0 -17 -12.5 -29t-28.5 -12t-28.5 12t-12.5 29v62q-58 6 -109.5 29t-97.5 58q-20 15 -20 39q0 20 13.5 32.5t31.5 12.5q10 0 17 -3t12 -7q35 -30 73.5 -50t82.5 -26v225q-110 26 -158.5 71.5t-48.5 125.5q0 38 15.5 71t42.5 57.5t64.5 40.5t81.5 20v21zM469 189
q0 19 -5 34.5t-18.5 28t-36 23.5t-56.5 21v-211q55 5 85.5 33t30.5 71zM164 515q0 -18 5 -33.5t17.5 -28.5t34.5 -24t56 -21v207q-54 -4 -83.5 -32.5t-29.5 -67.5z" />
    <glyph glyph-name="sterling" unicode="&#xa3;" horiz-adv-x="644" 
d="M521 95q13 -2 25.5 -5t22 -9t15 -15.5t4.5 -23.5q0 -19 -16 -32t-47 -11q-48 4 -99 5.5t-104 1.5q-51 0 -104.5 -1.5t-113.5 -5.5q-25 -4 -43.5 9.5t-18.5 32.5q-1 15 4.5 24.5t15 15.5t22 9t25.5 5q10 2 17 2.5t12 1.5v189q-8 -1 -16 -1t-18 -1q-23 -2 -43 10t-19 33
q-1 14 4.5 23t15 15t22 9t25.5 6q8 2 14 2.5t15 1.5v86q0 55 16 100.5t47 75.5q29 29 69 45t90 16q36 0 64.5 -6.5t52.5 -18t43.5 -27.5t36.5 -35q12 -14 12 -33t-14 -33.5t-32 -14.5q-19 0 -35 16q-24 29 -53.5 45.5t-75.5 16.5q-64 0 -95 -42t-31 -105v-81q11 0 19 0.5
t17 0.5q73 0 116.5 -4t62.5 -6q13 -2 25 -5t21.5 -9t15 -15.5t5.5 -23.5q1 -21 -19 -33t-43 -10q-33 3 -60.5 4.5t-53 2t-51 0.5h-55.5v-189h41q30 0 65 -1t67.5 -2.5t59 -2.5t41.5 -2z" />
    <glyph glyph-name="Euro" unicode="&#x20ac;" horiz-adv-x="720" 
d="M654 143q0 -8 -3 -15t-6 -12q-20 -27 -43.5 -50.5t-51 -41t-60.5 -27t-72 -9.5q-53 0 -98.5 17.5t-82 49.5t-62.5 76.5t-40 98.5h-54q-17 0 -28.5 12t-11.5 28q0 18 11.5 29.5t28.5 11.5h42q-2 22 -1.5 43.5t1.5 42.5h-42q-17 0 -28.5 11.5t-11.5 28.5q0 16 11.5 27.5
t28.5 11.5h57q15 51 41 94.5t61 75t79 49t94 17.5q39 0 72.5 -9.5t61.5 -25.5t51 -37t43 -45q5 -5 8 -12.5t3 -18.5q0 -18 -13.5 -32t-31.5 -14q-14 0 -22.5 5.5t-14.5 12.5q-32 42 -68.5 64.5t-91.5 22.5q-60 0 -104.5 -39.5t-67.5 -107.5h210q17 0 29 -11.5t12 -27.5
q0 -17 -12 -28.5t-29 -11.5h-228q-2 -21 -2.5 -43.5t1.5 -42.5h229q17 0 29 -11.5t12 -29.5q0 -16 -12 -28t-29 -12h-213q23 -70 71.5 -111.5t114.5 -41.5q51 0 87.5 25t66.5 67q5 8 13.5 13t21.5 5q19 0 31.5 -12.5t12.5 -31.5z" />
    <glyph glyph-name="yen" unicode="&#xa5;" horiz-adv-x="686" 
d="M646 660q0 -9 -3.5 -18t-5.5 -13q-14 -35 -36.5 -73t-48.5 -75.5t-53 -72t-50 -61.5q48 -2 80 -3t34 -1q23 -3 40.5 -14t16.5 -40q1 -20 -16.5 -32t-37.5 -10q-35 3 -80 4.5t-102 2.5v-43q24 -1 56.5 -2t61 -2.5l47.5 -2.5t17 -1l-3 1q11 -2 21.5 -5t19 -9t13 -15.5
t3.5 -23.5q1 -21 -16.5 -33t-37.5 -10q-34 4 -81 5.5t-101 2.5v-74q1 -24 -14.5 -36t-36.5 -12q-20 0 -35.5 12t-14.5 36v74q-51 -1 -97 -2.5t-86 -5.5q-21 -1 -37.5 10.5t-16.5 32.5q-1 28 16.5 39.5t38.5 13.5q6 1 27.5 3t49 3.5t56.5 3t49 0.5v40q-51 -1 -97 -2.5
t-86 -4.5q-19 1 -36.5 12t-17.5 30q-1 29 17.5 40.5t39.5 13.5q9 0 24.5 1.5t32 3t31 3t23.5 1.5q-23 28 -50 62.5t-52.5 71t-47 73.5t-34.5 70v-1q-8 13 -8 32q0 18 11 32.5t37 14.5q14 0 27 -9t19 -20q14 -33 35 -70.5t45 -73.5t47.5 -68.5t43 -57.5t31.5 -39.5l12 -14.5
q47 55 89 111q18 24 37 50.5t36.5 54.5t32.5 55t26 53q7 12 19 20t26 8q19 0 35 -12t15 -34z" />
    <glyph glyph-name="cent" unicode="&#xa2;" horiz-adv-x="581" 
d="M216 101q-39 15 -70 40t-53 58t-34 72.5t-12 83.5q0 55 20.5 104.5t56 86.5t84.5 59t106 22h4q2 13 5 26t5 25q3 12 13.5 22.5t26.5 10.5q20 0 31.5 -15.5t7.5 -35.5q-2 -12 -4.5 -21.5t-4.5 -23.5q32 -10 59 -27t50 -37q6 -6 10.5 -14.5t4.5 -20.5q0 -15 -8 -26t-20 -16
t-25 -3t-23 12v-1q-16 14 -32.5 26.5t-35.5 20.5q-17 -91 -34.5 -179.5t-35.5 -180.5h9q40 0 73 16.5t61 42.5q9 9 21.5 11t24 -2.5t19 -15t7.5 -24.5q0 -19 -14 -31v1q-36 -37 -83 -60.5t-113 -23.5q-7 0 -9 -0.5t-8 0.5q-3 -16 -6.5 -31t-6.5 -30q-3 -12 -13.5 -22.5
t-26.5 -10.5q-19 0 -31.5 15.5t-8.5 35.5zM142 355q0 -54 25.5 -98t67.5 -68q17 91 33 175.5t32 176.5q-33 -3 -62 -18.5t-50.5 -40t-33.5 -57t-12 -68.5v-2z" />
    <glyph glyph-name="florin" unicode="&#x192;" horiz-adv-x="514" 
d="M399 624q-33 0 -51.5 -19.5t-26.5 -61.5q-4 -21 -7.5 -37.5t-7.5 -38.5q31 -2 53.5 -3.5t33.5 -3.5q2 0 4 -0.5t3 -0.5q22 -3 40 -14.5t17 -40.5q1 -18 -17 -29t-37 -12q-35 3 -60 4t-53 2q-11 -60 -22 -118t-22 -118q-14 -73 -51.5 -106t-98.5 -33q-29 0 -43 12t-14 30
q0 40 47 43q51 0 63 66l41 222q-11 -1 -23 -1t-24 -1q-7 -1 -14.5 -1t-15.5 -1q-20 -2 -37.5 9.5t-16.5 31.5q-1 29 17 40.5t41 14.5q4 0 8 1q13 2 33.5 3.5t48.5 3.5l10 46t9 46q14 77 52 114t109 37q16 0 30 -1t27 -4q16 -3 26.5 -14.5t10.5 -28.5t-12.5 -29.5
t-29.5 -12.5h-5t-6 1q-6 1 -14 2t-15 1z" />
    <glyph glyph-name="numbersign" unicode="#" horiz-adv-x="700" 
d="M139 172h-66q-17 0 -30 12.5t-13 30.5q0 17 13 30.5t30 13.5h81q8 48 16.5 92.5t16.5 93.5h-76q-17 0 -30.5 12.5t-13.5 30.5q0 17 13.5 30.5t30.5 13.5h90q6 33 12.5 67.5t11.5 67.5q2 17 14 27.5t29 10.5q23 0 34.5 -16t8.5 -36l-20 -121h161q6 33 12 67.5t11 67.5
q3 17 15 27.5t29 10.5q22 0 34 -16t9 -36l-20 -121h65q17 0 30 -12.5t13 -30.5q0 -17 -13 -30.5t-30 -13.5h-80q-8 -48 -16.5 -92.5t-16.5 -93.5h75q17 0 30.5 -12.5t13.5 -30.5q0 -17 -13.5 -30.5t-30.5 -13.5h-90q-5 -34 -12 -69.5t-12 -69.5q-2 -16 -14.5 -27t-29.5 -11
q-22 0 -33.5 16.5t-9.5 36.5l23 124h-163q-5 -34 -12 -69.5t-12 -69.5q-3 -15 -14.5 -26.5t-29.5 -11.5q-21 0 -33 16t-9 37zM404 259q8 48 17 92.5t17 93.5h-162q-8 -48 -16.5 -92.5t-16.5 -93.5h161z" />
    <glyph glyph-name="paragraph" unicode="&#xb6;" horiz-adv-x="510" 
d="M319 257h-1q-60 0 -111.5 14.5t-89 42.5t-59 69.5t-21.5 95.5q0 52 19.5 93t55 69.5t84 43.5t107.5 15h65q20 0 34 -14t14 -35v-607q0 -20 -13.5 -34.5t-34.5 -14.5t-35 14.5t-14 34.5v213z" />
    <glyph glyph-name="section" unicode="&#xa7;" horiz-adv-x="632" 
d="M319 -10q-63 0 -118 21.5t-95 56.5q-15 13 -15 34q0 19 13.5 31.5t30.5 12.5q11 0 18 -3.5t13 -8.5q31 -27 70.5 -43.5t84.5 -16.5q46 0 68 16t22 40q0 23 -32.5 41.5t-117.5 38.5q-58 13 -98 28t-65 33t-36 39.5t-11 49.5q0 44 29.5 72.5t80.5 41.5q-54 35 -54 97
q0 63 51 101t138 38q63 0 117.5 -21.5t94.5 -56.5q15 -13 15 -34q0 -19 -13 -31.5t-31 -12.5q-10 0 -17 3.5t-14 9.5q-30 26 -69.5 42.5t-84.5 16.5q-46 0 -68.5 -15.5t-22.5 -40.5q0 -23 33.5 -41.5t117.5 -38.5q106 -26 158 -61t52 -89q0 -42 -31.5 -71.5t-80.5 -43.5
q56 -37 56 -96q0 -63 -51 -101t-138 -38zM376 275q44 0 70.5 17t26.5 42q0 21 -29 38.5t-102 36.5q-34 8 -60 12t-44 4q-43 0 -69.5 -17t-26.5 -42q0 -11 6 -20.5t21 -18.5t40 -18t63 -18q35 -9 60.5 -12.5t43.5 -3.5z" />
    <glyph glyph-name="ordfeminine" unicode="&#xaa;" horiz-adv-x="390" 
d="M307 433q-2 -16 -7.5 -24.5t-22.5 -10.5q-14 1 -20 8t-8 17q-15 -13 -35 -20.5t-47 -7.5q-20 0 -39 6t-34 17.5t-24.5 28.5t-9.5 40q0 45 33.5 69.5t87.5 24.5q23 0 40 -2t32 -7q1 32 -13.5 56t-54.5 24q-20 0 -35 -3t-29 -9h1q-14 -8 -26 1t-12 22q0 9 4.5 16t10.5 9
q21 9 42.5 14t47.5 5q29 0 51 -8.5t39 -23.5q18 -18 25 -44t7 -49zM75 281q-13 0 -22.5 9t-9.5 23t9.5 23.5t22.5 9.5h216q12 0 22 -9.5t10 -23.5t-10 -23t-22 -9h-216zM175 445q32 0 54.5 18t22.5 44v17q-29 8 -67 8q-32 0 -48.5 -12t-16.5 -32t16 -31.5t39 -11.5z" />
    <glyph glyph-name="ordmasculine" unicode="&#xba;" horiz-adv-x="390" 
d="M189 396q-33 0 -61 12t-48 33t-31.5 49t-11.5 60q0 31 11.5 59.5t32 49.5t49 33.5t61.5 12.5t60.5 -12t47.5 -33t31.5 -49.5t11.5 -60.5q0 -31 -11.5 -59t-32 -49t-48.5 -33.5t-61 -12.5zM191 462q35 0 57 26t22 62q0 37 -23 63t-58 26q-36 0 -58 -26t-22 -63
q0 -36 23.5 -62t58.5 -26zM68 281q-13 0 -23 9t-10 23t10 23.5t23 9.5h243q14 0 23.5 -9.5t9.5 -23.5t-9.5 -23t-23.5 -9h-243z" />
    <glyph glyph-name="degree" unicode="&#xb0;" horiz-adv-x="458" 
d="M223 389q-32 0 -61.5 13t-52 34.5t-36 50.5t-13.5 61t13.5 60.5t36 50.5t52 34.5t61.5 12.5q31 0 60.5 -13t52 -34.5t36 -50.5t13.5 -62q0 -31 -13.5 -59.5t-36 -50t-52 -34.5t-60.5 -13zM223 459q18 0 34 7.5t27.5 19.5t18 28t6.5 34q0 17 -6.5 33t-18 28t-27.5 19.5
t-34 7.5q-19 0 -35 -7.5t-27.5 -19.5t-18 -28.5t-6.5 -34.5q0 -34 24.5 -60.5t62.5 -26.5z" />
    <glyph glyph-name="percent" unicode="%" horiz-adv-x="834" 
d="M204 340q-37 0 -67 15t-51.5 40.5t-33 58.5t-11.5 70q0 36 12 69.5t33.5 59t52 40.5t67.5 15q36 0 66 -15t51.5 -40.5t33 -58.5t11.5 -70q0 -36 -12 -69.5t-33.5 -59t-51.5 -40.5t-67 -15zM605 -8q-36 0 -66 15t-51.5 40.5t-33.5 58.5t-12 70q0 36 12 69.5t33.5 59
t52 40.5t67.5 15t67 -15t51 -40.5t32.5 -58.5t11.5 -70q0 -36 -11.5 -69.5t-33 -59t-52 -40.5t-67.5 -15zM135 32q0 13 8 24l463 631q5 8 13 13t19 5q16 0 27 -11.5t11 -25.5q0 -13 -8 -24l-463 -631q-6 -8 -13.5 -13t-18.5 -5q-16 0 -27 11.5t-11 25.5zM206 414
q18 0 32.5 8.5t25 23.5t16 35t5.5 43q0 47 -23.5 78.5t-57.5 31.5q-18 0 -32.5 -9t-25 -24t-16 -35t-5.5 -42q0 -47 23.5 -78.5t57.5 -31.5zM607 66q35 0 56.5 32t21.5 78q0 23 -6.5 43t-17 35t-25.5 23.5t-31 8.5q-18 0 -32.5 -9t-25 -24t-16 -35t-5.5 -42
q0 -47 23.5 -78.5t57.5 -31.5z" />
    <glyph glyph-name="perthousand" unicode="&#x2030;" horiz-adv-x="1211" 
d="M971 -8q-36 0 -66 15t-51.5 40.5t-33 58.5t-11.5 70q0 36 12 69.5t33.5 59t51.5 40.5t67 15t67 -15t51.5 -40.5t33.5 -58.5t12 -70q0 -36 -12 -69.5t-34 -59t-52.5 -40.5t-67.5 -15zM204 340q-37 0 -67 15t-51.5 40.5t-33 58.5t-11.5 70q0 36 12 69.5t33.5 59t52 40.5
t67.5 15q36 0 66 -15t51.5 -40.5t33 -58.5t11.5 -70q0 -36 -12 -69.5t-33.5 -59t-51.5 -40.5t-67 -15zM605 -8q-36 0 -66 15t-51.5 40.5t-33.5 58.5t-12 70q0 36 12 69.5t33.5 59t52 40.5t67.5 15t67 -15t51 -40.5t32.5 -58.5t11.5 -70q0 -36 -11.5 -69.5t-33 -59t-52 -40.5
t-67.5 -15zM135 32q0 13 8 24l463 631q5 8 13 13t19 5q16 0 27 -11.5t11 -25.5q0 -13 -8 -24l-463 -631q-6 -8 -13.5 -13t-18.5 -5q-16 0 -27 11.5t-11 25.5zM206 414q18 0 32.5 8.5t25 23.5t16 35t5.5 43q0 47 -23.5 78.5t-57.5 31.5q-18 0 -32.5 -9t-25 -24t-16 -35
t-5.5 -42q0 -47 23.5 -78.5t57.5 -31.5zM607 66q35 0 56.5 32t21.5 78q0 23 -6.5 43t-17 35t-25.5 23.5t-31 8.5q-18 0 -32.5 -9t-25 -24t-16 -35t-5.5 -42q0 -47 23.5 -78.5t57.5 -31.5zM973 66q36 0 57.5 32t21.5 78q0 47 -23.5 78.5t-57.5 31.5q-17 0 -31.5 -9t-25 -24
t-16 -35t-5.5 -42q0 -47 23 -78.5t57 -31.5z" />
    <glyph glyph-name="quotedbl" unicode="&#x22;" horiz-adv-x="440" 
d="M269 657q3 20 15.5 33t33.5 13h25q14 0 23 -8t9 -25q0 -5 -2 -11q-18 -54 -32.5 -109t-31.5 -109q-5 -14 -12 -21.5t-21 -7.5t-23.5 8.5t-7.5 27.5zM80 657q3 20 15 33t33 13h26q14 0 23 -8t9 -25q0 -5 -2 -11q-18 -54 -33 -109t-31 -109q-10 -29 -33 -29q-14 0 -24 8.5
t-8 27.5z" />
    <glyph glyph-name="quotesingle" unicode="'" horiz-adv-x="245" 
d="M80 657q3 20 15 33t33 13h26q14 0 23 -8t9 -25q0 -5 -1 -12t-3 -13l-62 -204q-5 -14 -12 -21.5t-21 -7.5q-15 0 -24.5 8.5t-7.5 27.5z" />
    <glyph glyph-name="plus" unicode="+" horiz-adv-x="625" 
d="M258 307h-161q-18 0 -31.5 13t-13.5 32t13.5 32t31.5 13h161v158q0 20 13 33t33 13q19 0 32.5 -13t13.5 -33v-158h161q20 0 32.5 -13t12.5 -32t-12.5 -32t-32.5 -13h-161v-158q0 -20 -13.5 -33t-32.5 -13q-20 0 -33 13t-13 33v158z" />
    <glyph glyph-name="minus" unicode="&#x2212;" horiz-adv-x="625" 
d="M98 306q-20 0 -33 13t-13 33q0 18 13 32t33 14h412q19 0 32.5 -14t13.5 -32q0 -20 -13.5 -33t-32.5 -13h-412z" />
    <glyph glyph-name="divide" unicode="&#xf7;" horiz-adv-x="625" 
d="M95 308q-17 0 -30 13.5t-13 30.5t13 30.5t30 13.5h417q18 0 31 -13.5t13 -30.5t-13 -30.5t-31 -13.5h-417zM304 224q24 0 42 -18t18 -41v-12q0 -23 -18 -41t-42 -18q-26 0 -43 18t-17 41v12q0 23 17 41t43 18zM304 610q24 0 42 -18t18 -41v-12q0 -23 -18 -41t-42 -18
q-26 0 -43 18t-17 41v12q0 23 17 41t43 18z" />
    <glyph glyph-name="equal" unicode="=" horiz-adv-x="625" 
d="M110 193q-18 0 -32 12.5t-14 32.5q0 19 14 32.5t32 13.5h388q20 0 33 -13.5t13 -32.5q0 -20 -13 -32.5t-33 -12.5h-388zM110 420q-18 0 -32 13t-14 33q0 18 14 31.5t32 13.5h388q20 0 33 -13.5t13 -31.5q0 -20 -13 -33t-33 -13h-388z" />
    <glyph glyph-name="multiply" unicode="&#xd7;" horiz-adv-x="625" 
d="M365 353q35 -35 71.5 -70t71.5 -70q6 -7 10 -15t4 -19q0 -19 -12.5 -32t-32.5 -13q-19 0 -34 15l-140 143q-34 -35 -70 -72t-71 -72q-14 -14 -33 -14q-17 0 -30 13.5t-13 30.5q0 18 14 32l143 141q-35 35 -71.5 70t-71.5 70q-14 14 -14 34q0 19 13.5 32t31.5 13
q20 0 33 -15l141 -143q35 35 71 72t70 72q14 14 32 14t31 -13.5t13 -30.5q0 -10 -4 -17.5t-10 -14.5z" />
    <glyph glyph-name="less" unicode="&#x3c;" horiz-adv-x="625" 
d="M490 98q-6 0 -13.5 3t-13.5 5l-380 193h1q-34 17 -34 51v4q0 34 34 50h-1q96 50 192 98.5t193 97.5q7 6 23 6q17 1 29.5 -12.5t12.5 -30.5q0 -15 -7.5 -25t-20.5 -17l-340 -168q83 -42 170 -85.5t170 -84.5q12 -7 20 -17.5t8 -24.5q0 -18 -12 -30.5t-31 -12.5z" />
    <glyph glyph-name="greater" unicode="&#x3e;" horiz-adv-x="625" 
d="M118 606q8 0 20 -5h2l385 -197h-1q35 -17 35 -50v-4q0 -33 -35 -51h1q-96 -49 -191.5 -97.5t-191.5 -97.5q-12 -6 -24 -6q-18 -1 -30.5 12.5t-12.5 30.5q0 14 8 24.5t20 17.5l339 168q-82 42 -169 85.5t-170 84.5q-12 7 -20 17t-8 25q0 18 12 30.5t31 12.5z" />
    <glyph glyph-name="plusminus" unicode="&#xb1;" horiz-adv-x="625" 
d="M259 354h-155q-17 0 -30.5 13t-13.5 31q0 17 13.5 30t30.5 13h155v150q0 18 12.5 32t32.5 14t32.5 -14t12.5 -32v-150h155q17 0 30 -13t13 -30q0 -18 -13 -31t-30 -13h-155v-150q0 -18 -12.5 -32t-32.5 -14t-32.5 14t-12.5 32v150zM104 0q-17 0 -30.5 13t-13.5 31
q0 17 13.5 30t30.5 13h401q18 0 30 -13t12 -30q0 -18 -12 -31t-30 -13h-401z" />
    <glyph glyph-name="underscore" unicode="_" horiz-adv-x="600" 
d="M-2 -156q-16 0 -28.5 12t-12.5 29t12.5 28.5t28.5 11.5h587q17 0 29 -11.5t12 -28.5t-12 -29t-29 -12h-587v0z" />
    <glyph glyph-name="asciicircum" unicode="^" 
d="M152 504q-14 -17 -27 -23t-30 -6q-12 0 -20 7.5t-8 16.5q0 10 9 24l116 155q10 12 20.5 20t26.5 8h8q16 0 26.5 -8t21.5 -20l114 -155v1q6 -7 8 -13t2 -12q0 -9 -8 -16.5t-21 -7.5q-19 0 -31.5 6t-25.5 23l-91 118z" />
    <glyph glyph-name="asciitilde" unicode="~" horiz-adv-x="474" 
d="M131 250q-5 -8 -11.5 -15t-20.5 -7q-13 0 -23.5 9.5t-10.5 23.5q0 3 1 9t3 10v-1q16 46 38 66.5t56 20.5q15 0 32 -6.5t34 -14t33.5 -13.5t31.5 -6q12 0 19.5 6t14.5 20q5 10 13.5 17t19.5 7q14 0 24 -9t10 -23v-11q-17 -51 -40 -72.5t-57 -21.5q-15 0 -32 6t-34 13.5
t-33.5 14t-31.5 6.5q-13 0 -20.5 -7t-15.5 -22z" />
    </font>
</defs>
</svg>
